Commissioner-ExtraLightItalic.ufo
<glyph name="numbersign" format="2">
  <advance width="1349.2421052631578"/>
  <unicode hex="0023"/>
  <outline>
    <contour>
      <point x="3.9578947368421074" y="331.38947368421054" type="line"/>
      <point x="122.82105263157897" y="331.38947368421054"/>
      <point x="235.51578947368424" y="331.38947368421054"/>
      <point x="332.04210526315785" y="331.38947368421054" type="curve"/>
      <point x="829.3473684210526" y="331.38947368421054" type="line"/>
      <point x="925.8736842105263" y="331.38947368421054"/>
      <point x="1038.5684210526315" y="331.38947368421054"/>
      <point x="1157.4315789473685" y="331.38947368421054" type="curve"/>
      <point x="1174.1473684210528" y="409.62105263157895" type="line"/>
      <point x="1055.2842105263157" y="409.62105263157895"/>
      <point x="942.5894736842106" y="409.62105263157895"/>
      <point x="846.0631578947368" y="409.62105263157895" type="curve"/>
      <point x="348.7578947368421" y="409.62105263157895" type="line"/>
      <point x="252.23157894736843" y="409.62105263157895"/>
      <point x="139.53684210526316" y="409.62105263157895"/>
      <point x="20.673684210526318" y="409.62105263157895" type="curve"/>
    </contour>
    <contour>
      <point x="147.09473684210525" y="0.0" type="curve"/>
      <point x="235.83157894736843" y="0.0" type="line"/>
      <point x="295.1578947368421" y="139.83157894736843"/>
      <point x="343.1578947368421" y="253.34736842105264"/>
      <point x="412.65263157894736" y="419.6842105263158" type="curve"/>
      <point x="604.9684210526316" y="876.6947368421052" type="line"/>
      <point x="680.2947368421052" y="1055.2"/>
      <point x="729.4526315789474" y="1172.357894736842"/>
      <point x="787.2842105263157" y="1309.3684210526317" type="curve"/>
      <point x="698.5473684210526" y="1309.3684210526317" type="line"/>
      <point x="640.5473684210526" y="1171.6842105263156"/>
      <point x="589.5578947368421" y="1051.0315789473684"/>
      <point x="516.2315789473685" y="876.6947368421053" type="curve"/>
      <point x="323.91578947368424" y="419.6842105263158" type="line"/>
      <point x="254.42105263157896" y="255.17894736842106"/>
      <point x="206.0842105263158" y="138.98947368421054"/>
    </contour>
    <contour>
      <point x="241.6" y="893.7473684210527" type="line"/>
      <point x="360.46315789473687" y="893.7473684210527"/>
      <point x="473.15789473684214" y="893.7473684210527"/>
      <point x="569.6842105263157" y="893.7473684210527" type="curve"/>
      <point x="1066.9894736842105" y="893.7473684210527" type="line"/>
      <point x="1163.5157894736842" y="893.7473684210527"/>
      <point x="1276.2105263157894" y="893.7473684210527"/>
      <point x="1395.0736842105262" y="893.7473684210527" type="curve"/>
      <point x="1411.7894736842104" y="971.978947368421" type="line"/>
      <point x="1292.9263157894736" y="971.978947368421"/>
      <point x="1180.2315789473685" y="971.978947368421"/>
      <point x="1083.7052631578947" y="971.978947368421" type="curve"/>
      <point x="586.3999999999999" y="971.978947368421" type="line"/>
      <point x="489.87368421052633" y="971.978947368421"/>
      <point x="377.17894736842106" y="971.978947368421"/>
      <point x="258.3157894736842" y="971.978947368421" type="curve"/>
    </contour>
    <contour>
      <point x="612.1473684210526" y="0.0" type="curve"/>
      <point x="700.8842105263159" y="0.0" type="line"/>
      <point x="760.2105263157895" y="139.83157894736843"/>
      <point x="808.2105263157895" y="253.34736842105264"/>
      <point x="877.7052631578948" y="419.6842105263158" type="curve"/>
      <point x="1070.021052631579" y="876.6947368421052" type="line"/>
      <point x="1145.3473684210528" y="1055.2"/>
      <point x="1194.5052631578947" y="1172.357894736842"/>
      <point x="1252.336842105263" y="1309.3684210526317" type="curve"/>
      <point x="1163.6" y="1309.3684210526317" type="line"/>
      <point x="1105.6" y="1171.6842105263156"/>
      <point x="1054.6105263157897" y="1051.0315789473684"/>
      <point x="981.2842105263159" y="876.6947368421053" type="curve"/>
      <point x="788.9684210526316" y="419.6842105263158" type="line"/>
      <point x="719.4736842105264" y="255.17894736842106"/>
      <point x="671.1368421052631" y="138.98947368421054"/>
    </contour>
  </outline>
</glyph>
<glyph name="dollar" format="2">
  <advance width="1110.0631578947368"/>
  <unicode hex="0024"/>
  <outline>
    <contour>
      <point x="513.0105263157894" y="-19.010526315789473" type="curve" smooth="yes"/>
      <point x="796.5894736842106" y="-19.010526315789473"/>
      <point x="940.2736842105263" y="103.47368421052632"/>
      <point x="983.6210526315789" y="312.2105263157894" type="curve" smooth="yes"/>
      <point x="1020.8" y="489.93684210526317"/>
      <point x="944.4631578947368" y="614.1052631578948"/>
      <point x="643.978947368421" y="741.7473684210526" type="curve" smooth="yes"/>
      <point x="387.05263157894734" y="851.5368421052632"/>
      <point x="301.4105263157895" y="924.5052631578948"/>
      <point x="335.22105263157897" y="1081.8947368421054" type="curve" smooth="yes"/>
      <point x="372.5263157894737" y="1261.0947368421055"/>
      <point x="544.2526315789473" y="1302.9052631578948"/>
      <point x="703.5157894736842" y="1302.9052631578948" type="curve"/>
      <point x="813.6842105263158" y="1302.9052631578948"/>
      <point x="971.2" y="1259.242105263158"/>
      <point x="1065.0526315789475" y="1184.2315789473685" type="curve"/>
      <point x="1098.4631578947367" y="1270.336842105263" type="line"/>
      <point x="1029.9157894736843" y="1324.021052631579"/>
      <point x="855.3684210526316" y="1392.6736842105263"/>
      <point x="701.3263157894736" y="1392.6736842105263" type="curve" smooth="yes"/>
      <point x="437.43157894736845" y="1392.6736842105263"/>
      <point x="285.09473684210525" y="1283.663157894737"/>
      <point x="245.7473684210526" y="1096.7578947368422" type="curve" smooth="yes"/>
      <point x="200.73684210526315" y="887.0315789473684"/>
      <point x="315.57894736842104" y="785.3473684210526"/>
      <point x="580.6947368421053" y="670.378947368421" type="curve" smooth="yes"/>
      <point x="803.6210526315789" y="574.0842105263157"/>
      <point x="927.957894736842" y="489.95789473684215"/>
      <point x="893.978947368421" y="325.89473684210526" type="curve" smooth="yes"/>
      <point x="849.5157894736842" y="112.4"/>
      <point x="676.6315789473684" y="70.08421052631579"/>
      <point x="514.0210526315789" y="70.08421052631579" type="curve"/>
      <point x="324.2105263157895" y="70.08421052631579"/>
      <point x="199.51578947368424" y="129.57894736842107"/>
      <point x="92.16842105263157" y="208.0842105263158" type="curve"/>
      <point x="60.92631578947367" y="120.63157894736842" type="line"/>
      <point x="142.44210526315788" y="56.631578947368425"/>
      <point x="300.021052631579" y="-19.010526315789473"/>
    </contour>
    <contour>
      <point x="360.4210526315789" y="-274.0" type="curve"/>
      <point x="442.3157894736842" y="-274.0" type="line"/>
      <point x="492.3157894736842" y="-40.0"/>
      <point x="536.3157894736842" y="168.0"/>
      <point x="582.3157894736842" y="384.0" type="curve"/>
      <point x="702.3157894736842" y="948.0" type="line"/>
      <point x="748.3157894736842" y="1164.0"/>
      <point x="792.3157894736842" y="1372.0"/>
      <point x="842.3157894736842" y="1606.0" type="curve"/>
      <point x="760.4210526315788" y="1606.0" type="line"/>
      <point x="710.4210526315788" y="1372.0"/>
      <point x="666.4210526315788" y="1164.0"/>
      <point x="620.4210526315788" y="948.0" type="curve"/>
      <point x="500.4210526315789" y="384.0" type="line"/>
      <point x="454.4210526315789" y="168.0"/>
      <point x="410.4210526315789" y="-40.0"/>
    </contour>
  </outline>
</glyph>
<glyph name="percent" format="2">
  <advance width="1696.6315789473683"/>
  <unicode hex="0025"/>
  <outline>
    <contour>
      <point x="293.1578947368421" y="0.0" type="curve"/>
      <point x="393.4315789473684" y="0.0" type="line"/>
      <point x="507.7684210526316" y="147.83157894736843"/>
      <point x="606.2736842105263" y="275.8315789473684"/>
      <point x="747.1157894736842" y="458.1684210526316" type="curve"/>
      <point x="1132.2947368421053" y="957.6631578947369" type="line"/>
      <point x="1278.8000000000002" y="1147.494736842105"/>
      <point x="1375.6421052631579" y="1272.0"/>
      <point x="1494.1473684210528" y="1426.0" type="curve"/>
      <point x="1393.8736842105263" y="1426.0" type="line"/>
      <point x="1275.3684210526314" y="1272.0"/>
      <point x="1178.5263157894738" y="1147.494736842105"/>
      <point x="1032.0210526315789" y="957.6631578947369" type="curve"/>
      <point x="646.8421052631579" y="458.1684210526316" type="line"/>
      <point x="506.0" y="275.8315789473684"/>
      <point x="407.4947368421052" y="147.83157894736843"/>
    </contour>
    <contour>
      <point x="540.357894736842" y="751.9578947368421" type="curve" smooth="yes"/>
      <point x="724.9052631578948" y="751.9578947368421"/>
      <point x="869.9157894736842" y="851.9578947368421"/>
      <point x="914.2526315789473" y="1060.1473684210528" type="curve" smooth="yes"/>
      <point x="956.5894736842105" y="1261.8315789473684"/>
      <point x="813.0736842105264" y="1450.6736842105263"/>
      <point x="589.6842105263158" y="1450.6736842105263" type="curve" smooth="yes"/>
      <point x="397.30526315789473" y="1450.6736842105263"/>
      <point x="254.63157894736844" y="1336.842105263158"/>
      <point x="210.63157894736844" y="1136.505263157895" type="curve" smooth="yes"/>
      <point x="165.78947368421055" y="928.8000000000001"/>
      <point x="305.64210526315793" y="751.9578947368421"/>
    </contour>
    <contour>
      <point x="543.3684210526316" y="830.8" type="curve"/>
      <point x="352.1473684210526" y="830.8"/>
      <point x="259.0315789473684" y="958.2315789473685"/>
      <point x="293.178947368421" y="1126.9684210526316" type="curve" smooth="yes"/>
      <point x="325.32631578947365" y="1287.536842105263"/>
      <point x="429.2631578947368" y="1371.8315789473684"/>
      <point x="586.6736842105263" y="1371.8315789473684" type="curve"/>
      <point x="766.5684210526316" y="1371.8315789473684"/>
      <point x="864.8421052631579" y="1232.7368421052633"/>
      <point x="830.8631578947369" y="1070.1684210526316" type="curve" smooth="yes"/>
      <point x="796.7157894736843" y="903.2631578947369"/>
      <point x="699.9368421052632" y="830.8"/>
    </contour>
    <contour>
      <point x="1205.1157894736841" y="-19.178947368421053" type="curve" smooth="yes"/>
      <point x="1389.6631578947367" y="-19.178947368421053"/>
      <point x="1534.6736842105263" y="80.82105263157895"/>
      <point x="1579.0105263157893" y="289.0105263157895" type="curve" smooth="yes"/>
      <point x="1621.3473684210526" y="490.69473684210527"/>
      <point x="1477.8315789473684" y="679.5368421052632"/>
      <point x="1254.442105263158" y="679.5368421052632" type="curve" smooth="yes"/>
      <point x="1062.0631578947368" y="679.5368421052632"/>
      <point x="919.3894736842105" y="565.7052631578947"/>
      <point x="875.3894736842105" y="365.36842105263156" type="curve" smooth="yes"/>
      <point x="830.5473684210526" y="157.66315789473683"/>
      <point x="970.4000000000001" y="-19.178947368421053"/>
    </contour>
    <contour>
      <point x="1208.1263157894737" y="59.66315789473684" type="curve"/>
      <point x="1016.9052631578946" y="59.66315789473684"/>
      <point x="923.7894736842106" y="187.09473684210528"/>
      <point x="957.9368421052632" y="355.8315789473684" type="curve" smooth="yes"/>
      <point x="990.0842105263158" y="516.4"/>
      <point x="1094.0210526315789" y="600.6947368421053"/>
      <point x="1251.4315789473685" y="600.6947368421053" type="curve"/>
      <point x="1431.3263157894737" y="600.6947368421053"/>
      <point x="1529.6000000000001" y="461.59999999999997"/>
      <point x="1495.621052631579" y="299.0315789473684" type="curve" smooth="yes"/>
      <point x="1461.4736842105265" y="132.1263157894737"/>
      <point x="1364.6947368421052" y="59.66315789473684"/>
    </contour>
  </outline>
</glyph>
<glyph name="ampersand" format="2">
  <advance width="1434.712643678161"/>
  <unicode hex="0026"/>
  <outline>
    <contour>
      <point x="1171.0804597701149" y="0.0" type="curve"/>
      <point x="1286.3908045977012" y="0.0" type="line"/>
      <point x="1197.0804597701149" y="109.88505747126437"/>
      <point x="1108.5057471264367" y="220.29885057471265"/>
      <point x="1016.6666666666666" y="330.71264367816093" type="curve"/>
      <point x="640.0229885057471" y="793.7701149425287" type="line" smooth="yes"/>
      <point x="535.1724137931035" y="922.6206896551723"/>
      <point x="496.48275862068965" y="1031.8390804597702"/>
      <point x="523.3793103448276" y="1157.9540229885056" type="curve" smooth="yes"/>
      <point x="551.9080459770115" y="1286.5977011494251"/>
      <point x="647.8620689655172" y="1367.7701149425288"/>
      <point x="786.9885057471265" y="1367.7701149425288" type="curve"/>
      <point x="908.8965517241379" y="1367.7701149425288"/>
      <point x="996.1609195402299" y="1268.7586206896551"/>
      <point x="968.0" y="1128.8505747126437" type="curve" smooth="yes"/>
      <point x="932.5747126436781" y="953.5172413793103"/>
      <point x="779.2413793103449" y="891.3563218390805"/>
      <point x="603.6551724137931" y="824.8275862068965" type="curve"/>
      <point x="654.0" y="760.6436781609195" type="line"/>
      <point x="823.264367816092" y="824.6436781609195"/>
      <point x="1012.6896551724138" y="903.7471264367816"/>
      <point x="1056.3218390804598" y="1114.2758620689656" type="curve" smooth="yes"/>
      <point x="1095.0574712643677" y="1305.2183908045977"/>
      <point x="963.3333333333333" y="1450.7356321839081"/>
      <point x="788.6206896551724" y="1450.7356321839081" type="curve" smooth="yes"/>
      <point x="615.8390804597701" y="1450.7356321839081"/>
      <point x="469.21839080459773" y="1347.6781609195402"/>
      <point x="430.85057471264366" y="1170.1609195402298" type="curve" smooth="yes"/>
      <point x="395.58620689655174" y="1000.7356321839081"/>
      <point x="461.7471264367816" y="868.1609195402299"/>
      <point x="567.1724137931034" y="738.0" type="curve" smooth="yes"/>
      <point x="948.0229885057471" y="272.0" type="line"/>
      <point x="1022.9195402298851" y="182.0"/>
      <point x="1100.183908045977" y="87.63218390804597"/>
    </contour>
    <contour>
      <point x="473.99999999999994" y="-18.735632183908045" type="curve" smooth="yes"/>
      <point x="676.8505747126437" y="-18.735632183908045"/>
      <point x="798.3218390804598" y="73.2183908045977"/>
      <point x="957.9080459770114" y="239.70114942528735" type="curve"/>
      <point x="983.0114942528735" y="239.70114942528735" type="line"/>
      <point x="978.8045977011494" y="266.64367816091954" type="line"/>
      <point x="921.2413793103449" y="321.0344827586207" type="line"/>
      <point x="759.9080459770115" y="139.86206896551724"/>
      <point x="651.2183908045978" y="68.27586206896552"/>
      <point x="479.51724137931035" y="68.27586206896552" type="curve"/>
      <point x="256.7586206896552" y="68.27586206896552"/>
      <point x="149.2183908045977" y="223.44827586206895"/>
      <point x="187.01149425287358" y="406.04597701149424" type="curve" smooth="yes"/>
      <point x="226.4367816091954" y="593.9080459770115"/>
      <point x="374.1379310344828" y="684.2298850574712"/>
      <point x="583.632183908046" y="754.0229885057472" type="curve"/>
      <point x="551.4942528735633" y="824.9425287356322" type="line"/>
      <point x="348.5977011494253" y="760.5747126436781"/>
      <point x="147.3793103448276" y="656.3678160919541"/>
      <point x="96.11494252873564" y="414.57471264367814" type="curve" smooth="yes"/>
      <point x="51.74712643678161" y="205.632183908046"/>
      <point x="181.95402298850576" y="-18.735632183908045"/>
    </contour>
    <contour>
      <point x="1026.712643678161" y="301.9310344827586" type="line"/>
      <point x="1138.9195402298851" y="430.45977011494256"/>
      <point x="1243.126436781609" y="551.7241379310345"/>
      <point x="1353.3333333333333" y="680.2528735632184" type="curve"/>
      <point x="1278.16091954023" y="729.9080459770115" type="line"/>
      <point x="1176.5287356321837" y="607.0114942528736"/>
      <point x="1078.896551724138" y="491.37931034482756"/>
      <point x="972.0" y="363.2183908045977" type="curve"/>
    </contour>
  </outline>
</glyph>
<glyph name="quotesingle" format="2">
  <advance width="377.62105263157895"/>
  <unicode hex="0027"/>
  <outline>
    <contour>
      <point x="215.57894736842107" y="913.978947368421" type="curve"/>
      <point x="291.9789473684211" y="915.978947368421" type="line"/>
      <point x="334.8421052631579" y="1108.2105263157894"/>
      <point x="386.69473684210527" y="1299.7684210526315"/>
      <point x="440.5473684210526" y="1488.1684210526316" type="curve"/>
      <point x="309.93684210526317" y="1485.4947368421053" type="line"/>
      <point x="282.7578947368421" y="1297.7684210526315"/>
      <point x="255.7473684210526" y="1107.7052631578947"/>
    </contour>
  </outline>
</glyph>
<glyph name="parenleft" format="2">
  <advance width="740.9684210526316"/>
  <unicode hex="0028"/>
  <outline>
    <contour>
      <point x="425.85263157894735" y="-229.55789473684212" type="curve"/>
      <point x="501.7052631578947" y="-191.81052631578947" type="line"/>
      <point x="319.0736842105263" y="1.0105263157894724"/>
      <point x="183.43157894736842" y="271.1578947368421"/>
      <point x="271.0947368421053" y="679.978947368421" type="curve" smooth="yes"/>
      <point x="358.7578947368421" y="1090.8"/>
      <point x="610.0631578947368" y="1333.4736842105262"/>
      <point x="864.1894736842105" y="1486.9684210526316" type="curve"/>
      <point x="782.0" y="1525.221052631579" type="line"/>
      <point x="497.1157894736842" y="1349.578947368421"/>
      <point x="263.7684210526316" y="1107.5368421052633"/>
      <point x="175.43157894736842" y="689.8526315789474" type="curve" smooth="yes"/>
      <point x="87.09473684210528" y="273.83157894736837"/>
      <point x="216.29473684210524" y="-8.421052631578945"/>
    </contour>
  </outline>
</glyph>
<glyph name="asterisk" format="2">
  <advance width="925.2631578947369"/>
  <unicode hex="002A"/>
  <outline>
    <contour>
      <point x="874.5052631578948" y="692.7578947368421" type="curve"/>
      <point x="930.1263157894737" y="751.8947368421053" type="line"/>
      <point x="820.4421052631579" y="853.0526315789474"/>
      <point x="706.9263157894736" y="953.8736842105263"/>
      <point x="597.2421052631579" y="1054.863157894737" type="curve"/>
      <point x="489.57894736842104" y="1163.7052631578947"/>
      <point x="385.91578947368424" y="1270.8842105263159"/>
      <point x="280.0842105263158" y="1377.8947368421052" type="curve"/>
      <point x="224.46315789473684" y="1318.757894736842" type="line"/>
      <point x="334.14736842105265" y="1217.7684210526315"/>
      <point x="447.66315789473686" y="1116.778947368421"/>
      <point x="557.3473684210527" y="1013.9578947368421" type="curve"/>
      <point x="665.0105263157895" y="906.9473684210526"/>
      <point x="768.6736842105263" y="799.7684210526315"/>
    </contour>
    <contour>
      <point x="167.05263157894737" y="843.7473684210527" type="line"/>
      <point x="307.22105263157897" y="898.7578947368421"/>
      <point x="445.5578947368421" y="953.9368421052632"/>
      <point x="587.5578947368421" y="1008.9473684210526" type="curve"/>
      <point x="728.7368421052631" y="1057.2631578947369"/>
      <point x="873.578947368421" y="1103.578947368421"/>
      <point x="1014.7578947368421" y="1150.2315789473682" type="curve"/>
      <point x="987.5368421052632" y="1226.9052631578948" type="line"/>
      <point x="847.3684210526316" y="1171.8947368421054"/>
      <point x="709.0315789473684" y="1116.7157894736843"/>
      <point x="568.8631578947369" y="1063.7052631578947" type="curve"/>
      <point x="425.8526315789474" y="1013.3894736842105"/>
      <point x="282.67368421052635" y="968.9052631578948"/>
      <point x="139.83157894736843" y="920.5894736842106" type="curve"/>
    </contour>
    <contour>
      <point x="443.2842105263158" y="601.8315789473685" type="curve"/>
      <point x="522.6315789473683" y="585.9578947368421" type="line"/>
      <point x="551.2842105263157" y="732.8"/>
      <point x="578.1052631578948" y="881.6421052631579"/>
      <point x="604.9263157894737" y="1032.1473684210525" type="curve"/>
      <point x="640.4421052631579" y="1176.4842105263158"/>
      <point x="675.7894736842104" y="1322.821052631579"/>
      <point x="711.3052631578946" y="1468.9894736842105" type="curve"/>
      <point x="631.9578947368421" y="1484.6947368421054" type="line"/>
      <point x="603.3052631578947" y="1337.8526315789475"/>
      <point x="576.4842105263158" y="1189.178947368421"/>
      <point x="549.6631578947369" y="1044.0" type="curve"/>
      <point x="514.1473684210526" y="894.1684210526315"/>
      <point x="478.8" y="748.0"/>
    </contour>
  </outline>
</glyph>
<glyph name="plus" format="2">
  <advance width="1165.0526315789473"/>
  <unicode hex="002B"/>
  <outline>
    <contour>
      <point x="457.7052631578947" y="126.46315789473684" type="curve"/>
      <point x="547.8315789473685" y="126.46315789473684" type="line"/>
      <point x="572.5052631578948" y="243.49473684210525"/>
      <point x="597.0105263157895" y="358.0210526315789"/>
      <point x="617.5157894736842" y="454.37894736842105" type="curve"/>
      <point x="676.5052631578948" y="729.8315789473685" type="line"/>
      <point x="697.1789473684211" y="826.8631578947369"/>
      <point x="721.6842105263158" y="941.2210526315789"/>
      <point x="746.3578947368421" y="1058.2526315789473" type="curve"/>
      <point x="656.2315789473685" y="1058.2526315789473" type="line"/>
      <point x="631.5578947368421" y="941.2210526315789"/>
      <point x="607.0526315789474" y="826.6947368421053"/>
      <point x="586.378947368421" y="729.6631578947369" type="curve"/>
      <point x="527.3894736842105" y="454.37894736842105" type="line"/>
      <point x="506.88421052631577" y="358.0210526315789"/>
      <point x="482.37894736842105" y="243.49473684210525"/>
    </contour>
    <contour>
      <point x="146.42105263157896" y="548.8842105263158" type="line"/>
      <point x="265.2842105263158" y="548.8842105263158"/>
      <point x="377.978947368421" y="548.8842105263158"/>
      <point x="474.5052631578947" y="548.8842105263158" type="curve"/>
      <point x="713.4947368421053" y="548.8842105263158" type="line"/>
      <point x="810.021052631579" y="548.8842105263158"/>
      <point x="922.7157894736843" y="548.8842105263158"/>
      <point x="1041.578947368421" y="548.8842105263158" type="curve"/>
      <point x="1059.4736842105265" y="635.8315789473684" type="line"/>
      <point x="940.6105263157895" y="635.8315789473684"/>
      <point x="827.9157894736842" y="635.8315789473684"/>
      <point x="731.3894736842105" y="635.8315789473684" type="curve"/>
      <point x="492.4" y="635.8315789473684" type="line"/>
      <point x="395.8736842105263" y="635.8315789473684"/>
      <point x="283.17894736842106" y="635.8315789473684"/>
      <point x="164.31578947368422" y="635.8315789473684" type="curve"/>
    </contour>
  </outline>
</glyph>
<glyph name="comma" format="2">
  <advance width="437.7684210526316"/>
  <unicode hex="002C"/>
  <outline>
    <contour>
      <point x="-88.7578947368421" y="-314.0" type="curve"/>
      <point x="-19.28421052631578" y="-311.8315789473684" type="line"/>
      <point x="87.9157894736842" y="-226.6736842105263"/>
      <point x="202.33684210526314" y="-66.33684210526316"/>
      <point x="233.5157894736842" y="86.4" type="curve" smooth="yes"/>
      <point x="245.03157894736842" y="143.81052631578947"/>
      <point x="229.0105263157895" y="184.37894736842105"/>
      <point x="176.25263157894736" y="194.56842105263158" type="curve"/>
      <point x="121.78947368421052" y="191.22105263157894" type="line"/>
      <point x="110.61052631578947" y="138.0"/>
      <point x="99.43157894736842" y="84.61052631578949"/>
      <point x="88.58947368421052" y="32.56842105263158" type="curve"/>
      <point x="60.084210526315786" y="-104.12631578947368"/>
      <point x="16.063157894736854" y="-203.49473684210525"/>
    </contour>
  </outline>
</glyph>
<glyph name="hyphen" format="2">
  <advance width="841.6842105263158"/>
  <unicode hex="002D"/>
  <outline>
    <contour>
      <point x="146.0842105263158" y="548.0421052631579" type="line"/>
      <point x="250.10526315789474" y="548.0421052631579"/>
      <point x="348.12631578947367" y="548.0421052631579"/>
      <point x="431.9789473684211" y="548.0421052631579" type="curve"/>
      <point x="515.8315789473685" y="548.0421052631579"/>
      <point x="613.8526315789475" y="548.0421052631579"/>
      <point x="717.8736842105263" y="548.0421052631579" type="curve"/>
      <point x="735.5999999999999" y="634.9894736842106" type="line"/>
      <point x="631.578947368421" y="634.9894736842106"/>
      <point x="533.5578947368421" y="634.9894736842106"/>
      <point x="449.70526315789476" y="634.9894736842106" type="curve"/>
      <point x="365.85263157894735" y="634.9894736842106"/>
      <point x="267.8315789473684" y="634.9894736842106"/>
      <point x="163.81052631578947" y="634.9894736842106" type="curve"/>
    </contour>
  </outline>
</glyph>
<glyph name="period" format="2">
  <advance width="441.6421052631579"/>
  <unicode hex="002E"/>
  <outline>
    <contour>
      <point x="126.08421052631579" y="-19.178947368421053" type="curve" smooth="yes"/>
      <point x="188.50526315789472" y="-19.178947368421053"/>
      <point x="224.37894736842108" y="12.863157894736844"/>
      <point x="235.72631578947372" y="72.92631578947369" type="curve" smooth="yes"/>
      <point x="247.24210526315792" y="134.0"/>
      <point x="209.03157894736842" y="185.2421052631579"/>
      <point x="142.10526315789474" y="185.2421052631579" type="curve" smooth="yes"/>
      <point x="81.34736842105264" y="185.2421052631579"/>
      <point x="45.473684210526315" y="156.86315789473684"/>
      <point x="32.294736842105266" y="96.63157894736842" type="curve" smooth="yes"/>
      <point x="18.947368421052634" y="34.06315789473684"/>
      <point x="56.65263157894737" y="-19.178947368421053"/>
    </contour>
  </outline>
</glyph>
<glyph name="slash" format="2">
  <advance width="880.3789473684211"/>
  <unicode hex="002F"/>
  <outline>
    <contour>
      <point x="-30.736842105263158" y="0.0" type="curve"/>
      <point x="72.58947368421052" y="0.0" type="line"/>
      <point x="169.24210526315787" y="148.0"/>
      <point x="250.06315789473686" y="272.1684210526316"/>
      <point x="370.2105263157894" y="456.0" type="curve"/>
      <point x="691.3263157894737" y="948.0" type="line"/>
      <point x="817.4736842105264" y="1142.0"/>
      <point x="902.2947368421053" y="1272.0"/>
      <point x="1002.778947368421" y="1426.0" type="curve"/>
      <point x="899.4526315789474" y="1426.0" type="line"/>
      <point x="798.9684210526316" y="1272.0"/>
      <point x="714.1473684210526" y="1142.0"/>
      <point x="590.1684210526316" y="952.1684210526316" type="curve"/>
      <point x="266.8842105263158" y="456.0" type="line"/>
      <point x="146.73684210526318" y="272.1684210526316"/>
      <point x="65.91578947368421" y="148.0"/>
    </contour>
  </outline>
</glyph>
<glyph name="one" format="2">
  <advance width="828.1263157894737"/>
  <unicode hex="0031"/>
  <outline>
    <contour>
      <point x="213.13684210526316" y="1024.084210526316" type="line"/>
      <point x="378.1473684210526" y="1106.5684210526315"/>
      <point x="540.9894736842106" y="1189.221052631579"/>
      <point x="705.8315789473684" y="1271.7052631578947" type="curve"/>
      <point x="727.4105263157895" y="1373.6842105263158" type="line"/>
      <point x="553.2" y="1285.6842105263158"/>
      <point x="380.98947368421057" y="1199.5157894736842"/>
      <point x="206.94736842105263" y="1111.5157894736842" type="curve"/>
    </contour>
    <contour>
      <point x="391.22105263157897" y="0.0" type="curve"/>
      <point x="484.9052631578947" y="0.0" type="line"/>
      <point x="516.7368421052631" y="148.98947368421054"/>
      <point x="542.5684210526315" y="278.14736842105265"/>
      <point x="578.5684210526315" y="440.65263157894736" type="curve"/>
      <point x="674.9052631578946" y="894.3368421052631" type="line"/>
      <point x="710.5684210526315" y="1063.3263157894737"/>
      <point x="744.5684210526315" y="1224.9894736842105"/>
      <point x="774.9052631578946" y="1369.0105263157895" type="curve"/>
      <point x="727.4105263157895" y="1373.6842105263158" type="line"/>
      <point x="672.5263157894738" y="1324.042105263158" type="line"/>
      <point x="640.8631578947369" y="1175.5578947368422"/>
      <point x="611.0315789473684" y="1034.5684210526315"/>
      <point x="579.3684210526316" y="886.0842105263158" type="curve"/>
      <point x="484.8842105263158" y="440.65263157894736" type="line"/>
      <point x="448.8842105263158" y="278.14736842105265"/>
      <point x="423.0526315789474" y="148.98947368421054"/>
    </contour>
  </outline>
</glyph>
<glyph name="two" format="2">
  <advance width="1093.0736842105264"/>
  <unicode hex="0032"/>
  <outline>
    <contour>
      <point x="-0.8631578947368362" y="0.0" type="line"/>
      <point x="873.1157894736841" y="0.0" type="line"/>
      <point x="891.0105263157894" y="87.62105263157895" type="line"/>
      <point x="730.8842105263158" y="87.62105263157895"/>
      <point x="568.9263157894737" y="87.62105263157895"/>
      <point x="408.8" y="87.62105263157895" type="curve"/>
      <point x="114.04210526315791" y="87.62105263157895" type="line"/>
      <point x="130.56842105263158" y="59.38947368421053" type="line"/>
      <point x="408.82105263157894" y="265.30526315789473" type="line"/>
      <point x="785.7263157894736" y="545.0315789473684"/>
      <point x="995.4736842105262" y="725.1578947368421"/>
      <point x="1044.8" y="963.4526315789474" type="curve" smooth="yes"/>
      <point x="1092.1473684210525" y="1194.842105263158"/>
      <point x="981.4105263157895" y="1393.6842105263158"/>
      <point x="698.3368421052631" y="1393.6842105263158" type="curve" smooth="yes"/>
      <point x="535.8105263157895" y="1393.6842105263158"/>
      <point x="371.99999999999994" y="1327.8736842105263"/>
      <point x="259.81052631578945" y="1268.5473684210526" type="curve"/>
      <point x="253.4315789473684" y="1163.0526315789475" type="line"/>
      <point x="431.22105263157897" y="1265.0315789473684"/>
      <point x="579.2210526315789" y="1303.0736842105264"/>
      <point x="688.2315789473685" y="1303.0736842105264" type="curve"/>
      <point x="908.6105263157895" y="1303.0736842105264"/>
      <point x="989.578947368421" y="1163.157894736842"/>
      <point x="949.6" y="975.0947368421054" type="curve" smooth="yes"/>
      <point x="903.1157894736842" y="751.0105263157894"/>
      <point x="685.1578947368422" y="573.5578947368421"/>
      <point x="323.2631578947369" y="303.9789473684211" type="curve"/>
      <point x="219.9578947368421" y="228.16842105263157"/>
      <point x="118.82105263157897" y="150.69473684210527"/>
      <point x="15.515789473684215" y="74.8842105263158" type="curve"/>
    </contour>
  </outline>
</glyph>
<glyph name="three" format="2">
  <advance width="1127.8850574712644"/>
  <unicode hex="0033"/>
  <outline>
    <contour>
      <point x="479.10344827586204" y="-19.103448275862068" type="curve" smooth="yes"/>
      <point x="781.5632183908046" y="-19.103448275862068"/>
      <point x="936.2988505747127" y="104.5287356321839"/>
      <point x="981.0344827586207" y="315.8390804597701" type="curve" smooth="yes"/>
      <point x="1027.034482758621" y="540.3678160919541"/>
      <point x="867.0804597701149" y="681.7931034482758"/>
      <point x="746.7126436781609" y="712.528735632184" type="curve"/>
      <point x="749.080459770115" y="726.367816091954" type="line"/>
      <point x="909.2413793103448" y="756.0"/>
      <point x="1039.7701149425288" y="843.0574712643678"/>
      <point x="1075.7701149425288" y="1011.4252873563219" type="curve" smooth="yes"/>
      <point x="1123.4022988505749" y="1228.16091954023"/>
      <point x="963.5632183908046" y="1393.83908045977"/>
      <point x="715.6321839080459" y="1393.83908045977" type="curve" smooth="yes"/>
      <point x="558.6896551724138" y="1393.83908045977"/>
      <point x="400.1609195402299" y="1328.0459770114942"/>
      <point x="291.5862068965517" y="1268.781609195402" type="curve"/>
      <point x="285.5402298850575" y="1164.6206896551726" type="line"/>
      <point x="457.86206896551727" y="1266.0459770114944"/>
      <point x="600.5977011494252" y="1302.9885057471265"/>
      <point x="706.0689655172413" y="1302.9885057471265" type="curve"/>
      <point x="900.8735632183908" y="1302.9885057471265"/>
      <point x="1015.8850574712643" y="1193.6091954022988"/>
      <point x="978.0919540229885" y="1014.6436781609195" type="curve" smooth="yes"/>
      <point x="943.9310344827586" y="854.2068965517241"/>
      <point x="801.4942528735631" y="764.8275862068965"/>
      <point x="512.4137931034483" y="764.8275862068965" type="curve"/>
      <point x="477.8390804597701" y="764.8275862068965"/>
      <point x="440.0" y="764.8275862068965"/>
      <point x="405.42528735632186" y="764.8275862068965" type="curve"/>
      <point x="386.2758620689655" y="679.816091954023" type="line"/>
      <point x="421.58620689655174" y="679.816091954023"/>
      <point x="461.4252873563218" y="679.816091954023"/>
      <point x="496.735632183908" y="679.816091954023" type="curve"/>
      <point x="787.448275862069" y="679.816091954023"/>
      <point x="930.6206896551723" y="538.1149425287357"/>
      <point x="887.1954022988506" y="333.7241379310345" type="curve" smooth="yes"/>
      <point x="851.4022988505747" y="164.75862068965517"/>
      <point x="732.7586206896551" y="71.37931034482759"/>
      <point x="479.4712643678161" y="71.37931034482759" type="curve"/>
      <point x="313.14942528735634" y="71.37931034482759"/>
      <point x="178.57471264367817" y="125.74712643678161"/>
      <point x="49.310344827586206" y="211.3793103448276" type="curve"/>
      <point x="17.586206896551726" y="122.32183908045977" type="line"/>
      <point x="118.85057471264366" y="47.793103448275865"/>
      <point x="286.367816091954" y="-19.103448275862068"/>
    </contour>
  </outline>
</glyph>
<glyph name="five" format="2">
  <advance width="1140.0459770114942"/>
  <unicode hex="0035"/>
  <outline>
    <contour>
      <point x="469.1034482758621" y="-19.103448275862068" type="curve" smooth="yes"/>
      <point x="764.2988505747127" y="-19.103448275862068"/>
      <point x="945.5632183908046" y="115.10344827586208"/>
      <point x="1003.9310344827587" y="389.67816091954023" type="curve" smooth="yes"/>
      <point x="1065.9310344827586" y="685.6781609195402"/>
      <point x="876.5057471264367" y="871.5172413793103"/>
      <point x="636.3448275862069" y="871.5172413793103" type="curve" smooth="yes"/>
      <point x="522.5977011494252" y="871.5172413793103"/>
      <point x="444.64367816091954" y="843.3563218390805"/>
      <point x="355.42528735632186" y="797.9310344827586" type="curve"/>
      <point x="341.95402298850576" y="797.9310344827586" type="line"/>
      <point x="362.85057471264366" y="898.0459770114943" type="line"/>
      <point x="391.7471264367816" y="1037.057471264368"/>
      <point x="422.2758620689655" y="1179.7011494252874"/>
      <point x="451.17241379310343" y="1318.712643678161" type="curve"/>
      <point x="407.9310344827586" y="1281.5172413793102" type="line"/>
      <point x="614.8275862068965" y="1281.5172413793102" type="line"/>
      <point x="775.7241379310345" y="1281.5172413793102"/>
      <point x="940.9885057471265" y="1281.5172413793102"/>
      <point x="1104.2528735632184" y="1281.5172413793102" type="curve"/>
      <point x="1121.7701149425288" y="1369.103448275862" type="line"/>
      <point x="370.11494252873564" y="1369.103448275862" type="line"/>
      <point x="339.7471264367816" y="1224.528735632184"/>
      <point x="305.01149425287355" y="1059.2183908045977"/>
      <point x="268.2758620689655" y="885.9080459770115" type="curve"/>
      <point x="225.54022988505747" y="680.2298850574713" type="line"/>
      <point x="269.1494252873563" y="675.4942528735633" type="line"/>
      <point x="407.7931034482759" y="757.9770114942529"/>
      <point x="493.95402298850576" y="782.8735632183908"/>
      <point x="610.4367816091955" y="782.8735632183908" type="curve"/>
      <point x="808.3448275862069" y="782.8735632183908"/>
      <point x="961.6781609195402" y="655.8620689655172"/>
      <point x="909.3563218390805" y="400.78160919540227" type="curve" smooth="yes"/>
      <point x="862.2988505747126" y="169.12643678160921"/>
      <point x="712.7586206896551" y="71.37931034482759"/>
      <point x="467.47126436781605" y="71.37931034482759" type="curve"/>
      <point x="310.4137931034483" y="71.37931034482759"/>
      <point x="176.20689655172416" y="125.74712643678161"/>
      <point x="49.310344827586206" y="211.3793103448276" type="curve"/>
      <point x="17.586206896551726" y="122.32183908045977" type="line"/>
      <point x="118.48275862068965" y="47.793103448275865"/>
      <point x="286.0" y="-19.103448275862068"/>
    </contour>
  </outline>
</glyph>
<glyph name="six" format="2">
  <advance width="1203.1494252873563"/>
  <unicode hex="0036"/>
  <outline>
    <contour>
      <point x="575.3103448275862" y="-19.103448275862068" type="curve" smooth="yes"/>
      <point x="860.6666666666667" y="-19.103448275862068"/>
      <point x="1026.2988505747126" y="166.57471264367817"/>
      <point x="1074.2988505747126" y="399.1034482758621" type="curve" smooth="yes"/>
      <point x="1127.4022988505747" y="652.7816091954023"/>
      <point x="984.2988505747127" y="875.5172413793103"/>
      <point x="703.6091954022988" y="875.5172413793103" type="curve" smooth="yes"/>
      <point x="552.9655172413794" y="875.5172413793103"/>
      <point x="424.64367816091954" y="818.0919540229885"/>
      <point x="280.89655172413796" y="703.7701149425287" type="curve"/>
      <point x="255.42528735632183" y="705.7701149425287" type="line"/>
      <point x="234.39080459770113" y="666.735632183908"/>
      <point x="226.39080459770116" y="631.471264367816"/>
      <point x="230.1149425287356" y="582.8505747126437" type="curve"/>
      <point x="410.50574712643675" y="741.448275862069"/>
      <point x="552.0459770114942" y="787.2413793103449"/>
      <point x="685.4252873563219" y="787.2413793103449" type="curve"/>
      <point x="936.5057471264369" y="787.2413793103449"/>
      <point x="1022.0919540229885" y="599.7471264367816"/>
      <point x="982.2988505747127" y="412.41379310344826" type="curve" smooth="yes"/>
      <point x="942.5057471264367" y="225.08045977011494"/>
      <point x="816.2298850574713" y="71.37931034482759"/>
      <point x="574.7816091954022" y="71.37931034482759" type="curve"/>
      <point x="291.9080459770115" y="71.37931034482759"/>
      <point x="179.05747126436782" y="308.1379310344828"/>
      <point x="258.85057471264366" y="683.103448275862" type="curve" smooth="yes"/>
      <point x="351.17241379310343" y="1116.5517241379312"/>
      <point x="518.344827586207" y="1302.9885057471265"/>
      <point x="805.6781609195402" y="1302.9885057471265" type="curve"/>
      <point x="931.1034482758621" y="1302.9885057471265"/>
      <point x="1040.5747126436781" y="1266.0919540229886"/>
      <point x="1142.942528735632" y="1198.0919540229884" type="curve"/>
      <point x="1174.6666666666667" y="1287.6781609195402" type="line"/>
      <point x="1091.5632183908046" y="1344.5747126436781"/>
      <point x="956.2528735632184" y="1393.83908045977"/>
      <point x="805.6781609195402" y="1393.83908045977" type="curve" smooth="yes"/>
      <point x="471.14942528735634" y="1393.83908045977"/>
      <point x="264.6896551724138" y="1167.7701149425286"/>
      <point x="165.2183908045977" y="697.1494252873564" type="curve" smooth="yes"/>
      <point x="74.48275862068967" y="266.36781609195407"/>
      <point x="237.5862068965517" y="-19.103448275862068"/>
    </contour>
  </outline>
</glyph>
<glyph name="seven" format="2">
  <advance width="1032.4421052631578"/>
  <unicode hex="0037"/>
  <outline>
    <contour>
      <point x="132.73684210526315" y="0.0" type="curve"/>
      <point x="244.4631578947368" y="0.0" type="line"/>
      <point x="358.10526315789474" y="169.47368421052633"/>
      <point x="471.57894736842104" y="340.61052631578946"/>
      <point x="583.221052631579" y="506.2526315789474" type="curve"/>
      <point x="777.0105263157894" y="793.8736842105263" type="line"/>
      <point x="894.1473684210526" y="968.6736842105263"/>
      <point x="1001.957894736842" y="1130.3157894736842"/>
      <point x="1115.4315789473685" y="1299.621052631579" type="curve"/>
      <point x="1129.8105263157895" y="1369.0105263157895" type="line"/>
      <point x="234.0" y="1369.0105263157895" type="line"/>
      <point x="216.2736842105263" y="1281.3894736842105" type="line"/>
      <point x="391.0736842105263" y="1281.3894736842105"/>
      <point x="565.7052631578947" y="1281.3894736842105"/>
      <point x="738.5052631578948" y="1281.3894736842105" type="curve"/>
      <point x="1031.1157894736843" y="1281.3894736842105" type="line"/>
      <point x="1012.378947368421" y="1306.9473684210527" type="line"/>
      <point x="940.0631578947368" y="1200.8"/>
      <point x="869.7473684210527" y="1096.8210526315788"/>
      <point x="798.9263157894736" y="990.1684210526316" type="curve"/>
      <point x="509.1578947368421" y="559.4105263157894" type="line"/>
      <point x="385.5157894736842" y="375.93684210526317"/>
      <point x="258.37894736842105" y="187.30526315789473"/>
    </contour>
  </outline>
</glyph>
<glyph name="less" format="2">
  <advance width="1125.0526315789473"/>
  <unicode hex="003C"/>
  <outline>
    <contour>
      <point x="920.0" y="166.73684210526315" type="curve"/>
      <point x="939.7263157894736" y="253.68421052631578" type="line"/>
      <point x="800.6105263157895" y="322.14736842105265"/>
      <point x="651.8315789473684" y="394.4421052631579"/>
      <point x="509.0526315789474" y="464.7368421052631" type="curve"/>
      <point x="279.4736842105263" y="576.8421052631579" type="line"/>
      <point x="283.64210526315793" y="590.5263157894736" type="line"/>
      <point x="558.6947368421053" y="702.2947368421053" type="line"/>
      <point x="732.1263157894737" y="772.5894736842106"/>
      <point x="911.2210526315789" y="846.5473684210526"/>
      <point x="1080.6526315789472" y="914.8421052631579" type="curve"/>
      <point x="1100.8842105263157" y="1014.3157894736842" type="line"/>
      <point x="972.1894736842105" y="962.3157894736842"/>
      <point x="847.3263157894737" y="912.1473684210526"/>
      <point x="738.9684210526316" y="868.1473684210526" type="curve"/>
      <point x="522.4842105263158" y="780.1684210526316" type="line"/>
      <point x="417.7894736842105" y="738.0"/>
      <point x="292.9263157894737" y="687.8315789473684"/>
      <point x="164.23157894736843" y="635.8315789473684" type="curve"/>
      <point x="146.33684210526314" y="545.2210526315789" type="line"/>
      <point x="251.2" y="493.22105263157897"/>
      <point x="355.89473684210526" y="443.05263157894734"/>
      <point x="440.7578947368421" y="400.88421052631577" type="curve"/>
      <point x="621.9157894736842" y="312.90526315789475" type="line"/>
      <point x="710.2736842105263" y="268.90526315789475"/>
      <point x="815.1368421052631" y="218.73684210526315"/>
    </contour>
  </outline>
</glyph>
<glyph name="equal" format="2">
  <advance width="1125.0526315789473"/>
  <unicode hex="003D"/>
  <outline>
    <contour>
      <point x="105.09473684210525" y="334.6736842105263" type="line"/>
      <point x="223.9578947368421" y="334.6736842105263"/>
      <point x="336.6526315789474" y="334.6736842105263"/>
      <point x="433.17894736842106" y="334.6736842105263" type="curve"/>
      <point x="628.8" y="334.6736842105263" type="line"/>
      <point x="725.3263157894736" y="334.6736842105263"/>
      <point x="838.0210526315789" y="334.6736842105263"/>
      <point x="956.8842105263158" y="334.6736842105263" type="curve"/>
      <point x="974.7789473684211" y="421.62105263157895" type="line"/>
      <point x="855.9157894736842" y="421.62105263157895"/>
      <point x="743.2210526315789" y="421.62105263157895"/>
      <point x="646.6947368421053" y="421.62105263157895" type="curve"/>
      <point x="451.0736842105263" y="421.62105263157895" type="line"/>
      <point x="354.5473684210527" y="421.62105263157895"/>
      <point x="241.85263157894735" y="421.62105263157895"/>
      <point x="122.98947368421051" y="421.62105263157895" type="curve"/>
    </contour>
    <contour>
      <point x="193.1157894736842" y="763.0947368421052" type="line"/>
      <point x="311.978947368421" y="763.0947368421052"/>
      <point x="424.67368421052635" y="763.0947368421052"/>
      <point x="521.2" y="763.0947368421052" type="curve"/>
      <point x="716.8210526315789" y="763.0947368421052" type="line"/>
      <point x="813.3473684210526" y="763.0947368421052"/>
      <point x="926.0421052631579" y="763.0947368421052"/>
      <point x="1044.9052631578948" y="763.0947368421052" type="curve"/>
      <point x="1062.8" y="850.0421052631579" type="line"/>
      <point x="943.9368421052632" y="850.0421052631579"/>
      <point x="831.2421052631579" y="850.0421052631579"/>
      <point x="734.7157894736843" y="850.0421052631579" type="curve"/>
      <point x="539.0947368421054" y="850.0421052631579" type="line"/>
      <point x="442.5684210526316" y="850.0421052631579"/>
      <point x="329.8736842105263" y="850.0421052631579"/>
      <point x="211.01052631578946" y="850.0421052631579" type="curve"/>
    </contour>
  </outline>
</glyph>
<glyph name="greater" format="2">
  <advance width="1125.0526315789473"/>
  <unicode hex="003E"/>
  <outline>
    <contour>
      <point x="64.92631578947368" y="166.73684210526315" type="line"/>
      <point x="193.62105263157895" y="218.73684210526315"/>
      <point x="318.4842105263158" y="268.90526315789475"/>
      <point x="426.8421052631579" y="312.90526315789475" type="curve"/>
      <point x="643.3263157894737" y="400.88421052631577" type="line"/>
      <point x="748.021052631579" y="443.05263157894734"/>
      <point x="872.8842105263158" y="493.22105263157897"/>
      <point x="1001.578947368421" y="545.2210526315789" type="curve"/>
      <point x="1019.4736842105262" y="635.8315789473684" type="line"/>
      <point x="914.6105263157895" y="687.8315789473684"/>
      <point x="809.9157894736842" y="738.0"/>
      <point x="725.0526315789474" y="780.1684210526316" type="curve"/>
      <point x="543.8947368421052" y="868.1473684210526" type="line"/>
      <point x="455.53684210526313" y="912.1473684210526"/>
      <point x="350.6736842105263" y="962.3157894736842"/>
      <point x="245.81052631578947" y="1014.3157894736842" type="curve"/>
      <point x="226.0842105263158" y="927.3684210526316" type="line"/>
      <point x="365.2" y="858.9052631578948"/>
      <point x="513.978947368421" y="786.6105263157895"/>
      <point x="656.7578947368421" y="716.3157894736842" type="curve"/>
      <point x="886.3368421052631" y="604.2105263157895" type="line"/>
      <point x="882.1684210526315" y="590.5263157894738" type="line"/>
      <point x="607.1157894736842" y="478.7578947368421" type="line"/>
      <point x="433.6842105263158" y="408.46315789473687"/>
      <point x="254.58947368421053" y="334.5052631578948"/>
      <point x="85.15789473684211" y="266.2105263157895" type="curve"/>
    </contour>
  </outline>
</glyph>
<glyph name="at" format="2">
  <advance width="1754.5473684210526"/>
  <unicode hex="0040"/>
  <outline>
    <contour>
      <point x="947.3684210526317" y="-249.89473684210526" type="curve" smooth="yes"/>
      <point x="1137.221052631579" y="-249.89473684210526"/>
      <point x="1352.5263157894738" y="-204.06315789473683"/>
      <point x="1511.7052631578947" y="-96.73684210526315" type="curve"/>
      <point x="1511.7052631578947" y="-6.063157894736843" type="line"/>
      <point x="1311.1789473684212" y="-140.73684210526315"/>
      <point x="1108.021052631579" y="-172.90526315789475"/>
      <point x="947.3684210526317" y="-172.90526315789475" type="curve"/>
      <point x="379.59999999999997" y="-172.90526315789475"/>
      <point x="125.78947368421053" y="238.0"/>
      <point x="216.46315789473684" y="666.8421052631579" type="curve" smooth="yes"/>
      <point x="302.4421052631579" y="1072.0631578947368"/>
      <point x="587.8526315789475" y="1252.6105263157895"/>
      <point x="937.3684210526317" y="1252.6105263157895" type="curve"/>
      <point x="1381.4736842105265" y="1252.6105263157895"/>
      <point x="1634.9473684210527" y="911.0526315789474"/>
      <point x="1553.2842105263157" y="502.5684210526316" type="curve" smooth="yes"/>
      <point x="1518.1263157894737" y="326.61052631578946"/>
      <point x="1406.1684210526314" y="200.4842105263158"/>
      <point x="1281.0526315789473" y="200.4842105263158" type="curve"/>
      <point x="1174.7578947368422" y="200.4842105263158"/>
      <point x="1127.4526315789474" y="262.82105263157894"/>
      <point x="1154.2947368421053" y="398.0210526315789" type="curve"/>
      <point x="1195.9368421052632" y="598.4" type="line"/>
      <point x="1221.6000000000001" y="720.5473684210526"/>
      <point x="1247.6000000000001" y="845.7052631578947"/>
      <point x="1271.2631578947369" y="958.021052631579" type="curve"/>
      <point x="1190.7157894736843" y="951.1789473684211" type="line"/>
      <point x="1167.7052631578947" y="849.3473684210526" type="line"/>
      <point x="1156.3578947368421" y="849.3473684210526" type="line"/>
      <point x="1096.7157894736843" y="913.3684210526316"/>
      <point x="1002.9052631578948" y="969.8526315789474"/>
      <point x="883.7684210526317" y="969.8526315789474" type="curve" smooth="yes"/>
      <point x="696.1052631578948" y="969.8526315789474"/>
      <point x="550.2947368421053" y="828.9894736842106"/>
      <point x="503.13684210526316" y="602.3578947368421" type="curve" smooth="yes"/>
      <point x="452.9684210526316" y="364.1684210526316"/>
      <point x="546.9894736842106" y="144.98947368421054"/>
      <point x="786.6315789473684" y="144.98947368421054" type="curve" smooth="yes"/>
      <point x="873.9578947368421" y="144.98947368421054"/>
      <point x="987.2631578947369" y="187.97894736842105"/>
      <point x="1057.7473684210527" y="277.3263157894737" type="curve"/>
      <point x="1068.9263157894736" y="277.3263157894737" type="line"/>
      <point x="1084.1263157894737" y="205.6421052631579"/>
      <point x="1142.5263157894738" y="125.32631578947368"/>
      <point x="1293.8736842105263" y="125.32631578947368" type="curve" smooth="yes"/>
      <point x="1405.4105263157894" y="125.32631578947368"/>
      <point x="1581.1157894736843" y="232.14736842105262"/>
      <point x="1630.1263157894737" y="487.2" type="curve" smooth="yes"/>
      <point x="1718.9684210526316" y="945.7473684210527"/>
      <point x="1421.0947368421052" y="1329.6"/>
      <point x="939.5368421052632" y="1329.6" type="curve" smooth="yes"/>
      <point x="558.1894736842106" y="1329.6"/>
      <point x="229.4736842105263" y="1126.5894736842106"/>
      <point x="138.29473684210527" y="679.0526315789474" type="curve" smooth="yes"/>
      <point x="41.93684210526315" y="209.9578947368421"/>
      <point x="332.14736842105265" y="-249.89473684210526"/>
    </contour>
    <contour>
      <point x="803.221052631579" y="225.3684210526316" type="curve"/>
      <point x="616.021052631579" y="225.3684210526316"/>
      <point x="545.0736842105264" y="387.11578947368423"/>
      <point x="588.2105263157895" y="591.4736842105264" type="curve" smooth="yes"/>
      <point x="624.1894736842106" y="760.2105263157895"/>
      <point x="724.4631578947369" y="887.1368421052632"/>
      <point x="895.3473684210527" y="887.1368421052632" type="curve"/>
      <point x="1006.9263157894737" y="887.1368421052632"/>
      <point x="1083.7052631578947" y="838.5052631578948"/>
      <point x="1144.821052631579" y="767.7263157894737" type="curve"/>
      <point x="1066.5263157894738" y="395.57894736842104" type="line"/>
      <point x="997.7473684210527" y="276.33684210526314"/>
      <point x="898.821052631579" y="225.3684210526316"/>
    </contour>
  </outline>
</glyph>
<glyph name="A" format="2">
  <advance width="1350.3157894736842"/>
  <unicode hex="0041"/>
  <anchor x="570.7368421052631" y="0.0" name="bottom"/>
  <anchor x="1177.8526315789472" y="0.0" name="ogonek"/>
  <anchor x="870.7368421052631" y="1426.0" name="top"/>
  <outline>
    <contour>
      <point x="-36.21052631578947" y="0.0" type="curve"/>
      <point x="75.34736842105262" y="0.0" type="line"/>
      <point x="178.79999999999998" y="177.78947368421052"/>
      <point x="288.2526315789474" y="364.2526315789474"/>
      <point x="389.8736842105263" y="538.5473684210526" type="curve"/>
      <point x="850.1684210526316" y="1325.8736842105263" type="line"/>
      <point x="863.8526315789474" y="1325.8736842105263" type="line"/>
      <point x="990.5684210526316" y="536.378947368421" type="line"/>
      <point x="1018.0421052631579" y="366.0842105263158"/>
      <point x="1049.3473684210526" y="172.46315789473684"/>
      <point x="1076.821052631579" y="0.0" type="curve"/>
      <point x="1177.8526315789472" y="0.0" type="line"/>
      <point x="1153.0315789473684" y="150.0"/>
      <point x="1124.378947368421" y="326.0"/>
      <point x="1097.7263157894736" y="485.1578947368421" type="curve"/>
      <point x="1017.4315789473684" y="974.0" type="line"/>
      <point x="988.7789473684211" y="1148.0"/>
      <point x="965.957894736842" y="1285.157894736842"/>
      <point x="942.9684210526316" y="1426.0" type="curve"/>
      <point x="802.3368421052633" y="1426.0" type="line"/>
      <point x="715.5157894736842" y="1278.0"/>
      <point x="636.5263157894738" y="1143.8315789473684"/>
      <point x="537.8736842105263" y="975.8315789473684" type="curve"/>
      <point x="249.9157894736842" y="486.0" type="line"/>
      <point x="159.09473684210528" y="332.0"/>
      <point x="54.61052631578947" y="154.16842105263157"/>
    </contour>
    <contour>
      <point x="267.9578947368421" y="391.34736842105264" type="line"/>
      <point x="1045.8315789473684" y="391.34736842105264" type="line"/>
      <point x="1059.178947368421" y="476.61052631578946" type="line"/>
      <point x="289.89473684210526" y="476.61052631578946" type="line"/>
    </contour>
  </outline>
</glyph>
<glyph name="B" format="2">
  <advance width="1273.9080459770114"/>
  <unicode hex="0042"/>
  <outline>
    <contour>
      <point x="558.2298850574712" y="0.0" type="curve"/>
      <point x="975.9540229885058" y="0.0"/>
      <point x="1111.9540229885058" y="139.26436781609195"/>
      <point x="1154.6896551724137" y="344.9425287356322" type="curve" smooth="yes"/>
      <point x="1200.3218390804598" y="565.103448275862"/>
      <point x="1074.528735632184" y="678.5747126436781"/>
      <point x="952.8505747126436" y="722.5747126436783" type="curve"/>
      <point x="957.2183908045977" y="736.4137931034484" type="line"/>
      <point x="1107.9540229885056" y="782.5747126436783"/>
      <point x="1217.4252873563219" y="869.264367816092"/>
      <point x="1253.7931034482758" y="1044.0" type="curve" smooth="yes"/>
      <point x="1301.0574712643677" y="1264.6896551724137"/>
      <point x="1172.5747126436781" y="1426.0"/>
      <point x="871.080459770115" y="1426.0" type="curve"/>
      <point x="690.8735632183908" y="1426.0"/>
      <point x="551.8850574712644" y="1426.0"/>
      <point x="406.7816091954023" y="1426.0" type="curve"/>
      <point x="372.7816091954023" y="1264.3678160919542"/>
      <point x="343.14942528735634" y="1125.103448275862"/>
      <point x="306.7816091954023" y="950.0" type="curve"/>
      <point x="206.41379310344828" y="474.5287356321839" type="line"/>
      <point x="170.04597701149427" y="299.42528735632186"/>
      <point x="140.41379310344828" y="160.89655172413794"/>
      <point x="106.41379310344828" y="0.0" type="curve"/>
      <point x="178.50574712643677" y="0.0"/>
      <point x="364.71264367816093" y="0.0"/>
    </contour>
    <contour>
      <point x="225.60919540229884" y="89.2183908045977" type="line"/>
      <point x="252.13793103448273" y="217.86206896551727"/>
      <point x="277.0344827586207" y="338.3448275862069"/>
      <point x="307.9310344827586" y="484.82758620689657" type="curve"/>
      <point x="403.88505747126436" y="939.3333333333334" type="line"/>
      <point x="434.78160919540227" y="1086.183908045977"/>
      <point x="459.67816091954023" y="1206.2988505747126"/>
      <point x="486.57471264367814" y="1336.7816091954023" type="curve"/>
      <point x="860.6666666666666" y="1336.7816091954023" type="line" smooth="yes"/>
      <point x="1087.5862068965516" y="1336.7816091954023"/>
      <point x="1190.5977011494253" y="1232.1379310344828"/>
      <point x="1151.5402298850574" y="1045.7471264367816" type="curve" smooth="yes"/>
      <point x="1117.7471264367816" y="887.3103448275863"/>
      <point x="991.264367816092" y="767.7701149425287"/>
      <point x="729.2873563218391" y="767.7701149425287" type="curve" smooth="yes"/>
      <point x="347.1034482758621" y="767.7701149425287" type="line"/>
      <point x="327.95402298850576" y="681.6551724137931" type="line"/>
      <point x="722.1379310344828" y="681.6551724137931" type="line" smooth="yes"/>
      <point x="966.5287356321838" y="681.6551724137931"/>
      <point x="1097.3333333333335" y="570.2758620689656"/>
      <point x="1054.2758620689656" y="360.0919540229885" type="curve" smooth="yes"/>
      <point x="1016.4827586206897" y="174.22988505747125"/>
      <point x="882.5747126436781" y="89.2183908045977"/>
      <point x="559.7471264367815" y="89.2183908045977" type="curve" smooth="yes"/>
    </contour>
  </outline>
</glyph>
<glyph name="C" format="2">
  <advance width="1372.242105263158"/>
  <unicode hex="0043"/>
  <anchor x="697.4000000000001" y="0.0" name="bottom"/>
  <anchor x="979.0842105263158" y="1426.0" name="top"/>
  <outline>
    <contour>
      <point x="763.7578947368421" y="-19.178947368421053" type="curve" smooth="yes"/>
      <point x="906.4105263157895" y="-19.178947368421053"/>
      <point x="1058.4315789473685" y="11.978947368421052"/>
      <point x="1166.6" y="79.78947368421053" type="curve"/>
      <point x="1176.6631578947367" y="191.9578947368421" type="line"/>
      <point x="1054.4736842105262" y="107.62105263157895"/>
      <point x="910.978947368421" y="74.61052631578947"/>
      <point x="770.3473684210526" y="74.61052631578947" type="curve"/>
      <point x="354.85263157894735" y="74.61052631578947"/>
      <point x="197.10526315789474" y="420.8"/>
      <point x="273.56842105263155" y="782.2947368421052" type="curve" smooth="yes"/>
      <point x="356.36842105263156" y="1171.8105263157895"/>
      <point x="619.7578947368421" y="1355.7052631578947"/>
      <point x="971.4000000000001" y="1355.7052631578947" type="curve"/>
      <point x="1136.2" y="1355.7052631578947"/>
      <point x="1272.6842105263158" y="1320.021052631579"/>
      <point x="1410.5157894736842" y="1222.8631578947368" type="curve"/>
      <point x="1441.442105263158" y="1318.5263157894738" type="line"/>
      <point x="1327.421052631579" y="1399.5157894736842"/>
      <point x="1154.3894736842105" y="1450.6736842105263"/>
      <point x="975.5684210526315" y="1450.6736842105263" type="curve" smooth="yes"/>
      <point x="563.9894736842106" y="1450.6736842105263"/>
      <point x="263.021052631579" y="1224.6736842105263"/>
      <point x="173.18947368421053" y="798.6736842105263" type="curve" smooth="yes"/>
      <point x="84.51578947368421" y="379.13684210526316"/>
      <point x="289.8842105263158" y="-19.178947368421053"/>
    </contour>
  </outline>
</glyph>
<glyph name="D" format="2">
  <advance width="1476.4842105263158"/>
  <unicode hex="0044"/>
  <anchor x="596.6736842105263" y="0.0" name="bottom"/>
  <anchor x="785.9894736842105" y="714.0" name="center"/>
  <anchor x="896.6736842105263" y="1426.0" name="top"/>
  <outline>
    <contour>
      <point x="104.88421052631578" y="0.0" type="curve"/>
      <point x="274.37894736842105" y="0.0"/>
      <point x="398.2736842105263" y="0.0"/>
      <point x="576.8210526315789" y="0.0" type="curve"/>
      <point x="1103.5368421052633" y="0.0"/>
      <point x="1316.378947368421" y="258.1684210526316"/>
      <point x="1402.042105263158" y="665.6631578947369" type="curve" smooth="yes"/>
      <point x="1486.2105263157894" y="1069.5157894736842"/>
      <point x="1279.5368421052633" y="1426.0"/>
      <point x="806.5684210526316" y="1426.0" type="curve"/>
      <point x="676.4842105263158" y="1426.0"/>
      <point x="563.8736842105263" y="1426.0"/>
      <point x="407.05263157894734" y="1426.0" type="curve"/>
      <point x="373.05263157894734" y="1268.1684210526316"/>
      <point x="343.2210526315789" y="1125.178947368421"/>
      <point x="305.05263157894734" y="946.1684210526315" type="curve"/>
      <point x="204.7157894736842" y="474.4842105263158" type="line"/>
      <point x="168.37894736842105" y="299.4736842105263"/>
      <point x="138.7157894736842" y="160.82105263157894"/>
    </contour>
    <contour>
      <point x="224.82105263157894" y="89.28421052631579" type="line"/>
      <point x="251.4736842105263" y="218.7157894736842"/>
      <point x="276.29473684210524" y="338.9894736842105"/>
      <point x="307.1157894736842" y="485.59999999999997" type="curve"/>
      <point x="402.9052631578947" y="939.5578947368422" type="line"/>
      <point x="433.89473684210526" y="1086.6736842105263"/>
      <point x="460.5473684210526" y="1206.7789473684209"/>
      <point x="487.36842105263156" y="1336.7157894736843" type="curve"/>
      <point x="782.1473684210526" y="1336.7157894736843" type="line"/>
      <point x="1215.8947368421052" y="1336.7157894736843"/>
      <point x="1375.7894736842104" y="1029.1999999999998"/>
      <point x="1300.9894736842105" y="681.8526315789474" type="curve" smooth="yes"/>
      <point x="1224.5263157894735" y="316.86315789473684"/>
      <point x="1050.2736842105264" y="89.28421052631579"/>
      <point x="582.5263157894736" y="89.28421052631579" type="curve"/>
    </contour>
  </outline>
</glyph>
<glyph name="E" format="2">
  <advance width="1183.471264367816"/>
  <unicode hex="0045"/>
  <anchor x="533.0574712643678" y="0.0" name="bottom"/>
  <anchor x="957.1494252873563" y="0.0" name="ogonek"/>
  <anchor x="833.0574712643678" y="1426.0" name="top"/>
  <anchor x="269.264367816092" y="1426.0" name="topleft"/>
  <outline>
    <contour>
      <point x="104.96551724137933" y="0.0" type="curve"/>
      <point x="203.90804597701148" y="0.0" type="line"/>
      <point x="207.37931034482756" y="13.885057471264368" type="line"/>
      <point x="241.01149425287355" y="174.7816091954023"/>
      <point x="271.01149425287355" y="314.04597701149424"/>
      <point x="307.01149425287355" y="488.41379310344826" type="curve"/>
      <point x="402.4367816091954" y="937.7471264367816" type="line"/>
      <point x="439.17241379310343" y="1112.8505747126437"/>
      <point x="468.8045977011494" y="1252.4827586206898"/>
      <point x="502.8045977011494" y="1413.7471264367816" type="curve"/>
      <point x="505.90804597701145" y="1426.0" type="line"/>
      <point x="406.9655172413793" y="1426.0" type="line"/>
      <point x="372.9655172413793" y="1268.0"/>
      <point x="343.33333333333337" y="1125.103448275862"/>
      <point x="304.9655172413793" y="946.0" type="curve"/>
      <point x="204.5977011494253" y="474.5287356321839" type="line"/>
      <point x="168.22988505747128" y="299.42528735632186"/>
      <point x="138.5977011494253" y="160.52873563218392"/>
    </contour>
    <contour>
      <point x="188.59770114942532" y="0.0" type="line"/>
      <point x="957.1494252873563" y="0.0" type="line"/>
      <point x="977.4022988505747" y="90.6896551724138" type="line"/>
      <point x="826.3448275862069" y="90.6896551724138"/>
      <point x="665.6551724137931" y="90.6896551724138"/>
      <point x="483.33333333333337" y="90.6896551724138" type="curve"/>
      <point x="208.8505747126437" y="90.6896551724138" type="line"/>
    </contour>
    <contour>
      <point x="326.5057471264368" y="679.6551724137931" type="line"/>
      <point x="610.8275862068965" y="679.6551724137931" type="line"/>
      <point x="796.2528735632184" y="679.6551724137931"/>
      <point x="920.7816091954023" y="679.6551724137931"/>
      <point x="1056.9425287356323" y="679.6551724137931" type="curve"/>
      <point x="1076.4597701149426" y="768.8735632183908" type="line"/>
      <point x="948.2988505747126" y="768.8735632183908"/>
      <point x="821.7701149425287" y="768.8735632183908"/>
      <point x="632.3448275862069" y="768.8735632183908" type="curve"/>
      <point x="346.02298850574715" y="768.8735632183908" type="line"/>
    </contour>
    <contour>
      <point x="466.13793103448273" y="1335.3103448275863" type="line"/>
      <point x="733.3563218390805" y="1335.3103448275863" type="line"/>
      <point x="949.3103448275863" y="1335.3103448275863"/>
      <point x="1098.367816091954" y="1335.3103448275863"/>
      <point x="1237.7931034482758" y="1335.3103448275863" type="curve"/>
      <point x="1258.0459770114942" y="1426.0" type="line"/>
      <point x="486.02298850574715" y="1426.0" type="line"/>
    </contour>
  </outline>
</glyph>
<glyph name="F" format="2">
  <advance width="1143.6842105263158"/>
  <unicode hex="0046"/>
  <outline>
    <contour>
      <point x="104.88421052631578" y="0.0" type="curve"/>
      <point x="203.91578947368424" y="0.0" type="line"/>
      <point x="237.74736842105264" y="160.82105263157894"/>
      <point x="267.41052631578947" y="299.4736842105263"/>
      <point x="303.74736842105267" y="474.4842105263158" type="curve"/>
      <point x="402.5684210526316" y="937.6" type="line"/>
      <point x="438.90526315789475" y="1112.9473684210527"/>
      <point x="468.90526315789475" y="1252.4421052631578"/>
      <point x="502.7368421052632" y="1413.7684210526315" type="curve"/>
      <point x="505.91578947368424" y="1426.0" type="line"/>
      <point x="407.05263157894734" y="1426.0" type="line"/>
      <point x="373.05263157894734" y="1268.1684210526316"/>
      <point x="343.2210526315789" y="1125.178947368421"/>
      <point x="305.05263157894734" y="946.1684210526315" type="curve"/>
      <point x="204.7157894736842" y="474.4842105263158" type="line"/>
      <point x="168.37894736842105" y="299.4736842105263"/>
      <point x="138.7157894736842" y="160.82105263157894"/>
    </contour>
    <contour>
      <point x="324.9473684210526" y="676.8210526315789" type="line"/>
      <point x="590.9263157894737" y="676.8210526315789" type="line"/>
      <point x="776.4" y="676.8210526315789"/>
      <point x="900.8842105263158" y="676.8210526315789"/>
      <point x="1037.0315789473684" y="676.8210526315789" type="curve"/>
      <point x="1056.5894736842106" y="766.1052631578947" type="line"/>
      <point x="928.2736842105263" y="766.1052631578947"/>
      <point x="801.957894736842" y="766.1052631578947"/>
      <point x="612.3157894736842" y="766.1052631578947" type="curve"/>
      <point x="344.5052631578947" y="766.1052631578947" type="line"/>
    </contour>
    <contour>
      <point x="465.2842105263158" y="1335.2" type="line"/>
      <point x="714.0842105263158" y="1335.2" type="line"/>
      <point x="930.0421052631579" y="1335.2"/>
      <point x="1079.3473684210526" y="1335.2"/>
      <point x="1218.821052631579" y="1335.2" type="curve"/>
      <point x="1238.7157894736843" y="1426.0" type="line"/>
      <point x="485.17894736842106" y="1426.0" type="line"/>
    </contour>
  </outline>
</glyph>
<glyph name="G" format="2">
  <advance width="1471.0631578947368"/>
  <unicode hex="0047"/>
  <anchor x="697.4000000000001" y="0.0" name="bottom"/>
  <anchor x="997.4000000000001" y="1426.0" name="top"/>
  <outline>
    <contour>
      <point x="797.9263157894737" y="-19.010526315789473" type="curve" smooth="yes"/>
      <point x="965.5894736842105" y="-19.010526315789473"/>
      <point x="1124.621052631579" y="21.978947368421053"/>
      <point x="1229.7789473684209" y="68.96842105263157" type="curve"/>
      <point x="1230.4736842105262" y="176.2736842105263" type="line"/>
      <point x="1090.957894736842" y="100.27368421052631"/>
      <point x="945.8210526315789" y="73.76842105263158"/>
      <point x="803.1263157894738" y="73.76842105263158" type="curve"/>
      <point x="340.5368421052632" y="73.76842105263158"/>
      <point x="196.43157894736842" y="419.7894736842105"/>
      <point x="273.2315789473684" y="782.6315789473684" type="curve" smooth="yes"/>
      <point x="358.0315789473684" y="1179.9789473684211"/>
      <point x="615.4421052631579" y="1355.7052631578947"/>
      <point x="967.7368421052632" y="1355.7052631578947" type="curve"/>
      <point x="1128.8315789473684" y="1355.7052631578947"/>
      <point x="1286.8315789473684" y="1318.8842105263159"/>
      <point x="1432.8736842105263" y="1213.7052631578947" type="curve"/>
      <point x="1463.9684210526316" y="1309.536842105263" type="line"/>
      <point x="1344.1157894736841" y="1395.1789473684212"/>
      <point x="1159.9263157894736" y="1450.6736842105263"/>
      <point x="964.8947368421053" y="1450.6736842105263" type="curve" smooth="yes"/>
      <point x="550.8526315789474" y="1450.6736842105263"/>
      <point x="263.3578947368421" y="1222.3578947368421"/>
      <point x="173.18947368421053" y="798.6736842105263" type="curve" smooth="yes"/>
      <point x="83.02105263157894" y="373.3263157894737"/>
      <point x="282.0315789473684" y="-19.010526315789473"/>
    </contour>
    <contour>
      <point x="1132.4315789473685" y="68.12631578947368" type="curve"/>
      <point x="1229.7789473684209" y="68.96842105263157" type="line"/>
      <point x="1257.9473684210525" y="202.14736842105265"/>
      <point x="1280.1157894736841" y="299.4947368421053"/>
      <point x="1300.6210526315788" y="401.17894736842106" type="curve"/>
      <point x="1326.7894736842104" y="522.6947368421053"/>
      <point x="1345.1263157894737" y="607.8736842105263"/>
      <point x="1363.4631578947367" y="703.3894736842105" type="curve"/>
      <point x="1266.2842105263157" y="703.3894736842105" type="line"/>
      <point x="1247.9473684210527" y="607.8736842105263"/>
      <point x="1229.6105263157895" y="522.6947368421053"/>
      <point x="1203.4421052631578" y="401.17894736842106" type="curve"/>
      <point x="1182.9368421052632" y="299.4947368421053"/>
      <point x="1160.7684210526315" y="202.14736842105265"/>
    </contour>
  </outline>
</glyph>
<glyph name="H" format="2">
  <advance width="1498.3368421052633"/>
  <unicode hex="0048"/>
  <anchor x="646.0" y="0.0" name="bottom"/>
  <anchor x="796.0" y="714.0" name="center"/>
  <anchor x="946.0" y="1426.0" name="top"/>
  <anchor x="268.1684210526316" y="1426.0" name="topleft"/>
  <outline>
    <contour>
      <point x="1084.7368421052631" y="0.0" type="curve"/>
      <point x="1184.9473684210525" y="0.0" type="line"/>
      <point x="1218.7789473684209" y="160.82105263157894"/>
      <point x="1248.4421052631578" y="299.4736842105263"/>
      <point x="1284.7789473684209" y="474.4842105263158" type="curve"/>
      <point x="1385.1157894736841" y="946.1684210526315" type="line"/>
      <point x="1423.2842105263157" y="1125.178947368421"/>
      <point x="1453.1157894736841" y="1268.1684210526316"/>
      <point x="1487.1157894736841" y="1426.0" type="curve"/>
      <point x="1386.9052631578948" y="1426.0" type="line"/>
      <point x="1352.9052631578948" y="1268.1684210526316"/>
      <point x="1323.0736842105264" y="1125.178947368421"/>
      <point x="1284.9052631578948" y="946.1684210526315" type="curve"/>
      <point x="1184.5684210526317" y="474.4842105263158" type="line"/>
      <point x="1148.2315789473685" y="299.4736842105263"/>
      <point x="1118.5684210526317" y="160.82105263157894"/>
    </contour>
    <contour>
      <point x="104.88421052631578" y="0.0" type="curve"/>
      <point x="205.09473684210525" y="0.0" type="line"/>
      <point x="238.92631578947368" y="160.82105263157894"/>
      <point x="268.58947368421053" y="299.4736842105263"/>
      <point x="304.9263157894737" y="474.4842105263158" type="curve"/>
      <point x="405.2631578947368" y="946.1684210526315" type="line"/>
      <point x="443.4315789473684" y="1125.178947368421"/>
      <point x="473.2631578947368" y="1268.1684210526316"/>
      <point x="507.2631578947368" y="1426.0" type="curve"/>
      <point x="407.05263157894734" y="1426.0" type="line"/>
      <point x="373.05263157894734" y="1268.1684210526316"/>
      <point x="343.2210526315789" y="1125.178947368421"/>
      <point x="305.05263157894734" y="946.1684210526315" type="curve"/>
      <point x="204.7157894736842" y="474.4842105263158" type="line"/>
      <point x="168.37894736842105" y="299.4736842105263"/>
      <point x="138.7157894736842" y="160.82105263157894"/>
    </contour>
    <contour>
      <point x="299.3263157894737" y="678.6736842105263" type="line"/>
      <point x="1282.2736842105262" y="678.6736842105263" type="line"/>
      <point x="1302.336842105263" y="769.4736842105264" type="line"/>
      <point x="319.38947368421054" y="769.4736842105264" type="line"/>
    </contour>
  </outline>
</glyph>
<glyph name="I" format="2">
  <advance width="521.0105263157894"/>
  <unicode hex="0049"/>
  <anchor x="155.57894736842104" y="0.0" name="bottom"/>
  <anchor x="206.61052631578946" y="0.0" name="ogonek"/>
  <anchor x="455.57894736842104" y="1426.0" name="top"/>
  <anchor x="267.9789473684211" y="1426.0" name="topleft"/>
  <outline>
    <contour>
      <point x="105.72631578947367" y="0.0" type="curve"/>
      <point x="206.61052631578946" y="0.0" type="line"/>
      <point x="240.44210526315786" y="160.82105263157894"/>
      <point x="270.1052631578947" y="299.4736842105263"/>
      <point x="306.4421052631579" y="474.4842105263158" type="curve"/>
      <point x="406.77894736842103" y="946.1684210526315" type="line"/>
      <point x="444.9473684210526" y="1125.178947368421"/>
      <point x="474.77894736842103" y="1268.1684210526316"/>
      <point x="508.77894736842103" y="1426.0" type="curve"/>
      <point x="407.89473684210526" y="1426.0" type="line"/>
      <point x="373.89473684210526" y="1268.1684210526316"/>
      <point x="344.06315789473683" y="1125.178947368421"/>
      <point x="305.89473684210526" y="946.1684210526315" type="curve"/>
      <point x="205.5578947368421" y="474.4842105263158" type="line"/>
      <point x="169.22105263157894" y="299.4736842105263"/>
      <point x="139.5578947368421" y="160.82105263157894"/>
    </contour>
  </outline>
</glyph>
<glyph name="J" format="2">
  <advance width="551.6421052631579"/>
  <unicode hex="004A"/>
  <anchor x="185.0526315789474" y="0.0" name="bottom"/>
  <anchor x="485.0526315789474" y="1426.0" name="top"/>
  <outline>
    <contour>
      <point x="-136.06315789473683" y="-318.65263157894736" type="curve"/>
      <point x="-9.915789473684207" y="-318.65263157894736" type="line"/>
      <point x="101.43157894736842" y="-228.31578947368422"/>
      <point x="214.25263157894736" y="-104.8"/>
      <point x="260.42105263157896" y="108.54736842105262" type="curve" smooth="yes"/>
      <point x="291.09473684210525" y="251.9157894736842"/>
      <point x="320.2736842105263" y="394.8"/>
      <point x="354.9473684210526" y="558.1684210526316" type="curve"/>
      <point x="437.57894736842104" y="946.1684210526315" type="line"/>
      <point x="475.7473684210526" y="1125.178947368421"/>
      <point x="505.57894736842104" y="1268.1684210526316"/>
      <point x="539.578947368421" y="1426.0" type="curve"/>
      <point x="439.3684210526316" y="1426.0" type="line"/>
      <point x="405.3684210526316" y="1268.1684210526316"/>
      <point x="375.5368421052632" y="1125.178947368421"/>
      <point x="337.3684210526316" y="946.1684210526315" type="curve"/>
      <point x="241.9157894736842" y="497.7263157894737" type="line"/>
      <point x="162.54736842105262" y="123.38947368421053" type="line"/>
      <point x="119.22105263157894" y="-75.57894736842105"/>
      <point x="11.915789473684205" y="-194.29473684210527"/>
    </contour>
  </outline>
</glyph>
<glyph name="K" format="2">
  <advance width="1311.4736842105262"/>
  <unicode hex="004B"/>
  <anchor x="566.4" y="0.0" name="bottom"/>
  <anchor x="866.4" y="1426.0" name="top"/>
  <outline>
    <contour>
      <point x="1008.9473684210525" y="0.0" type="curve"/>
      <point x="1136.3578947368421" y="0.0" type="line"/>
      <point x="1033.4105263157896" y="119.01052631578948"/>
      <point x="872.1473684210526" y="308.0421052631579"/>
      <point x="749.7052631578948" y="449.89473684210526" type="curve"/>
      <point x="485.15789473684214" y="758.4421052631579" type="line"/>
      <point x="488.4842105263158" y="707.2842105263157" type="line"/>
      <point x="835.0526315789474" y="983.4736842105262" type="line"/>
      <point x="1018.1684210526315" y="1126.8210526315788"/>
      <point x="1202.4421052631578" y="1271.663157894737"/>
      <point x="1398.378947368421" y="1426.0" type="curve"/>
      <point x="1256.294736842105" y="1426.0" type="line"/>
      <point x="1057.0736842105262" y="1269.0315789473684"/>
      <point x="918.4842105263158" y="1160.8842105263157"/>
      <point x="765.2421052631579" y="1039.9157894736843" type="curve"/>
      <point x="435.93684210526317" y="780.1473684210526" type="line"/>
      <point x="352.4421052631579" y="780.1473684210526" type="line"/>
      <point x="333.05263157894734" y="691.5368421052632" type="line"/>
      <point x="415.38947368421054" y="691.5368421052632" type="line"/>
      <point x="678.5263157894736" y="385.2631578947368" type="line"/>
      <point x="781.2842105263157" y="266.94736842105266"/>
      <point x="885.7052631578947" y="145.13684210526316"/>
    </contour>
    <contour>
      <point x="104.88421052631578" y="0.0" type="curve"/>
      <point x="204.7578947368421" y="0.0" type="line"/>
      <point x="238.5894736842105" y="160.82105263157894"/>
      <point x="268.25263157894733" y="299.4736842105263"/>
      <point x="304.58947368421053" y="474.4842105263158" type="curve"/>
      <point x="404.9263157894737" y="946.1684210526315" type="line"/>
      <point x="443.09473684210525" y="1125.178947368421"/>
      <point x="472.9263157894737" y="1268.1684210526316"/>
      <point x="506.9263157894737" y="1426.0" type="curve"/>
      <point x="407.05263157894734" y="1426.0" type="line"/>
      <point x="373.05263157894734" y="1268.1684210526316"/>
      <point x="343.2210526315789" y="1125.178947368421"/>
      <point x="305.05263157894734" y="946.1684210526315" type="curve"/>
      <point x="204.7157894736842" y="474.4842105263158" type="line"/>
      <point x="168.37894736842105" y="299.4736842105263"/>
      <point x="138.7157894736842" y="160.82105263157894"/>
    </contour>
  </outline>
</glyph>
<glyph name="L" format="2">
  <advance width="1133.3473684210526"/>
  <unicode hex="004C"/>
  <anchor x="530.2947368421052" y="0.0" name="bottom"/>
  <anchor x="877.2421052631579" y="714.5052631578948" name="center"/>
  <anchor x="572.4631578947368" y="1426.0" name="top"/>
  <anchor x="649.9368421052632" y="989.3473684210526" name="topright"/>
  <outline>
    <contour>
      <point x="104.88421052631578" y="0.0" type="curve"/>
      <point x="206.92631578947368" y="0.0" type="line"/>
      <point x="210.27368421052628" y="14.063157894736843" type="line"/>
      <point x="243.93684210526314" y="174.8842105263158"/>
      <point x="273.76842105263154" y="313.87368421052633"/>
      <point x="309.9368421052631" y="488.5473684210526" type="curve"/>
      <point x="405.2631578947368" y="946.1684210526315" type="line"/>
      <point x="443.4315789473684" y="1125.178947368421"/>
      <point x="473.2631578947368" y="1268.1684210526316"/>
      <point x="507.2631578947368" y="1426.0" type="curve"/>
      <point x="407.05263157894734" y="1426.0" type="line"/>
      <point x="373.05263157894734" y="1268.1684210526316"/>
      <point x="343.2210526315789" y="1125.178947368421"/>
      <point x="305.05263157894734" y="946.1684210526315" type="curve"/>
      <point x="204.7157894736842" y="474.4842105263158" type="line"/>
      <point x="168.37894736842105" y="299.4736842105263"/>
      <point x="138.7157894736842" y="160.82105263157894"/>
    </contour>
    <contour>
      <point x="190.54736842105262" y="0.0" type="line"/>
      <point x="957.3684210526316" y="0.0" type="line"/>
      <point x="977.7684210526315" y="92.48421052631579" type="line"/>
      <point x="813.4736842105264" y="92.48421052631579"/>
      <point x="674.5052631578948" y="92.48421052631579"/>
      <point x="433.8947368421052" y="92.48421052631579" type="curve"/>
      <point x="210.9473684210526" y="92.48421052631579" type="line"/>
    </contour>
  </outline>
</glyph>
<glyph name="N" format="2">
  <advance width="1512.1473684210525"/>
  <unicode hex="004E"/>
  <anchor x="652.9894736842105" y="0.0" name="bottom"/>
  <anchor x="952.9894736842105" y="1426.0" name="top"/>
  <outline>
    <contour>
      <point x="104.88421052631578" y="0.0" type="curve"/>
      <point x="202.06315789473683" y="0.0" type="line"/>
      <point x="235.89473684210523" y="160.82105263157894"/>
      <point x="265.55789473684206" y="299.4736842105263"/>
      <point x="301.89473684210526" y="474.4842105263158" type="curve"/>
      <point x="468.2736842105263" y="1265.242105263158" type="line"/>
      <point x="478.2947368421053" y="1265.242105263158" type="line"/>
      <point x="724.9894736842106" y="766.3157894736842" type="line"/>
      <point x="872.9052631578948" y="466.2947368421053"/>
      <point x="992.5052631578947" y="225.2421052631579"/>
      <point x="1103.2842105263157" y="0.0" type="curve"/>
      <point x="1198.5894736842104" y="0.0" type="line"/>
      <point x="1232.421052631579" y="160.82105263157894"/>
      <point x="1262.0842105263157" y="299.4736842105263"/>
      <point x="1298.421052631579" y="474.4842105263158" type="curve"/>
      <point x="1398.757894736842" y="946.1684210526315" type="line"/>
      <point x="1436.9263157894736" y="1125.178947368421"/>
      <point x="1466.757894736842" y="1268.1684210526316"/>
      <point x="1500.757894736842" y="1426.0" type="curve"/>
      <point x="1403.578947368421" y="1426.0" type="line"/>
      <point x="1369.578947368421" y="1268.1684210526316"/>
      <point x="1339.7473684210527" y="1125.178947368421"/>
      <point x="1301.578947368421" y="946.1684210526315" type="curve"/>
      <point x="1135.5368421052633" y="168.0842105263158" type="line"/>
      <point x="1125.3473684210528" y="168.0842105263158" type="line"/>
      <point x="880.9894736842105" y="663.1789473684211" type="line"/>
      <point x="761.3894736842105" y="906.2315789473685"/>
      <point x="636.2947368421053" y="1158.7789473684209"/>
      <point x="505.2" y="1426.0" type="curve"/>
      <point x="407.05263157894734" y="1426.0" type="line"/>
      <point x="373.05263157894734" y="1268.1684210526316"/>
      <point x="343.2210526315789" y="1125.178947368421"/>
      <point x="305.05263157894734" y="946.1684210526315" type="curve"/>
      <point x="204.7157894736842" y="474.4842105263158" type="line"/>
      <point x="168.37894736842105" y="299.4736842105263"/>
      <point x="138.7157894736842" y="160.82105263157894"/>
    </contour>
  </outline>
</glyph>
<glyph name="P" format="2">
  <advance width="1230.6666666666667"/>
  <unicode hex="0050"/>
  <outline>
    <contour>
      <point x="670.5057471264369" y="605.448275862069" type="curve"/>
      <point x="1074.9885057471265" y="605.448275862069"/>
      <point x="1190.1379310344828" y="748.1839080459771"/>
      <point x="1243.2413793103449" y="997.7011494252873" type="curve" smooth="yes"/>
      <point x="1297.816091954023" y="1255.471264367816"/>
      <point x="1160.1379310344828" y="1426.0"/>
      <point x="846.6206896551724" y="1426.0" type="curve"/>
      <point x="645.264367816092" y="1426.0"/>
      <point x="510.0689655172414" y="1426.0"/>
      <point x="406.9655172413793" y="1426.0" type="curve"/>
      <point x="462.39080459770116" y="1336.7816091954023" type="line"/>
      <point x="830.5287356321838" y="1336.7816091954023" type="line" smooth="yes"/>
      <point x="992.0689655172414" y="1336.7816091954023"/>
      <point x="1201.1494252873563" y="1286.0459770114942"/>
      <point x="1141.1954022988505" y="1008.0689655172415" type="curve" smooth="yes"/>
      <point x="1090.5057471264367" y="761.7241379310344"/>
      <point x="968.5977011494253" y="693.0344827586207"/>
      <point x="672.4597701149424" y="693.0344827586207" type="curve" smooth="yes"/>
      <point x="336.4367816091954" y="693.0344827586207" type="line"/>
      <point x="316.91954022988506" y="605.448275862069" type="line"/>
      <point x="396.55172413793105" y="605.448275862069"/>
      <point x="568.8735632183908" y="605.448275862069"/>
    </contour>
    <contour>
      <point x="104.96551724137933" y="0.0" type="curve"/>
      <point x="203.9080459770115" y="0.0" type="line"/>
      <point x="237.9080459770115" y="160.89655172413794"/>
      <point x="267.5402298850575" y="299.42528735632186"/>
      <point x="303.9080459770115" y="474.5287356321839" type="curve"/>
      <point x="402.8045977011495" y="937.7471264367816" type="line"/>
      <point x="439.1724137931035" y="1112.8505747126437"/>
      <point x="468.8045977011495" y="1252.4827586206898"/>
      <point x="502.8045977011495" y="1413.7471264367816" type="curve"/>
      <point x="406.9655172413793" y="1426.0" type="line"/>
      <point x="372.9655172413793" y="1268.0"/>
      <point x="343.33333333333337" y="1125.103448275862"/>
      <point x="304.9655172413793" y="946.0" type="curve"/>
      <point x="204.5977011494253" y="474.5287356321839" type="line"/>
      <point x="168.22988505747128" y="299.42528735632186"/>
      <point x="138.96551724137933" y="160.89655172413794"/>
    </contour>
  </outline>
</glyph>
<glyph name="R" format="2">
  <advance width="1316.2988505747126"/>
  <unicode hex="0052"/>
  <anchor x="558.9425287356322" y="0.0" name="bottom"/>
  <anchor x="826.2988505747127" y="1426.0" name="top"/>
  <outline>
    <contour>
      <point x="1024.4597701149426" y="0.0" type="curve"/>
      <point x="1141.448275862069" y="0.0" type="line"/>
      <point x="1068.7586206896551" y="110.0"/>
      <point x="959.5402298850574" y="275.1034482758621"/>
      <point x="873.2183908045977" y="403.8390804597701" type="curve"/>
      <point x="686.9425287356322" y="684.5747126436781" type="line"/>
      <point x="663.448275862069" y="635.7011494252874" type="line"/>
      <point x="1057.5632183908046" y="632.0689655172414"/>
      <point x="1177.448275862069" y="774.0689655172413"/>
      <point x="1227.816091954023" y="1012.2758620689656" type="curve" smooth="yes"/>
      <point x="1279.655172413793" y="1253.83908045977"/>
      <point x="1140.5057471264367" y="1426.0"/>
      <point x="826.9885057471264" y="1426.0" type="curve"/>
      <point x="631.5172413793103" y="1426.0"/>
      <point x="512.2758620689656" y="1426.0"/>
      <point x="406.9655172413793" y="1426.0" type="curve"/>
      <point x="452.4597701149425" y="1336.7816091954023" type="line"/>
      <point x="812.0" y="1336.7816091954023" type="line" smooth="yes"/>
      <point x="973.5402298850574" y="1336.7816091954023"/>
      <point x="1180.6206896551723" y="1285.8850574712644"/>
      <point x="1124.2988505747126" y="1020.8045977011493" type="curve" smooth="yes"/>
      <point x="1072.8735632183907" y="777.6781609195402"/>
      <point x="947.8620689655172" y="710.0919540229885"/>
      <point x="653.1954022988506" y="710.0919540229885" type="curve" smooth="yes"/>
      <point x="333.49425287356325" y="710.0919540229885" type="line"/>
      <point x="313.9770114942529" y="622.5057471264367" type="line"/>
      <point x="646.183908045977" y="622.5057471264367" type="line"/>
      <point x="588.0" y="666.5747126436781" type="line"/>
      <point x="791.0114942528736" y="353.37931034482756" type="line"/>
      <point x="865.8620689655172" y="239.58620689655174"/>
      <point x="941.9770114942529" y="124.16091954022988"/>
    </contour>
    <contour>
      <point x="104.96551724137933" y="0.0" type="curve"/>
      <point x="203.90804597701148" y="0.0" type="line"/>
      <point x="237.90804597701148" y="160.89655172413794"/>
      <point x="267.54022988505744" y="299.42528735632186"/>
      <point x="303.90804597701145" y="474.5287356321839" type="curve"/>
      <point x="402.8045977011494" y="937.7471264367816" type="line"/>
      <point x="439.17241379310343" y="1112.8505747126437"/>
      <point x="468.8045977011494" y="1252.4827586206895"/>
      <point x="502.8045977011494" y="1413.7471264367816" type="curve"/>
      <point x="406.9655172413793" y="1426.0" type="line"/>
      <point x="372.9655172413793" y="1268.0"/>
      <point x="343.33333333333337" y="1125.103448275862"/>
      <point x="304.9655172413793" y="946.0" type="curve"/>
      <point x="204.5977011494253" y="474.5287356321839" type="line"/>
      <point x="168.22988505747128" y="299.42528735632186"/>
      <point x="138.96551724137933" y="160.89655172413794"/>
    </contour>
  </outline>
</glyph>
<glyph name="S" format="2">
  <advance width="1156.9885057471265"/>
  <unicode hex="0053"/>
  <anchor x="484.2068965517241" y="0.0" name="bottom"/>
  <anchor x="784.2068965517241" y="1426.0" name="top"/>
  <outline>
    <contour>
      <point x="539.4712643678162" y="-19.103448275862068" type="curve" smooth="yes"/>
      <point x="835.5632183908045" y="-19.103448275862068"/>
      <point x="987.0344827586208" y="107.42528735632183"/>
      <point x="1032.505747126437" y="322.7816091954023" type="curve" smooth="yes"/>
      <point x="1071.2413793103449" y="508.45977011494256"/>
      <point x="990.8735632183908" y="638.2988505747127"/>
      <point x="674.7126436781609" y="772.8275862068965" type="curve" smooth="yes"/>
      <point x="407.58620689655174" y="886.9425287356322"/>
      <point x="320.0" y="963.1034482758621"/>
      <point x="355.7931034482759" y="1130.4367816091954" type="curve" smooth="yes"/>
      <point x="394.8505747126437" y="1313.7241379310344"/>
      <point x="574.344827586207" y="1356.7816091954023"/>
      <point x="739.5172413793103" y="1356.7816091954023" type="curve"/>
      <point x="853.8390804597701" y="1356.7816091954023"/>
      <point x="1018.4137931034483" y="1310.4137931034481"/>
      <point x="1117.5172413793105" y="1229.3103448275863" type="curve"/>
      <point x="1151.6091954022988" y="1322.3678160919542" type="line"/>
      <point x="1084.0919540229884" y="1376.206896551724"/>
      <point x="899.6781609195402" y="1450.7356321839081"/>
      <point x="733.6321839080459" y="1450.7356321839081" type="curve" smooth="yes"/>
      <point x="462.2758620689655" y="1450.7356321839081"/>
      <point x="297.01149425287355" y="1340.528735632184"/>
      <point x="255.90804597701148" y="1144.6436781609195" type="curve" smooth="yes"/>
      <point x="209.54022988505744" y="928.0689655172414"/>
      <point x="324.2758620689655" y="817.448275862069"/>
      <point x="610.3908045977012" y="696.3908045977012" type="curve" smooth="yes"/>
      <point x="843.1954022988506" y="598.4367816091954"/>
      <point x="968.7816091954023" y="510.85057471264366"/>
      <point x="932.6206896551724" y="335.88505747126436" type="curve" smooth="yes"/>
      <point x="885.9310344827587" y="117.54022988505747"/>
      <point x="706.6436781609195" y="74.48275862068965"/>
      <point x="538.0" y="74.48275862068965" type="curve"/>
      <point x="343.14942528735634" y="74.48275862068965"/>
      <point x="208.20689655172413" y="135.7471264367816"/>
      <point x="94.73563218390804" y="218.48275862068965" type="curve"/>
      <point x="63.01149425287357" y="126.32183908045977" type="line"/>
      <point x="148.11494252873564" y="58.689655172413794"/>
      <point x="315.8390804597701" y="-19.103448275862068"/>
    </contour>
  </outline>
</glyph>
<glyph name="T" format="2">
  <advance width="1276.3578947368421"/>
  <unicode hex="0054"/>
  <anchor x="537.0105263157894" y="0.0" name="bottom"/>
  <anchor x="684.8210526315789" y="704.2315789473685" name="center"/>
  <anchor x="837.0105263157894" y="1426.0" name="top"/>
  <outline>
    <contour>
      <point x="486.65263157894736" y="0.0" type="curve"/>
      <point x="586.5263157894736" y="0.0" type="line"/>
      <point x="620.3578947368421" y="160.82105263157894"/>
      <point x="650.021052631579" y="299.4736842105263"/>
      <point x="686.3578947368421" y="474.4842105263158" type="curve"/>
      <point x="785.3473684210526" y="937.6" type="line"/>
      <point x="821.6842105263158" y="1112.9473684210527"/>
      <point x="851.6842105263158" y="1252.4421052631578"/>
      <point x="885.5157894736842" y="1413.7684210526315" type="curve"/>
      <point x="888.6947368421053" y="1426.0" type="line"/>
      <point x="788.8210526315789" y="1426.0" type="line"/>
      <point x="785.6421052631579" y="1413.7684210526315" type="line"/>
      <point x="751.8105263157895" y="1252.4421052631578"/>
      <point x="721.8105263157895" y="1112.9473684210527"/>
      <point x="685.4736842105262" y="937.6" type="curve"/>
      <point x="586.4842105263158" y="474.4842105263158" type="line"/>
      <point x="550.1473684210526" y="299.4736842105263"/>
      <point x="520.4842105263158" y="160.82105263157894"/>
    </contour>
    <contour>
      <point x="245.0736842105263" y="1333.5157894736842" type="line"/>
      <point x="361.22105263157897" y="1333.5157894736842"/>
      <point x="483.3684210526316" y="1333.5157894736842"/>
      <point x="650.8421052631579" y="1333.5157894736842" type="curve"/>
      <point x="782.8210526315789" y="1333.5157894736842" type="line"/>
      <point x="803.0526315789473" y="1426.0" type="line"/>
      <point x="265.30526315789473" y="1426.0" type="line"/>
    </contour>
    <contour>
      <point x="848.7368421052632" y="1333.5157894736842" type="line"/>
      <point x="980.7157894736843" y="1333.5157894736842" type="line"/>
      <point x="1148.1894736842105" y="1333.5157894736842"/>
      <point x="1270.1684210526316" y="1333.5157894736842"/>
      <point x="1386.3157894736844" y="1333.5157894736842" type="curve"/>
      <point x="1406.7157894736843" y="1426.0" type="line"/>
      <point x="868.9684210526316" y="1426.0" type="line"/>
    </contour>
  </outline>
</glyph>
<glyph name="U" format="2">
  <advance width="1462.9894736842105"/>
  <unicode hex="0055"/>
  <anchor x="629.3263157894736" y="0.0" name="bottom"/>
  <anchor x="841.578947368421" y="0.0" name="ogonek"/>
  <anchor x="929.3263157894736" y="1426.0" name="top"/>
  <anchor x="1578.378947368421" y="1426.0" name="topright"/>
  <outline>
    <contour>
      <point x="663.6631578947367" y="-19.178947368421053" type="curve" smooth="yes"/>
      <point x="1049.915789473684" y="-19.178947368421053"/>
      <point x="1210.2526315789473" y="197.1578947368421"/>
      <point x="1269.2631578947369" y="475.0315789473684" type="curve" smooth="yes"/>
      <point x="1288.9263157894736" y="569.1789473684211"/>
      <point x="1330.9263157894736" y="758.1894736842105"/>
      <point x="1370.421052631579" y="946.1684210526315" type="curve"/>
      <point x="1408.5894736842106" y="1125.178947368421"/>
      <point x="1438.421052631579" y="1268.336842105263"/>
      <point x="1472.2526315789473" y="1426.0" type="curve"/>
      <point x="1372.378947368421" y="1426.0" type="line"/>
      <point x="1338.5473684210526" y="1268.336842105263"/>
      <point x="1308.5473684210526" y="1125.0105263157893"/>
      <point x="1270.378947368421" y="946.1684210526315" type="curve"/>
      <point x="1174.0631578947368" y="500.90526315789475" type="line" smooth="yes"/>
      <point x="1120.421052631579" y="249.5157894736842"/>
      <point x="998.1473684210525" y="74.61052631578947"/>
      <point x="668.6947368421053" y="74.61052631578947" type="curve"/>
      <point x="336.25263157894733" y="74.61052631578947"/>
      <point x="243.64210526315787" y="296.9894736842105"/>
      <point x="303.1157894736842" y="578.5263157894738" type="curve" smooth="yes"/>
      <point x="382.4421052631579" y="946.1684210526315" type="line"/>
      <point x="420.61052631578946" y="1125.178947368421"/>
      <point x="450.4421052631579" y="1268.1684210526316"/>
      <point x="484.4421052631579" y="1426.0" type="curve"/>
      <point x="384.56842105263155" y="1426.0" type="line"/>
      <point x="350.56842105263155" y="1268.1684210526316"/>
      <point x="320.7368421052631" y="1125.178947368421"/>
      <point x="282.56842105263155" y="946.1684210526315" type="curve"/>
      <point x="250.90526315789472" y="796.3578947368421"/>
      <point x="219.2421052631579" y="657.1999999999999"/>
      <point x="201.57894736842104" y="574.7157894736843" type="curve" smooth="yes"/>
      <point x="134.4" y="259.3263157894737"/>
      <point x="270.0842105263158" y="-19.178947368421053"/>
    </contour>
  </outline>
</glyph>
<glyph name="V" format="2">
  <advance width="1347.4526315789474"/>
  <unicode hex="0056"/>
  <anchor x="571.5578947368421" y="0.0" name="bottom"/>
  <anchor x="871.5578947368421" y="1426.0" name="top"/>
  <outline>
    <contour>
      <point x="505.13684210526316" y="0.0" type="curve"/>
      <point x="648.1263157894737" y="0.0" type="line"/>
      <point x="734.4421052631579" y="145.49473684210525"/>
      <point x="834.5894736842105" y="320.98947368421057"/>
      <point x="913.578947368421" y="453.8315789473684" type="curve"/>
      <point x="1175.2" y="900.0" type="line"/>
      <point x="1265.6842105263158" y="1054.1684210526316"/>
      <point x="1383.494736842105" y="1255.6631578947367"/>
      <point x="1483.8105263157895" y="1426.0" type="curve"/>
      <point x="1368.7157894736843" y="1426.0" type="line"/>
      <point x="1235.621052631579" y="1198.2315789473685"/>
      <point x="1093.0315789473684" y="952.8000000000001"/>
      <point x="965.7684210526315" y="734.5263157894736" type="curve"/>
      <point x="600.6315789473684" y="107.53684210526316" type="line"/>
      <point x="586.9473684210526" y="107.53684210526316" type="line"/>
      <point x="480.40000000000003" y="730.6947368421053" type="line"/>
      <point x="442.6105263157895" y="950.6315789473684"/>
      <point x="399.32631578947365" y="1206.0631578947368"/>
      <point x="361.36842105263156" y="1426.0" type="curve"/>
      <point x="257.4736842105263" y="1426.0" type="line"/>
      <point x="287.4526315789474" y="1254.3368421052633"/>
      <point x="323.0947368421053" y="1048.505263157895"/>
      <point x="349.41052631578947" y="898.1684210526316" type="curve"/>
      <point x="426.3578947368421" y="453.8315789473684" type="line"/>
      <point x="450.67368421052635" y="315.8315789473684"/>
      <point x="480.821052631579" y="142.0"/>
    </contour>
  </outline>
</glyph>
<glyph name="W" format="2">
  <advance width="2010.9684210526316"/>
  <unicode hex="0057"/>
  <anchor x="899.3894736842104" y="0.0" name="bottom"/>
  <anchor x="1199.3894736842105" y="1426.0" name="top"/>
  <outline>
    <contour>
      <point x="386.8842105263158" y="0.0" type="curve"/>
      <point x="526.9473684210526" y="0.0" type="line"/>
      <point x="631.2210526315789" y="211.2421052631579"/>
      <point x="756.4842105263158" y="466.9684210526316"/>
      <point x="860.7578947368421" y="678.2105263157895" type="curve"/>
      <point x="1162.2526315789473" y="1291.1157894736841" type="line"/>
      <point x="1175.9368421052632" y="1291.1157894736841" type="line"/>
      <point x="1224.042105263158" y="678.2105263157894" type="line"/>
      <point x="1240.021052631579" y="466.8"/>
      <point x="1259.663157894737" y="215.07368421052632"/>
      <point x="1277.6421052631579" y="0.0" type="curve"/>
      <point x="1422.7368421052631" y="0.0" type="line"/>
      <point x="1492.0631578947368" y="136.16842105263157"/>
      <point x="1579.221052631579" y="309.8315789473684"/>
      <point x="1652.378947368421" y="451.8315789473684" type="curve"/>
      <point x="1880.1894736842105" y="900.0" type="line"/>
      <point x="1961.178947368421" y="1059.6631578947367"/>
      <point x="2060.5052631578947" y="1254.3368421052633"/>
      <point x="2147.4947368421053" y="1426.0" type="curve"/>
      <point x="2033.7263157894738" y="1426.0" type="line"/>
      <point x="1923.7894736842106" y="1207.242105263158"/>
      <point x="1795.0315789473684" y="951.8315789473684"/>
      <point x="1686.9263157894736" y="736.7368421052632" type="curve"/>
      <point x="1375.9368421052632" y="116.94736842105263" type="line"/>
      <point x="1362.2526315789473" y="116.94736842105263" type="line"/>
      <point x="1315.157894736842" y="736.4" type="line"/>
      <point x="1297.6842105263158" y="960.8210526315789"/>
      <point x="1280.2105263157894" y="1199.7473684210524"/>
      <point x="1262.7368421052631" y="1426.0" type="curve"/>
      <point x="1128.5473684210526" y="1426.0" type="line"/>
      <point x="1023.9368421052632" y="1212.9052631578948"/>
      <point x="894.5052631578948" y="949.6631578947369"/>
      <point x="791.7263157894737" y="738.5684210526316" type="curve"/>
      <point x="487.22105263157897" y="116.94736842105263" type="line"/>
      <point x="473.53684210526313" y="116.94736842105263" type="line"/>
      <point x="421.95789473684215" y="723.578947368421" type="line"/>
      <point x="402.98947368421057" y="944.3368421052631"/>
      <point x="380.69473684210527" y="1205.2421052631578"/>
      <point x="361.7263157894737" y="1426.0" type="curve"/>
      <point x="256.9684210526316" y="1426.0" type="line"/>
      <point x="271.9578947368421" y="1258.0"/>
      <point x="290.9473684210526" y="1052.505263157895"/>
      <point x="305.93684210526317" y="890.8421052631579" type="curve"/>
      <point x="345.41052631578947" y="450.0" type="line"/>
      <point x="358.5684210526316" y="311.8315789473684"/>
      <point x="373.7263157894737" y="141.83157894736843"/>
    </contour>
  </outline>
</glyph>
<glyph name="X" format="2">
  <advance width="1323.157894736842"/>
  <unicode hex="0058"/>
  <outline>
    <contour>
      <point x="-20.715789473684204" y="0.0" type="curve"/>
      <point x="107.22105263157894" y="0.0" type="line"/>
      <point x="226.14736842105265" y="135.45263157894738"/>
      <point x="326.4210526315789" y="247.9157894736842"/>
      <point x="432.021052631579" y="367.87368421052633" type="curve"/>
      <point x="677.5368421052632" y="648.4421052631579" type="line"/>
      <point x="691.2210526315789" y="648.4421052631579" type="line"/>
      <point x="834.2736842105263" y="369.70526315789476" type="line"/>
      <point x="891.8947368421052" y="257.41052631578947"/>
      <point x="955.0105263157894" y="133.62105263157895"/>
      <point x="1023.7894736842104" y="0.0" type="curve"/>
      <point x="1136.0421052631577" y="0.0" type="line"/>
      <point x="1058.9052631578948" y="150.0"/>
      <point x="989.4315789473683" y="284.1684210526316"/>
      <point x="910.2947368421052" y="438.1684210526316" type="curve"/>
      <point x="752.0210526315789" y="748.5052631578948" type="line"/>
      <point x="744.5052631578947" y="707.2631578947369" type="line"/>
      <point x="1027.957894736842" y="1026.463157894737" type="line"/>
      <point x="1130.1052631578946" y="1141.3052631578948"/>
      <point x="1252.084210526316" y="1278.4842105263158"/>
      <point x="1382.0631578947368" y="1426.0" type="curve"/>
      <point x="1254.8" y="1426.0" type="line"/>
      <point x="1137.3684210526317" y="1293.536842105263"/>
      <point x="1018.2736842105263" y="1157.7473684210527"/>
      <point x="910.5052631578948" y="1037.2842105263157" type="curve"/>
      <point x="706.2947368421053" y="806.1894736842105" type="line"/>
      <point x="692.6105263157895" y="806.1894736842105" type="line"/>
      <point x="580.8631578947369" y="1033.621052631579" type="line"/>
      <point x="523.2421052631578" y="1152.2526315789473"/>
      <point x="456.12631578947367" y="1288.042105263158"/>
      <point x="389.17894736842106" y="1426.0" type="curve"/>
      <point x="278.77894736842103" y="1426.0" type="line"/>
      <point x="357.7473684210526" y="1265.6631578947367"/>
      <point x="423.0526315789474" y="1131.3263157894737"/>
      <point x="488.5263157894737" y="998.9894736842106" type="curve"/>
      <point x="630.9684210526316" y="708.3157894736842" type="line"/>
      <point x="638.6526315789474" y="748.7157894736843" type="line"/>
      <point x="332.5473684210526" y="400.69473684210527" type="line"/>
      <point x="205.0736842105263" y="255.85263157894735"/>
      <point x="89.43157894736841" y="125.17894736842105"/>
    </contour>
  </outline>
</glyph>
<glyph name="Y" format="2">
  <advance width="1272.1473684210525"/>
  <unicode hex="0059"/>
  <anchor x="533.4105263157895" y="0.0" name="bottom"/>
  <anchor x="833.7473684210527" y="1426.0" name="top"/>
  <anchor x="235.66315789473686" y="1426.0" name="topleft"/>
  <outline>
    <contour>
      <point x="611.5578947368421" y="586.8631578947368" type="line"/>
      <point x="702.7157894736841" y="586.8631578947368" type="line"/>
      <point x="1132.5263157894735" y="1096.778947368421" type="line"/>
      <point x="1222.0210526315789" y="1202.463157894737"/>
      <point x="1315.6842105263158" y="1314.3157894736842"/>
      <point x="1409.178947368421" y="1426.0" type="curve"/>
      <point x="1281.7473684210527" y="1426.0" type="line"/>
      <point x="1112.0210526315789" y="1220.5684210526317"/>
      <point x="1027.0736842105262" y="1119.7684210526315"/>
      <point x="889.3263157894736" y="952.8210526315789" type="curve"/>
      <point x="679.9578947368421" y="700.7368421052631" type="line"/>
      <point x="666.4421052631578" y="700.7368421052631" type="line"/>
      <point x="559.2" y="962.1473684210526" type="line"/>
      <point x="494.42105263157896" y="1121.4315789473685"/>
      <point x="453.7894736842105" y="1220.4"/>
      <point x="368.69473684210527" y="1426.0" type="curve"/>
      <point x="260.9684210526316" y="1426.0" type="line"/>
      <point x="315.7894736842105" y="1295.978947368421"/>
      <point x="352.94736842105266" y="1204.8"/>
      <point x="398.10526315789474" y="1096.778947368421" type="curve"/>
    </contour>
    <contour>
      <point x="483.0526315789474" y="0.0" type="curve"/>
      <point x="583.2631578947368" y="0.0" type="line"/>
      <point x="617.0947368421052" y="160.82105263157894"/>
      <point x="646.7578947368421" y="299.4736842105263"/>
      <point x="683.0947368421052" y="474.4842105263158" type="curve"/>
      <point x="724.9684210526316" y="669.3473684210526" type="line"/>
      <point x="624.7578947368421" y="669.3473684210526" type="line"/>
      <point x="582.8842105263158" y="474.4842105263158" type="line"/>
      <point x="546.5473684210526" y="299.4736842105263"/>
      <point x="516.8842105263158" y="160.82105263157894"/>
    </contour>
  </outline>
</glyph>
<glyph name="Z" format="2">
  <advance width="1325.578947368421"/>
  <unicode hex="005A"/>
  <anchor x="559.5368421052631" y="0.0" name="bottom"/>
  <anchor x="709.5368421052631" y="714.0" name="center"/>
  <anchor x="859.5368421052631" y="1426.0" name="top"/>
  <outline>
    <contour>
      <point x="1.6210526315789413" y="0.0" type="line"/>
      <point x="1106.4631578947367" y="0.0" type="line"/>
      <point x="1126.357894736842" y="90.63157894736842" type="line"/>
      <point x="953.2421052631579" y="90.63157894736842"/>
      <point x="676.9894736842106" y="90.63157894736842"/>
      <point x="486.3789473684211" y="90.63157894736842" type="curve"/>
      <point x="89.49473684210528" y="90.63157894736842" type="line"/>
      <point x="114.50526315789473" y="31.221052631578946" type="line"/>
      <point x="891.2421052631579" y="834.6105263157895" type="line"/>
      <point x="1053.6842105263156" y="1003.0526315789474"/>
      <point x="1212.8" y="1171.4947368421053"/>
      <point x="1383.0736842105262" y="1345.7684210526315" type="curve"/>
      <point x="1399.7894736842104" y="1426.0" type="line"/>
      <point x="314.8" y="1426.0" type="line"/>
      <point x="294.90526315789475" y="1335.3684210526317" type="line"/>
      <point x="511.01052631578955" y="1335.3684210526317"/>
      <point x="713.621052631579" y="1335.3684210526317"/>
      <point x="892.7368421052631" y="1335.3684210526317" type="curve"/>
      <point x="1326.9473684210527" y="1335.3684210526317" type="line"/>
      <point x="1280.9473684210525" y="1380.1263157894737" type="line"/>
      <point x="551.8315789473685" y="623.3473684210526" type="line"/>
      <point x="390.5473684210526" y="456.06315789473683"/>
      <point x="166.77894736842106" y="222.29473684210527"/>
      <point x="15.157894736842099" y="66.67368421052632" type="curve"/>
    </contour>
  </outline>
</glyph>
<glyph name="bracketleft" format="2">
  <advance width="706.8421052631579"/>
  <unicode hex="005B"/>
  <outline>
    <contour>
      <point x="61.72631578947368" y="-227.03157894736842" type="curve"/>
      <point x="152.18947368421053" y="-227.03157894736842" type="line"/>
      <point x="153.53684210526316" y="-212.96842105263158" type="line"/>
      <point x="187.36842105263156" y="-51.810526315789474"/>
      <point x="217.03157894736842" y="88.67368421052632"/>
      <point x="253.2" y="261.5157894736842" type="curve"/>
      <point x="416.3578947368421" y="1035.4736842105262" type="line"/>
      <point x="452.69473684210527" y="1210.821052631579"/>
      <point x="482.5263157894737" y="1350.3157894736842"/>
      <point x="516.3578947368421" y="1511.6421052631579" type="curve"/>
      <point x="519.7052631578947" y="1523.8736842105263" type="line"/>
      <point x="429.2421052631579" y="1523.8736842105263" type="line"/>
      <point x="395.4105263157895" y="1362.5473684210526"/>
      <point x="365.5789473684211" y="1221.221052631579"/>
      <point x="329.2421052631579" y="1047.7052631578947" type="curve"/>
      <point x="161.38947368421051" y="247.45263157894738" type="line"/>
      <point x="125.22105263157894" y="74.61052631578949"/>
      <point x="95.38947368421053" y="-66.21052631578948"/>
    </contour>
    <contour>
      <point x="136.82105263157897" y="-227.03157894736842" type="line"/>
      <point x="530.8" y="-227.03157894736842" type="line"/>
      <point x="547.8526315789474" y="-142.94736842105263" type="line"/>
      <point x="451.0315789473684" y="-142.94736842105263"/>
      <point x="348.5473684210526" y="-142.94736842105263"/>
      <point x="233.89473684210526" y="-142.94736842105263" type="curve"/>
      <point x="153.87368421052633" y="-142.94736842105263" type="line"/>
    </contour>
    <contour>
      <point x="484.42105263157896" y="1439.7894736842106" type="line"/>
      <point x="559.7894736842105" y="1439.7894736842106" type="line"/>
      <point x="698.1052631578948" y="1439.7894736842106"/>
      <point x="793.0947368421052" y="1439.7894736842106"/>
      <point x="882.0842105263158" y="1439.7894736842106" type="curve"/>
      <point x="899.3052631578947" y="1523.8736842105263" type="line"/>
      <point x="501.6421052631579" y="1523.8736842105263" type="line"/>
    </contour>
  </outline>
</glyph>
<glyph name="backslash" format="2">
  <advance width="880.3789473684211"/>
  <unicode hex="005C"/>
  <outline>
    <contour>
      <point x="612.8210526315789" y="0.0" type="curve"/>
      <point x="702.778947368421" y="0.0" type="line"/>
      <point x="667.7894736842105" y="146.16842105263157"/>
      <point x="636.8" y="274.0"/>
      <point x="592.3157894736843" y="456.0" type="curve"/>
      <point x="473.85263157894735" y="950.1684210526316" type="line"/>
      <point x="427.36842105263156" y="1143.6631578947367"/>
      <point x="396.2105263157895" y="1272.0"/>
      <point x="359.3894736842105" y="1426.0" type="curve"/>
      <point x="269.2631578947368" y="1426.0" type="line"/>
      <point x="306.2526315789474" y="1271.8315789473684"/>
      <point x="337.2421052631579" y="1143.6631578947367"/>
      <point x="383.89473684210526" y="949.8315789473684" type="curve"/>
      <point x="502.18947368421055" y="456.0" type="line"/>
      <point x="546.8421052631579" y="274.0"/>
      <point x="577.8315789473685" y="146.0"/>
    </contour>
  </outline>
</glyph>
<glyph name="asciicircum" format="2">
  <advance width="1191.4526315789474"/>
  <unicode hex="005E"/>
  <outline>
    <contour>
      <point x="1024.2315789473682" y="778.7368421052631" type="curve"/>
      <point x="1117.3263157894737" y="780.9052631578948" type="line"/>
      <point x="1023.0105263157895" y="976.4421052631579"/>
      <point x="928.8631578947369" y="1173.4736842105262"/>
      <point x="834.5473684210527" y="1369.0105263157895" type="curve"/>
      <point x="707.3473684210526" y="1369.0105263157895" type="line"/>
      <point x="539.5368421052632" y="1177.6421052631579"/>
      <point x="373.0526315789474" y="987.2631578947369"/>
      <point x="196.0842105263158" y="784.9052631578948" type="curve"/>
      <point x="303.7052631578947" y="784.9052631578948" type="line"/>
      <point x="454.9684210526316" y="951.5157894736842"/>
      <point x="606.063157894737" y="1119.621052631579"/>
      <point x="757.3263157894737" y="1286.2315789473685" type="curve"/>
      <point x="770.8421052631579" y="1286.2315789473685" type="line"/>
      <point x="855.3052631578947" y="1117.621052631579"/>
      <point x="939.7684210526317" y="947.3473684210526"/>
    </contour>
  </outline>
</glyph>
<glyph name="underscore" format="2">
  <advance width="773.4736842105264"/>
  <unicode hex="005F"/>
  <outline>
    <contour>
      <point x="-164.54736842105262" y="-196.21052631578948" type="line"/>
      <point x="-45.68421052631579" y="-196.21052631578948"/>
      <point x="67.01052631578949" y="-196.21052631578948"/>
      <point x="163.5368421052632" y="-196.21052631578948" type="curve"/>
      <point x="320.8421052631579" y="-196.21052631578948" type="line"/>
      <point x="417.36842105263156" y="-196.21052631578948"/>
      <point x="530.0631578947368" y="-196.21052631578948"/>
      <point x="648.9263157894737" y="-196.21052631578948" type="curve"/>
      <point x="664.3157894736843" y="-114.94736842105263" type="line"/>
      <point x="545.4526315789474" y="-114.94736842105263"/>
      <point x="432.7578947368421" y="-114.94736842105263"/>
      <point x="336.23157894736846" y="-114.94736842105263" type="curve"/>
      <point x="178.9263157894737" y="-114.94736842105263" type="line"/>
      <point x="82.4" y="-114.94736842105263"/>
      <point x="-30.294736842105262" y="-114.94736842105263"/>
      <point x="-149.1578947368421" y="-114.94736842105263" type="curve"/>
    </contour>
  </outline>
</glyph>
<glyph name="a" format="2">
  <advance width="1036.4137931034484"/>
  <unicode hex="0061"/>
  <anchor x="422.7356321839081" y="0.0" name="bottom"/>
  <anchor x="761.080459770115" y="0.0" name="ogonek"/>
  <anchor x="634.7356321839081" y="989.471264367816" name="top"/>
  <outline>
    <contour>
      <point x="357.7011494252873" y="-18.735632183908045" type="curve" smooth="yes"/>
      <point x="496.0229885057471" y="-18.735632183908045"/>
      <point x="605.448275862069" y="43.58620689655172"/>
      <point x="690.3448275862069" y="144.32183908045977" type="curve"/>
      <point x="703.816091954023" y="144.32183908045977" type="line"/>
      <point x="674.3908045977012" y="0.0" type="line"/>
      <point x="761.080459770115" y="0.0" type="line"/>
      <point x="785.448275862069" y="108.94252873563218"/>
      <point x="804.183908045977" y="199.8850574712644"/>
      <point x="822.551724137931" y="282.4597701149425" type="curve"/>
      <point x="852.7126436781609" y="422.0" type="line" smooth="yes"/>
      <point x="872.3448275862069" y="510.1609195402299"/>
      <point x="885.9770114942529" y="579.4252873563219"/>
      <point x="898.3448275862069" y="636.8965517241379" type="curve" smooth="yes"/>
      <point x="945.448275862069" y="858.2068965517241"/>
      <point x="846.8275862068965" y="1010.2068965517242"/>
      <point x="604.0" y="1010.2068965517242" type="curve" smooth="yes"/>
      <point x="483.4252873563218" y="1010.2068965517242"/>
      <point x="348.48275862068965" y="972.5747126436781"/>
      <point x="262.64367816091954" y="938.9425287356322" type="curve"/>
      <point x="247.49425287356323" y="840.8275862068965" type="line"/>
      <point x="388.02298850574715" y="900.0919540229886"/>
      <point x="504.39080459770116" y="921.9310344827586"/>
      <point x="590.2298850574713" y="921.9310344827586" type="curve" smooth="yes"/>
      <point x="766.3448275862069" y="921.9310344827586"/>
      <point x="857.0344827586207" y="835.9770114942529"/>
      <point x="806.551724137931" y="627.3103448275862" type="curve"/>
      <point x="450.4367816091954" y="558.6206896551724" type="line" smooth="yes"/>
      <point x="285.7011494252874" y="527.3563218390805"/>
      <point x="124.27586206896552" y="486.4137931034483"/>
      <point x="82.64367816091955" y="300.41379310344826" type="curve" smooth="yes"/>
      <point x="42.64367816091954" y="116.7816091954023"/>
      <point x="160.0689655172414" y="-18.735632183908045"/>
    </contour>
    <contour>
      <point x="376.62068965517244" y="66.06896551724138" type="curve" smooth="yes"/>
      <point x="234.22988505747128" y="66.06896551724138"/>
      <point x="145.05747126436782" y="140.55172413793105"/>
      <point x="177.3793103448276" y="296.735632183908" type="curve" smooth="yes"/>
      <point x="203.17241379310343" y="421.17241379310343"/>
      <point x="326.66666666666663" y="452.43678160919535"/>
      <point x="468.7356321839081" y="480.5977011494253" type="curve" smooth="yes"/>
      <point x="692.551724137931" y="525.655172413793"/>
      <point x="750.8735632183908" y="544.9195402298851"/>
      <point x="791.0344827586207" y="561.6551724137931" type="curve"/>
      <point x="735.448275862069" y="304.78160919540227" type="line"/>
      <point x="626.2758620689656" y="126.80459770114942"/>
      <point x="501.7931034482759" y="66.06896551724138"/>
    </contour>
  </outline>
</glyph>
<glyph name="b" format="2">
  <advance width="1182.3368421052633"/>
  <unicode hex="0062"/>
  <outline>
    <contour>
      <point x="573.2842105263157" y="-19.178947368421053" type="curve" smooth="yes"/>
      <point x="816.2736842105263" y="-19.178947368421053"/>
      <point x="993.9157894736842" y="154.52631578947367"/>
      <point x="1053.915789473684" y="442.0210526315789" type="curve" smooth="yes"/>
      <point x="1116.0842105263157" y="742.3578947368421"/>
      <point x="995.4526315789474" y="1010.3578947368421"/>
      <point x="693.3263157894737" y="1010.3578947368421" type="curve" smooth="yes"/>
      <point x="561.7052631578947" y="1010.3578947368421"/>
      <point x="454.40000000000003" y="939.3894736842105"/>
      <point x="382.9052631578947" y="869.8736842105263" type="curve"/>
      <point x="369.2210526315789" y="869.8736842105263" type="line"/>
      <point x="394.37894736842105" y="987.8315789473684" type="line"/>
      <point x="430.7157894736842" y="1159.6842105263158"/>
      <point x="464.88421052631577" y="1316.6947368421052"/>
      <point x="498.7157894736842" y="1479.8526315789475" type="curve"/>
      <point x="404.0421052631579" y="1462.5052631578947" type="line"/>
      <point x="373.5368421052632" y="1316.3157894736842"/>
      <point x="337.87368421052633" y="1156.821052631579"/>
      <point x="302.0421052631579" y="987.8315789473684" type="curve"/>
      <point x="185.87368421052633" y="440.65263157894736" type="line"/>
      <point x="149.87368421052633" y="278.14736842105265"/>
      <point x="124.04210526315791" y="148.98947368421054"/>
      <point x="92.21052631578948" y="0.0" type="curve"/>
      <point x="176.3157894736842" y="0.0" type="line"/>
      <point x="213.8315789473684" y="156.1263157894737" type="line"/>
      <point x="227.01052631578946" y="156.1263157894737" type="line"/>
      <point x="300.65263157894736" y="47.136842105263156"/>
      <point x="427.8105263157895" y="-19.178947368421053"/>
    </contour>
    <contour>
      <point x="561.6631578947369" y="71.09473684210526" type="curve"/>
      <point x="416.2736842105263" y="71.09473684210526"/>
      <point x="311.5157894736842" y="129.22105263157894"/>
      <point x="240.90526315789472" y="264.61052631578946" type="curve"/>
      <point x="342.0210526315789" y="740.042105263158" type="line"/>
      <point x="444.2736842105263" y="854.6315789473684"/>
      <point x="553.0315789473684" y="920.5894736842106"/>
      <point x="671.4526315789474" y="920.5894736842106" type="curve"/>
      <point x="924.2736842105263" y="920.5894736842106"/>
      <point x="1012.0421052631579" y="707.7052631578947"/>
      <point x="959.4105263157894" y="452.0421052631579" type="curve" smooth="yes"/>
      <point x="913.9368421052632" y="234.16842105263157"/>
      <point x="789.0105263157895" y="71.09473684210526"/>
    </contour>
  </outline>
</glyph>
<glyph name="g" format="2">
  <advance width="1075.6781609195402"/>
  <unicode hex="0067"/>
  <anchor x="357.93103448275866" y="-384.0" name="bottom"/>
  <anchor x="606.4137931034483" y="989.471264367816" name="top"/>
  <outline>
    <contour>
      <point x="344.57471264367814" y="-402.735632183908" type="curve" smooth="yes"/>
      <point x="566.2528735632184" y="-402.735632183908"/>
      <point x="796.2988505747127" y="-313.4712643678161"/>
      <point x="835.7701149425288" y="-128.11494252873564" type="curve" smooth="yes"/>
      <point x="867.609195402299" y="19.609195402298845"/>
      <point x="760.2988505747127" y="125.44827586206897"/>
      <point x="489.2413793103448" y="125.44827586206897" type="curve" smooth="yes"/>
      <point x="418.8275862068965" y="125.44827586206897" type="line" smooth="yes"/>
      <point x="270.48275862068965" y="125.44827586206897"/>
      <point x="234.9655172413793" y="181.88505747126436"/>
      <point x="246.22988505747128" y="236.94252873563218" type="curve" smooth="yes"/>
      <point x="260.39080459770116" y="300.32183908045977"/>
      <point x="336.0229885057471" y="322.6896551724138"/>
      <point x="499.5632183908046" y="345.2183908045977" type="curve" smooth="yes"/>
      <point x="694.6206896551723" y="373.2183908045977"/>
      <point x="845.4022988505748" y="451.37931034482756"/>
      <point x="885.4022988505748" y="641.264367816092" type="curve" smooth="yes"/>
      <point x="908.6666666666667" y="755.7931034482759"/>
      <point x="875.0344827586207" y="864.4827586206897"/>
      <point x="754.551724137931" y="945.7471264367816" type="curve"/>
      <point x="729.3563218390805" y="911.6091954022988" type="line"/>
      <point x="857.5172413793103" y="911.6091954022988"/>
      <point x="986.5747126436781" y="911.6091954022988"/>
      <point x="1119.103448275862" y="911.6091954022988" type="curve"/>
      <point x="1135.5172413793102" y="989.8390804597701" type="line"/>
      <point x="784.6666666666666" y="989.8390804597701" type="line" smooth="yes"/>
      <point x="688.2528735632185" y="989.8390804597701"/>
      <point x="648.7816091954023" y="1010.2068965517242"/>
      <point x="550.3218390804598" y="1010.2068965517242" type="curve" smooth="yes"/>
      <point x="356.9655172413793" y="1010.2068965517242"/>
      <point x="199.90804597701148" y="918.1609195402299"/>
      <point x="160.64367816091954" y="729.1034482758621" type="curve" smooth="yes"/>
      <point x="117.7471264367816" y="530.4137931034483"/>
      <point x="256.5977011494253" y="420.04597701149424"/>
      <point x="325.37931034482756" y="388.0" type="curve"/>
      <point x="325.37931034482756" y="376.5287356321839" type="line"/>
      <point x="236.11494252873564" y="356.5287356321839"/>
      <point x="173.17241379310343" y="314.89655172413796"/>
      <point x="155.17241379310343" y="237.42528735632183" type="curve" smooth="yes"/>
      <point x="135.17241379310343" y="146.6896551724138"/>
      <point x="199.5402298850575" y="97.95402298850576"/>
      <point x="231.9080459770115" y="83.58620689655173" type="curve"/>
      <point x="231.9080459770115" y="74.11494252873563" type="line"/>
      <point x="156.27586206896552" y="60.11494252873563"/>
      <point x="14.114942528735629" y="9.218390804597703"/>
      <point x="-15.149425287356326" y="-127.47126436781609" type="curve" smooth="yes"/>
      <point x="-53.885057471264375" y="-306.04597701149424"/>
      <point x="131.10344827586206" y="-402.735632183908"/>
    </contour>
    <contour>
      <point x="350.0919540229885" y="-317.4022988505747" type="curve"/>
      <point x="212.3448275862069" y="-317.4022988505747"/>
      <point x="44.11494252873564" y="-270.87356321839076"/>
      <point x="74.80459770114943" y="-127.05747126436782" type="curve" smooth="yes"/>
      <point x="100.96551724137932" y="-5.149425287356321"/>
      <point x="271.7701149425287" y="39.54022988505747"/>
      <point x="422.1609195402299" y="39.9080459770115" type="curve"/>
      <point x="463.7931034482758" y="39.9080459770115" type="line" smooth="yes"/>
      <point x="715.2873563218391" y="39.9080459770115"/>
      <point x="767.2413793103449" y="-32.781609195402304"/>
      <point x="746.344827586207" y="-124.16091954022988" type="curve" smooth="yes"/>
      <point x="724.9195402298851" y="-216.75862068965517"/>
      <point x="596.2758620689655" y="-317.4022988505747"/>
    </contour>
    <contour>
      <point x="450.98850574712645" y="419.65517241379314" type="curve"/>
      <point x="328.55172413793105" y="450.551724137931"/>
      <point x="215.54022988505747" y="548.4597701149426"/>
      <point x="248.5977011494253" y="711.2183908045978" type="curve" smooth="yes"/>
      <point x="278.02298850574715" y="859.0804597701149"/>
      <point x="393.9310344827586" y="922.6666666666666"/>
      <point x="547.264367816092" y="922.6666666666666" type="curve"/>
      <point x="701.5402298850574" y="922.6666666666666"/>
      <point x="828.8735632183908" y="811.2873563218391"/>
      <point x="795.0804597701149" y="653.0574712643678" type="curve" smooth="yes"/>
      <point x="754.7586206896551" y="466.71264367816093"/>
      <point x="588.8965517241379" y="435.816091954023"/>
    </contour>
  </outline>
</glyph>
<glyph name="h" format="2">
  <advance width="1140.5263157894738"/>
  <unicode hex="0068"/>
  <guideline x="106.70526315789473" y="732.0105263157894" angle="4.470799999999997"/>
  <anchor x="480.3368421052632" y="0.0" name="bottom"/>
  <anchor x="652.3368421052631" y="818.0" name="center"/>
  <anchor x="744.3368421052633" y="1447.6842105263158" name="top"/>
  <outline>
    <contour>
      <point x="92.21052631578948" y="0.0" type="curve"/>
      <point x="184.54736842105262" y="0.0" type="line"/>
      <point x="216.37894736842105" y="148.98947368421054"/>
      <point x="242.21052631578948" y="278.14736842105265"/>
      <point x="277.7052631578947" y="438.46315789473687" type="curve"/>
      <point x="330.35789473684207" y="682.7368421052631" type="line"/>
      <point x="442.77894736842103" y="813.8105263157895"/>
      <point x="560.5263157894736" y="918.0631578947368"/>
      <point x="715.578947368421" y="918.0631578947368" type="curve" smooth="yes"/>
      <point x="897.4526315789474" y="918.0631578947368"/>
      <point x="945.4105263157895" y="810.6105263157895"/>
      <point x="903.9368421052632" y="616.2315789473685" type="curve"/>
      <point x="867.2842105263159" y="438.46315789473687" type="line"/>
      <point x="831.7894736842105" y="278.1473684210526"/>
      <point x="805.9578947368421" y="148.98947368421054"/>
      <point x="774.1263157894737" y="0.0" type="curve"/>
      <point x="866.4631578947368" y="0.0" type="line"/>
      <point x="898.2947368421053" y="148.98947368421054"/>
      <point x="924.1263157894737" y="278.1473684210526"/>
      <point x="960.1263157894737" y="440.65263157894736" type="curve"/>
      <point x="976.1263157894737" y="516.8210526315789"/>
      <point x="986.9684210526316" y="568.3578947368421"/>
      <point x="998.9684210526316" y="622.6947368421053" type="curve" smooth="yes"/>
      <point x="1052.4631578947367" y="865.3473684210527"/>
      <point x="962.9684210526316" y="1010.3578947368421"/>
      <point x="741.978947368421" y="1010.3578947368421" type="curve" smooth="yes"/>
      <point x="572.5473684210526" y="1010.3578947368421"/>
      <point x="437.7473684210526" y="894.9263157894736"/>
      <point x="369.9157894736842" y="820.7368421052632" type="curve"/>
      <point x="358.06315789473683" y="820.7368421052632" type="line"/>
      <point x="394.37894736842105" y="987.8315789473684" type="line"/>
      <point x="430.7157894736842" y="1159.6842105263158"/>
      <point x="464.88421052631577" y="1316.6947368421054"/>
      <point x="498.7157894736842" y="1479.8526315789475" type="curve"/>
      <point x="404.0421052631579" y="1462.5052631578947" type="line"/>
      <point x="373.5368421052632" y="1316.3157894736844"/>
      <point x="337.87368421052633" y="1156.821052631579"/>
      <point x="302.0421052631579" y="987.8315789473684" type="curve"/>
      <point x="185.87368421052633" y="440.65263157894736" type="line"/>
      <point x="149.87368421052633" y="278.14736842105265"/>
      <point x="124.04210526315791" y="148.98947368421054"/>
    </contour>
  </outline>
</glyph>
<glyph name="k" format="2">
  <advance width="1049.4947368421053"/>
  <unicode hex="006B"/>
  <anchor x="437.89473684210526" y="0.0" name="bottom"/>
  <anchor x="742.2315789473685" y="1447.6842105263158" name="top"/>
  <outline>
    <contour>
      <point x="772.6736842105263" y="0.0" type="curve"/>
      <point x="895.8736842105262" y="0.0" type="line"/>
      <point x="784.9263157894737" y="115.01052631578948"/>
      <point x="672.3157894736842" y="228.3578947368421"/>
      <point x="561.3684210526317" y="343.36842105263156" type="curve"/>
      <point x="381.4315789473684" y="528.4421052631579" type="line"/>
      <point x="396.1473684210526" y="477.6421052631579" type="line"/>
      <point x="614.5684210526315" y="644.9894736842106" type="line"/>
      <point x="765.3473684210526" y="759.8315789473684"/>
      <point x="913.9578947368421" y="874.5052631578948"/>
      <point x="1064.7368421052631" y="989.3473684210526" type="curve"/>
      <point x="928.6947368421053" y="989.3473684210526" type="line"/>
      <point x="804.1052631578947" y="892.8631578947368"/>
      <point x="676.0210526315789" y="794.7157894736843"/>
      <point x="551.6" y="698.2315789473685" type="curve"/>
      <point x="346.06315789473683" y="540.7578947368421" type="line"/>
      <point x="284.7157894736842" y="540.7578947368421" type="line"/>
      <point x="268.6736842105263" y="465.5578947368421" type="line"/>
      <point x="319.36842105263156" y="465.5578947368421" type="line"/>
      <point x="495.89473684210526" y="287.4315789473684" type="line"/>
      <point x="586.8210526315789" y="191.62105263157895"/>
      <point x="679.9157894736843" y="95.81052631578947"/>
    </contour>
    <contour>
      <point x="92.21052631578948" y="0.0" type="curve"/>
      <point x="184.54736842105262" y="0.0" type="line"/>
      <point x="215.8736842105263" y="146.96842105263158"/>
      <point x="241.53684210526316" y="274.4421052631579"/>
      <point x="276.5263157894737" y="432.7368421052632" type="curve"/>
      <point x="394.37894736842105" y="987.8315789473684" type="line"/>
      <point x="430.7157894736842" y="1159.6842105263158"/>
      <point x="464.88421052631577" y="1316.6947368421054"/>
      <point x="498.7157894736842" y="1479.8526315789475" type="curve"/>
      <point x="404.0421052631579" y="1462.5052631578947" type="line"/>
      <point x="373.5368421052632" y="1316.3157894736844"/>
      <point x="337.87368421052633" y="1156.821052631579"/>
      <point x="302.0421052631579" y="987.8315789473684" type="curve"/>
      <point x="185.87368421052633" y="440.65263157894736" type="line"/>
      <point x="149.87368421052633" y="278.14736842105265"/>
      <point x="124.04210526315791" y="148.98947368421054"/>
    </contour>
  </outline>
</glyph>
<glyph name="l" format="2">
  <advance width="488.7578947368421"/>
  <unicode hex="006C"/>
  <anchor x="138.37894736842105" y="0.0" name="bottom"/>
  <anchor x="313.2210526315789" y="818.0" name="center"/>
  <anchor x="445.87368421052633" y="1447.6842105263158" name="top"/>
  <anchor x="505.9789473684211" y="989.3473684210526" name="topright"/>
  <outline>
    <contour>
      <point x="92.21052631578948" y="0.0" type="curve"/>
      <point x="184.54736842105262" y="0.0" type="line"/>
      <point x="216.37894736842105" y="148.98947368421054"/>
      <point x="242.21052631578948" y="278.14736842105265"/>
      <point x="278.2105263157895" y="440.65263157894736" type="curve"/>
      <point x="394.37894736842105" y="987.8315789473684" type="line"/>
      <point x="430.7157894736842" y="1159.6842105263158"/>
      <point x="464.88421052631577" y="1316.6947368421052"/>
      <point x="498.7157894736842" y="1479.8526315789475" type="curve"/>
      <point x="404.0421052631579" y="1462.5052631578947" type="line"/>
      <point x="373.5368421052632" y="1316.3157894736842"/>
      <point x="337.87368421052633" y="1156.821052631579"/>
      <point x="302.0421052631579" y="987.8315789473684" type="curve"/>
      <point x="185.87368421052633" y="440.65263157894736" type="line"/>
      <point x="149.87368421052633" y="278.14736842105265"/>
      <point x="124.04210526315791" y="148.98947368421054"/>
    </contour>
  </outline>
</glyph>
<glyph name="m" format="2">
  <advance width="1744.1684210526316"/>
  <unicode hex="006D"/>
  <anchor x="786.6526315789473" y="0.0" name="bottom"/>
  <anchor x="994.9894736842106" y="989.3473684210526" name="top"/>
  <outline>
    <contour>
      <point x="92.21052631578948" y="0.0" type="curve"/>
      <point x="184.54736842105262" y="0.0" type="line"/>
      <point x="216.37894736842105" y="148.98947368421054"/>
      <point x="242.21052631578948" y="278.14736842105265"/>
      <point x="277.7052631578947" y="438.46315789473687" type="curve"/>
      <point x="330.35789473684207" y="682.7368421052631" type="line"/>
      <point x="442.77894736842103" y="813.8105263157894"/>
      <point x="555.0315789473684" y="918.0631578947368"/>
      <point x="704.2526315789474" y="918.0631578947368" type="curve" smooth="yes"/>
      <point x="863.8105263157895" y="918.0631578947368"/>
      <point x="911.7684210526317" y="810.6105263157895"/>
      <point x="870.2947368421053" y="616.2315789473685" type="curve"/>
      <point x="833.642105263158" y="438.46315789473687" type="line"/>
      <point x="798.1473684210526" y="278.1473684210526"/>
      <point x="772.3157894736843" y="148.98947368421054"/>
      <point x="740.4842105263158" y="0.0" type="curve"/>
      <point x="832.8210526315789" y="0.0" type="line"/>
      <point x="864.6526315789474" y="148.98947368421054"/>
      <point x="890.4842105263158" y="278.1473684210526"/>
      <point x="926.4842105263158" y="440.65263157894736" type="curve"/>
      <point x="942.4842105263158" y="516.8210526315789"/>
      <point x="953.3263157894737" y="568.3578947368421"/>
      <point x="965.3263157894737" y="622.6947368421053" type="curve" smooth="yes"/>
      <point x="975.6631578947369" y="672.042105263158"/>
      <point x="981.3263157894737" y="717.2210526315789"/>
      <point x="980.8210526315789" y="758.0631578947368" type="curve"/>
      <point x="979.9789473684211" y="765.3894736842105" type="line"/>
      <point x="973.3052631578947" y="923.3684210526317"/>
      <point x="887.4736842105264" y="1010.3578947368421"/>
      <point x="730.6526315789474" y="1010.3578947368421" type="curve" smooth="yes"/>
      <point x="565.0315789473684" y="1010.3578947368421"/>
      <point x="431.87368421052633" y="894.0842105263158"/>
      <point x="364.69473684210527" y="816.2105263157895" type="curve"/>
      <point x="352.67368421052635" y="816.2105263157895" type="line"/>
      <point x="390.14736842105265" y="996.5263157894736" type="line"/>
      <point x="302.37894736842105" y="989.3473684210526" type="line"/>
      <point x="266.37894736842105" y="821.5157894736842"/>
      <point x="232.54736842105262" y="662.021052631579"/>
      <point x="207.87368421052633" y="540.6526315789474" type="curve"/>
      <point x="185.87368421052633" y="440.65263157894736" type="line"/>
      <point x="149.87368421052633" y="278.14736842105265"/>
      <point x="124.04210526315791" y="148.98947368421054"/>
    </contour>
    <contour>
      <point x="1377.7684210526315" y="0.0" type="curve"/>
      <point x="1470.1052631578948" y="0.0" type="line"/>
      <point x="1501.9368421052632" y="148.98947368421054"/>
      <point x="1527.7684210526318" y="278.1473684210526"/>
      <point x="1563.7684210526318" y="440.65263157894736" type="curve"/>
      <point x="1579.7684210526318" y="516.8210526315789"/>
      <point x="1590.6105263157897" y="568.3578947368421"/>
      <point x="1602.6105263157897" y="622.6947368421053" type="curve" smooth="yes"/>
      <point x="1656.1052631578948" y="865.3473684210527"/>
      <point x="1566.6105263157895" y="1010.3578947368421"/>
      <point x="1367.9368421052632" y="1010.3578947368421" type="curve" smooth="yes"/>
      <point x="1202.3157894736842" y="1010.3578947368421"/>
      <point x="1065.4947368421053" y="892.2526315789473"/>
      <point x="989.1578947368421" y="807.0526315789474" type="curve"/>
      <point x="972.4631578947369" y="807.0526315789474" type="line"/>
      <point x="967.4736842105264" y="682.7368421052631" type="line"/>
      <point x="1079.8947368421052" y="810.1473684210526"/>
      <point x="1192.3157894736844" y="918.0631578947368"/>
      <point x="1341.536842105263" y="918.0631578947368" type="curve" smooth="yes"/>
      <point x="1501.0947368421055" y="918.0631578947368"/>
      <point x="1549.0526315789473" y="810.6105263157895"/>
      <point x="1507.578947368421" y="616.2315789473685" type="curve"/>
      <point x="1470.9263157894736" y="438.46315789473687" type="line"/>
      <point x="1435.4315789473685" y="278.1473684210526"/>
      <point x="1409.6" y="148.98947368421054"/>
    </contour>
  </outline>
</glyph>
<glyph name="n" format="2">
  <advance width="1140.5263157894738"/>
  <unicode hex="006E"/>
  <anchor x="482.00000000000006" y="0.0" name="bottom"/>
  <anchor x="690.3368421052633" y="989.3473684210526" name="top"/>
  <outline>
    <contour>
      <point x="92.21052631578948" y="0.0" type="curve"/>
      <point x="184.54736842105262" y="0.0" type="line"/>
      <point x="216.37894736842105" y="148.98947368421054"/>
      <point x="242.21052631578948" y="278.14736842105265"/>
      <point x="277.7052631578947" y="438.46315789473687" type="curve"/>
      <point x="330.35789473684207" y="682.7368421052631" type="line"/>
      <point x="442.77894736842103" y="813.8105263157895"/>
      <point x="560.5263157894736" y="918.0631578947368"/>
      <point x="715.578947368421" y="918.0631578947368" type="curve" smooth="yes"/>
      <point x="897.4526315789474" y="918.0631578947368"/>
      <point x="945.4105263157895" y="810.6105263157895"/>
      <point x="903.9368421052632" y="616.2315789473685" type="curve"/>
      <point x="867.2842105263159" y="438.46315789473687" type="line"/>
      <point x="831.7894736842105" y="278.1473684210526"/>
      <point x="805.9578947368421" y="148.98947368421054"/>
      <point x="774.1263157894737" y="0.0" type="curve"/>
      <point x="866.4631578947368" y="0.0" type="line"/>
      <point x="898.2947368421053" y="148.98947368421054"/>
      <point x="924.1263157894737" y="278.1473684210526"/>
      <point x="960.1263157894737" y="440.65263157894736" type="curve"/>
      <point x="976.1263157894737" y="516.8210526315789"/>
      <point x="986.9684210526316" y="568.3578947368421"/>
      <point x="998.9684210526316" y="622.6947368421053" type="curve" smooth="yes"/>
      <point x="1052.4631578947367" y="865.3473684210527"/>
      <point x="962.9684210526316" y="1010.3578947368421"/>
      <point x="741.978947368421" y="1010.3578947368421" type="curve" smooth="yes"/>
      <point x="570.5263157894736" y="1010.3578947368421"/>
      <point x="431.87368421052633" y="894.0842105263158"/>
      <point x="364.69473684210527" y="816.2105263157895" type="curve"/>
      <point x="352.67368421052635" y="816.2105263157895" type="line"/>
      <point x="390.14736842105265" y="996.5263157894736" type="line"/>
      <point x="302.37894736842105" y="989.3473684210526" type="line"/>
      <point x="266.37894736842105" y="821.5157894736842"/>
      <point x="232.54736842105262" y="662.021052631579"/>
      <point x="207.87368421052633" y="540.6526315789474" type="curve"/>
      <point x="185.87368421052633" y="440.65263157894736" type="line"/>
      <point x="149.87368421052633" y="278.14736842105265"/>
      <point x="124.04210526315791" y="148.98947368421054"/>
    </contour>
  </outline>
</glyph>
<glyph name="o" format="2">
  <advance width="1194.1684210526316"/>
  <unicode hex="006F"/>
  <anchor x="492.00000000000006" y="0.0" name="bottom"/>
  <anchor x="596.1684210526316" y="494.6736842105263" name="center"/>
  <anchor x="679.2421052631579" y="0.0" name="ogonek"/>
  <anchor x="700.3368421052633" y="989.3473684210526" name="top"/>
  <anchor x="1176.8" y="989.3473684210526" name="topright"/>
  <outline>
    <contour>
      <point x="545.1789473684211" y="-19.178947368421053" type="curve" smooth="yes"/>
      <point x="808.9052631578948" y="-19.178947368421053"/>
      <point x="1012.7368421052631" y="169.97894736842105"/>
      <point x="1071.2421052631578" y="444.33684210526314" type="curve" smooth="yes"/>
      <point x="1135.2421052631578" y="742.5052631578948"/>
      <point x="977.5578947368421" y="1010.3578947368421"/>
      <point x="650.8210526315789" y="1010.3578947368421" type="curve" smooth="yes"/>
      <point x="408.90526315789475" y="1010.3578947368421"/>
      <point x="185.09473684210528" y="841.5157894736842"/>
      <point x="124.7578947368421" y="547.0105263157894" type="curve" smooth="yes"/>
      <point x="64.58947368421053" y="256.1684210526316"/>
      <point x="209.93684210526314" y="-19.178947368421053"/>
    </contour>
    <contour>
      <point x="549.8526315789475" y="69.2421052631579" type="curve"/>
      <point x="272.7157894736842" y="69.2421052631579"/>
      <point x="167.78947368421052" y="287.62105263157895"/>
      <point x="219.09473684210528" y="532.6526315789474" type="curve" smooth="yes"/>
      <point x="264.7368421052631" y="755.1999999999999"/>
      <point x="422.79999999999995" y="921.9368421052632"/>
      <point x="650.3157894736842" y="921.9368421052632" type="curve"/>
      <point x="911.4736842105262" y="921.9368421052632"/>
      <point x="1031.7052631578947" y="715.7052631578947"/>
      <point x="976.9052631578948" y="458.5263157894737" type="curve" smooth="yes"/>
      <point x="931.4315789473684" y="242.14736842105262"/>
      <point x="779.1999999999999" y="69.2421052631579"/>
    </contour>
  </outline>
</glyph>
<glyph name="p" format="2">
  <advance width="1183.2526315789476"/>
  <unicode hex="0070"/>
  <outline>
    <contour>
      <point x="9.12631578947369" y="-388.6736842105263" type="curve"/>
      <point x="103.46315789473684" y="-384.0" type="line"/>
      <point x="135.29473684210527" y="-235.01052631578946"/>
      <point x="161.12631578947367" y="-105.85263157894737"/>
      <point x="196.62105263157895" y="54.463157894736845" type="curve"/>
      <point x="218.1157894736842" y="154.1052631578947" type="line"/>
      <point x="230.95789473684212" y="154.1052631578947" type="line"/>
      <point x="304.09473684210525" y="46.463157894736845"/>
      <point x="430.0736842105263" y="-19.178947368421053"/>
      <point x="574.2" y="-19.178947368421053" type="curve" smooth="yes"/>
      <point x="817.1894736842106" y="-19.178947368421053"/>
      <point x="994.8315789473684" y="154.52631578947367"/>
      <point x="1054.8315789473684" y="442.0210526315789" type="curve" smooth="yes"/>
      <point x="1117.0" y="742.3578947368421"/>
      <point x="996.3684210526316" y="1010.3578947368421"/>
      <point x="694.2421052631579" y="1010.3578947368421" type="curve" smooth="yes"/>
      <point x="561.2736842105263" y="1010.3578947368421"/>
      <point x="452.62105263157895" y="938.5473684210526"/>
      <point x="379.94736842105266" y="867.1789473684211" type="curve"/>
      <point x="366.2631578947369" y="867.1789473684211" type="line"/>
      <point x="392.9157894736842" y="996.5263157894736" type="line"/>
      <point x="303.2947368421053" y="989.3473684210526" type="line"/>
      <point x="267.2947368421053" y="821.5157894736842"/>
      <point x="233.46315789473684" y="662.021052631579"/>
      <point x="208.78947368421052" y="540.6526315789474" type="curve"/>
      <point x="104.78947368421053" y="56.65263157894737" type="line"/>
      <point x="70.62105263157895" y="-105.85263157894737"/>
      <point x="40.957894736842114" y="-239.68421052631578"/>
    </contour>
    <contour>
      <point x="562.578947368421" y="71.09473684210526" type="curve"/>
      <point x="417.1894736842105" y="71.09473684210526"/>
      <point x="312.4315789473684" y="129.22105263157894"/>
      <point x="241.82105263157894" y="264.61052631578946" type="curve"/>
      <point x="342.93684210526317" y="740.042105263158" type="line"/>
      <point x="445.1894736842105" y="854.6315789473684"/>
      <point x="553.9473684210526" y="920.5894736842106"/>
      <point x="672.3684210526316" y="920.5894736842106" type="curve"/>
      <point x="925.1894736842105" y="920.5894736842106"/>
      <point x="1012.957894736842" y="707.7052631578947"/>
      <point x="960.3263157894737" y="452.0421052631579" type="curve" smooth="yes"/>
      <point x="914.8526315789474" y="234.16842105263157"/>
      <point x="789.9263157894737" y="71.09473684210526"/>
    </contour>
  </outline>
</glyph>
<glyph name="q" format="2">
  <advance width="1163.178947368421"/>
  <unicode hex="0071"/>
  <outline>
    <contour>
      <point x="703.7894736842105" y="-388.6736842105263" type="curve"/>
      <point x="797.957894736842" y="-384.0" type="line"/>
      <point x="829.7894736842105" y="-235.01052631578946"/>
      <point x="855.6210526315789" y="-105.85263157894737"/>
      <point x="891.6210526315789" y="56.65263157894737" type="curve"/>
      <point x="993.7894736842105" y="540.6526315789474" type="line"/>
      <point x="1027.957894736842" y="704.6526315789474"/>
      <point x="1060.1263157894737" y="842.8421052631579"/>
      <point x="1092.6315789473683" y="996.5263157894736" type="curve"/>
      <point x="1002.3368421052631" y="989.3473684210526" type="line"/>
      <point x="973.3263157894737" y="859.8526315789474" type="line"/>
      <point x="959.642105263158" y="859.8526315789474" type="line"/>
      <point x="884.5052631578948" y="940.2105263157895"/>
      <point x="759.6842105263158" y="1010.3578947368421"/>
      <point x="609.221052631579" y="1010.3578947368421" type="curve" smooth="yes"/>
      <point x="366.2315789473684" y="1010.3578947368421"/>
      <point x="188.58947368421053" y="836.6526315789473"/>
      <point x="128.58947368421053" y="549.1578947368421" type="curve" smooth="yes"/>
      <point x="64.58947368421053" y="248.82105263157894"/>
      <point x="187.05263157894737" y="-19.178947368421053"/>
      <point x="489.178947368421" y="-19.178947368421053" type="curve" smooth="yes"/>
      <point x="598.9894736842106" y="-19.178947368421053"/>
      <point x="713.4526315789474" y="26.147368421052633"/>
      <point x="801.4315789473684" y="132.12631578947367" type="curve"/>
      <point x="814.7789473684211" y="132.12631578947367" type="line"/>
      <point x="798.9473684210526" y="54.463157894736845" type="line"/>
      <point x="765.2842105263157" y="-105.85263157894737"/>
      <point x="735.6210526315789" y="-239.68421052631578"/>
    </contour>
    <contour>
      <point x="511.0526315789474" y="70.58947368421053" type="curve"/>
      <point x="258.23157894736846" y="70.58947368421053"/>
      <point x="168.63157894736844" y="283.4736842105263"/>
      <point x="223.09473684210528" y="539.1368421052632" type="curve" smooth="yes"/>
      <point x="268.5684210526316" y="757.0105263157894"/>
      <point x="393.4947368421053" y="920.0842105263158"/>
      <point x="620.8421052631579" y="920.0842105263158" type="curve"/>
      <point x="764.4" y="920.0842105263158"/>
      <point x="867.3263157894737" y="858.2947368421053"/>
      <point x="948.9263157894737" y="765.0315789473684" type="curve"/>
      <point x="847.8105263157895" y="289.59999999999997" type="line"/>
      <point x="758.3789473684211" y="136.54736842105262"/>
      <point x="633.1368421052632" y="70.58947368421053"/>
    </contour>
  </outline>
</glyph>
<glyph name="r" format="2">
  <advance width="784.4"/>
  <unicode hex="0072"/>
  <anchor x="140.21052631578948" y="0.0" name="bottom"/>
  <anchor x="569.0105263157895" y="989.3473684210526" name="top"/>
  <outline>
    <contour>
      <point x="92.21052631578948" y="0.0" type="curve"/>
      <point x="184.54736842105262" y="0.0" type="line"/>
      <point x="216.37894736842105" y="148.98947368421054"/>
      <point x="242.21052631578948" y="278.14736842105265"/>
      <point x="277.7052631578947" y="438.46315789473687" type="curve"/>
      <point x="309.36842105263156" y="582.6105263157895" type="line"/>
      <point x="449.6" y="870.5473684210526"/>
      <point x="585.0315789473685" y="914.1894736842105"/>
      <point x="678.9894736842106" y="914.1894736842105" type="curve" smooth="yes"/>
      <point x="716.8421052631578" y="914.1894736842105"/>
      <point x="755.0105263157894" y="910.5263157894736"/>
      <point x="803.5157894736842" y="894.042105263158" type="curve"/>
      <point x="832.4421052631578" y="988.5263157894738" type="line"/>
      <point x="796.9473684210526" y="1000.5263157894736"/>
      <point x="745.6210526315789" y="1010.3578947368421"/>
      <point x="696.6315789473684" y="1010.3578947368421" type="curve" smooth="yes"/>
      <point x="599.8105263157895" y="1010.3578947368421"/>
      <point x="468.18947368421055" y="973.3684210526316"/>
      <point x="362.86315789473684" y="799.7263157894737" type="curve"/>
      <point x="350.8421052631579" y="799.7263157894737" type="line"/>
      <point x="390.14736842105265" y="996.5263157894736" type="line"/>
      <point x="302.37894736842105" y="989.3473684210526" type="line"/>
      <point x="266.37894736842105" y="821.5157894736842"/>
      <point x="232.54736842105262" y="662.021052631579"/>
      <point x="207.87368421052633" y="540.6526315789474" type="curve"/>
      <point x="185.87368421052633" y="440.65263157894736" type="line"/>
      <point x="149.87368421052633" y="278.14736842105265"/>
      <point x="124.04210526315791" y="148.98947368421054"/>
    </contour>
  </outline>
</glyph>
<glyph name="s" format="2">
  <advance width="897.5172413793103"/>
  <unicode hex="0073"/>
  <anchor x="343.3103448275862" y="0.0" name="bottom"/>
  <anchor x="551.6781609195402" y="989.471264367816" name="top"/>
  <outline>
    <contour>
      <point x="382.7816091954023" y="-19.103448275862068" type="curve" smooth="yes"/>
      <point x="587.4022988505748" y="-19.103448275862068"/>
      <point x="703.6091954022988" y="63.839080459770116"/>
      <point x="733.6091954022988" y="203.67816091954026" type="curve" smooth="yes"/>
      <point x="771.2413793103449" y="377.14942528735634"/>
      <point x="652.3908045977012" y="463.51724137931035"/>
      <point x="478.34482758620686" y="540.9885057471264" type="curve" smooth="yes"/>
      <point x="299.17241379310343" y="622.5747126436781"/>
      <point x="268.64367816091954" y="677.632183908046"/>
      <point x="287.54022988505744" y="774.8045977011494" type="curve" smooth="yes"/>
      <point x="315.3333333333333" y="901.7701149425287"/>
      <point x="440.4597701149425" y="922.2988505747127"/>
      <point x="512.2528735632184" y="922.2988505747127" type="curve"/>
      <point x="600.9425287356322" y="922.2988505747127"/>
      <point x="709.7241379310345" y="894.8275862068966"/>
      <point x="792.9885057471265" y="840.0919540229885" type="curve"/>
      <point x="821.2413793103449" y="927.471264367816" type="line"/>
      <point x="733.080459770115" y="982.0"/>
      <point x="616.1379310344828" y="1010.2068965517242"/>
      <point x="506.57471264367814" y="1010.2068965517242" type="curve" smooth="yes"/>
      <point x="352.64367816091954" y="1010.2068965517242"/>
      <point x="223.90804597701148" y="930.0"/>
      <point x="194.43678160919538" y="789.7471264367815" type="curve" smooth="yes"/>
      <point x="160.06896551724137" y="632.2758620689655"/>
      <point x="245.4942528735632" y="554.5977011494252"/>
      <point x="412.9655172413793" y="474.9655172413793" type="curve" smooth="yes"/>
      <point x="600.3448275862069" y="387.01149425287355"/>
      <point x="663.0344827586207" y="335.21839080459773"/>
      <point x="638.5057471264369" y="217.35632183908046" type="curve" smooth="yes"/>
      <point x="612.344827586207" y="94.22988505747126"/>
      <point x="498.85057471264366" y="69.17241379310344"/>
      <point x="383.31034482758616" y="69.17241379310344" type="curve"/>
      <point x="257.8390804597701" y="69.17241379310344"/>
      <point x="164.16091954022988" y="111.37931034482759"/>
      <point x="76.89655172413795" y="175.01149425287358" type="curve"/>
      <point x="46.64367816091954" y="85.79310344827587" type="line"/>
      <point x="127.74712643678161" y="26.89655172413793"/>
      <point x="253.21839080459773" y="-19.103448275862068"/>
    </contour>
  </outline>
</glyph>
<glyph name="t" format="2">
  <advance width="806.0631578947368"/>
  <unicode hex="0074"/>
  <anchor x="368.9894736842105" y="0.0" name="bottom"/>
  <anchor x="413.2" y="494.6736842105263" name="center"/>
  <anchor x="553.2210526315789" y="1257.4315789473685" name="top"/>
  <anchor x="549.663157894737" y="989.3473684210526" name="topright"/>
  <outline>
    <contour>
      <point x="464.6947368421053" y="-19.178947368421053" type="curve" smooth="yes"/>
      <point x="536.8631578947369" y="-19.178947368421053"/>
      <point x="610.7368421052631" y="5.978947368421053"/>
      <point x="645.9157894736842" y="30.484210526315792" type="curve"/>
      <point x="651.9578947368421" y="129.38947368421051" type="line"/>
      <point x="598.1263157894737" y="89.89473684210526"/>
      <point x="535.6421052631579" y="69.2421052631579"/>
      <point x="479.6631578947369" y="69.2421052631579" type="curve" smooth="yes"/>
      <point x="347.2210526315789" y="69.2421052631579"/>
      <point x="276.77894736842103" y="142.2315789473684"/>
      <point x="316.7578947368421" y="327.4736842105263" type="curve" smooth="yes"/>
      <point x="450.7157894736842" y="954.9473684210526" type="line"/>
      <point x="481.89473684210526" y="1100.0"/>
      <point x="500.56842105263155" y="1192.2105263157894"/>
      <point x="531.0736842105263" y="1336.0631578947368" type="curve"/>
      <point x="434.2315789473684" y="1309.8526315789475" type="line"/>
      <point x="408.06315789473683" y="1188.3368421052633"/>
      <point x="385.5578947368421" y="1082.6526315789474"/>
      <point x="358.88421052631577" y="954.9473684210526" type="curve"/>
      <point x="327.34736842105264" y="806.2736842105263"/>
      <point x="279.8736842105263" y="585.5578947368421"/>
      <point x="224.73684210526315" y="325.3684210526316" type="curve" smooth="yes"/>
      <point x="177.7263157894737" y="105.81052631578947"/>
      <point x="275.95789473684215" y="-19.178947368421053"/>
    </contour>
    <contour>
      <point x="142.42105263157896" y="910.6105263157895" type="line"/>
      <point x="369.9578947368421" y="910.6105263157895" type="line"/>
      <point x="401.7894736842105" y="910.6105263157895" type="line"/>
      <point x="535.2631578947369" y="910.6105263157895"/>
      <point x="678.9052631578948" y="910.6105263157895"/>
      <point x="816.8842105263158" y="910.6105263157895" type="curve"/>
      <point x="833.7684210526317" y="989.3473684210526" type="line"/>
      <point x="159.30526315789473" y="989.3473684210526" type="line"/>
    </contour>
  </outline>
</glyph>
<glyph name="u" format="2">
  <advance width="1103.8947368421052"/>
  <unicode hex="0075"/>
  <anchor x="448.52631578947364" y="0.0" name="bottom"/>
  <anchor x="828.9894736842105" y="0.0" name="ogonek"/>
  <anchor x="656.6947368421053" y="989.3473684210526" name="top"/>
  <anchor x="1149.7684210526315" y="989.3473684210526" name="topright"/>
  <outline>
    <contour>
      <point x="400.37894736842105" y="-19.178947368421053" type="curve" smooth="yes"/>
      <point x="560.8421052631578" y="-19.178947368421053"/>
      <point x="699.4947368421052" y="97.09473684210526"/>
      <point x="766.6736842105264" y="174.96842105263158" type="curve"/>
      <point x="778.6947368421053" y="174.96842105263158" type="line"/>
      <point x="743.0526315789473" y="0.0" type="line"/>
      <point x="828.9894736842105" y="0.0" type="line"/>
      <point x="860.8210526315789" y="148.98947368421054"/>
      <point x="886.6526315789473" y="278.14736842105265"/>
      <point x="920.8210526315789" y="440.65263157894736" type="curve"/>
      <point x="943.1578947368421" y="542.3368421052631" type="line"/>
      <point x="977.8315789473684" y="707.5368421052632"/>
      <point x="1007.3263157894737" y="840.3578947368421"/>
      <point x="1039.157894736842" y="989.3473684210526" type="curve"/>
      <point x="946.8210526315789" y="989.3473684210526" type="line"/>
      <point x="914.9894736842106" y="840.3578947368421"/>
      <point x="885.4947368421052" y="707.5368421052632"/>
      <point x="851.8315789473684" y="547.2210526315789" type="curve"/>
      <point x="800.8421052631579" y="307.59999999999997" type="line"/>
      <point x="688.421052631579" y="176.5263157894737"/>
      <point x="570.6736842105263" y="72.27368421052631"/>
      <point x="426.6105263157895" y="72.27368421052631" type="curve" smooth="yes"/>
      <point x="244.73684210526318" y="72.27368421052631"/>
      <point x="196.77894736842103" y="179.7263157894737"/>
      <point x="238.25263157894736" y="374.10526315789474" type="curve"/>
      <point x="273.2421052631579" y="547.2210526315789" type="line"/>
      <point x="306.9052631578947" y="707.5368421052632"/>
      <point x="338.4" y="845.0315789473684"/>
      <point x="370.2315789473684" y="994.021052631579" type="curve"/>
      <point x="275.89473684210526" y="989.3473684210526" type="line"/>
      <point x="244.06315789473683" y="840.3578947368421"/>
      <point x="214.56842105263158" y="707.5368421052631"/>
      <point x="179.89473684210526" y="542.3368421052631" type="curve"/>
      <point x="165.7263157894737" y="471.66315789473686"/>
      <point x="155.38947368421051" y="422.82105263157894"/>
      <point x="143.38947368421051" y="368.4842105263158" type="curve" smooth="yes"/>
      <point x="89.89473684210526" y="125.83157894736843"/>
      <point x="179.38947368421054" y="-19.178947368421053"/>
    </contour>
  </outline>
</glyph>
<glyph name="v" format="2">
  <advance width="992.6526315789474"/>
  <unicode hex="0076"/>
  <outline>
    <contour>
      <point x="335.2421052631579" y="0.0" type="curve"/>
      <point x="451.4105263157895" y="0.0" type="line"/>
      <point x="524.9052631578948" y="124.16842105263157"/>
      <point x="596.5684210526316" y="246.50526315789475"/>
      <point x="670.0631578947368" y="370.5052631578947" type="curve"/>
      <point x="775.3894736842105" y="546.8421052631578" type="line"/>
      <point x="861.0526315789474" y="693.1789473684211"/>
      <point x="950.3789473684211" y="843.1789473684211"/>
      <point x="1037.7052631578947" y="989.3473684210526" type="curve"/>
      <point x="931.4947368421052" y="989.3473684210526" type="line"/>
      <point x="828.0631578947368" y="810.9263157894737"/>
      <point x="726.1263157894738" y="634.8210526315789"/>
      <point x="618.5263157894738" y="451.38947368421054" type="curve"/>
      <point x="416.65263157894736" y="104.18947368421053" type="line"/>
      <point x="402.9684210526316" y="104.18947368421053" type="line"/>
      <point x="347.0315789473684" y="451.38947368421054" type="line"/>
      <point x="316.4" y="634.8210526315789"/>
      <point x="287.6" y="811.0947368421052"/>
      <point x="258.6315789473684" y="994.021052631579" type="curve"/>
      <point x="165.1157894736842" y="989.3473684210526" type="line"/>
      <point x="190.44210526315788" y="845.3473684210526"/>
      <point x="215.93684210526314" y="695.0105263157894"/>
      <point x="241.26315789473685" y="550.6736842105263" type="curve"/>
      <point x="270.7578947368421" y="374.5052631578947" type="line"/>
      <point x="292.2526315789474" y="254.0"/>
      <point x="313.7473684210526" y="124.16842105263157"/>
    </contour>
  </outline>
</glyph>
<glyph name="w" format="2">
  <advance width="1568.4842105263158"/>
  <unicode hex="0077"/>
  <anchor x="683.8947368421052" y="0.0" name="bottom"/>
  <anchor x="892.0631578947368" y="989.3473684210526" name="top"/>
  <outline>
    <contour>
      <point x="289.41052631578947" y="0.0" type="curve"/>
      <point x="402.7368421052631" y="0.0" type="line"/>
      <point x="493.17894736842106" y="171.9157894736842"/>
      <point x="591.1157894736842" y="356.9894736842105"/>
      <point x="679.7263157894737" y="525.2421052631579" type="curve"/>
      <point x="851.2842105263159" y="852.0842105263158" type="line"/>
      <point x="864.6315789473684" y="852.0842105263158" type="line"/>
      <point x="900.7578947368421" y="529.7473684210527" type="line"/>
      <point x="918.7368421052631" y="362.9894736842105"/>
      <point x="940.378947368421" y="168.25263157894736"/>
      <point x="958.3578947368422" y="0.0" type="curve"/>
      <point x="1080.8842105263157" y="0.0" type="line"/>
      <point x="1146.7157894736843" y="122.16842105263157"/>
      <point x="1214.5473684210526" y="248.33684210526314"/>
      <point x="1284.378947368421" y="378.5052631578947" type="curve"/>
      <point x="1378.0421052631577" y="552.5052631578947" type="line"/>
      <point x="1456.042105263158" y="697.1789473684211"/>
      <point x="1533.7052631578947" y="841.1789473684211"/>
      <point x="1613.536842105263" y="989.3473684210526" type="curve"/>
      <point x="1508.821052631579" y="989.3473684210526" type="line"/>
      <point x="1423.7052631578947" y="829.0736842105264"/>
      <point x="1317.7684210526315" y="627.978947368421"/>
      <point x="1224.9894736842105" y="452.0421052631579" type="curve"/>
      <point x="1041.4315789473685" y="104.16842105263157" type="line"/>
      <point x="1029.7473684210527" y="104.16842105263157" type="line"/>
      <point x="992.4631578947368" y="449.87368421052633" type="line"/>
      <point x="972.9894736842105" y="627.8105263157895"/>
      <point x="953.5157894736842" y="815.4105263157895"/>
      <point x="934.0421052631579" y="989.3473684210526" type="curve"/>
      <point x="835.578947368421" y="989.3473684210526" type="line"/>
      <point x="739.1368421052632" y="804.0842105263158"/>
      <point x="644.5263157894738" y="624.4842105263158"/>
      <point x="551.578947368421" y="446.2105263157895" type="curve"/>
      <point x="373.5157894736842" y="104.16842105263157" type="line"/>
      <point x="361.8315789473684" y="104.16842105263157" type="line"/>
      <point x="322.7157894736842" y="438.88421052631577" type="line"/>
      <point x="303.2421052631579" y="614.9894736842106"/>
      <point x="280.1052631578947" y="814.2526315789473"/>
      <point x="258.79999999999995" y="994.021052631579" type="curve"/>
      <point x="165.1157894736842" y="989.3473684210526" type="line"/>
      <point x="184.44210526315788" y="839.3473684210527"/>
      <point x="202.10526315789474" y="698.8421052631578"/>
      <point x="219.6" y="552.5052631578947" type="curve"/>
      <point x="242.7578947368421" y="374.6736842105263" type="line"/>
      <point x="258.2526315789474" y="248.50526315789475"/>
      <point x="273.9157894736842" y="124.16842105263157"/>
    </contour>
  </outline>
</glyph>
<glyph name="x" format="2">
  <advance width="1025.178947368421"/>
  <unicode hex="0078"/>
  <outline>
    <contour>
      <point x="-38.37894736842105" y="0.0" type="curve"/>
      <point x="82.33684210526314" y="0.0" type="line"/>
      <point x="170.61052631578949" y="95.13684210526317"/>
      <point x="236.23157894736843" y="164.77894736842106"/>
      <point x="322.84210526315786" y="258.42105263157896" type="curve"/>
      <point x="491.7263157894737" y="440.5263157894737" type="line"/>
      <point x="503.0736842105263" y="440.5263157894737" type="line"/>
      <point x="606.3157894736842" y="253.9157894736842" type="line"/>
      <point x="657.9368421052632" y="160.77894736842106"/>
      <point x="694.7368421052632" y="92.96842105263158"/>
      <point x="746.3578947368421" y="0.0" type="curve"/>
      <point x="852.5684210526316" y="0.0" type="line"/>
      <point x="782.421052631579" y="125.01052631578948"/>
      <point x="737.6" y="203.85263157894735"/>
      <point x="683.2842105263159" y="300.021052631579" type="curve"/>
      <point x="556.6526315789474" y="524.0421052631579" type="line"/>
      <point x="553.4947368421052" y="491.1578947368421" type="line"/>
      <point x="753.1368421052632" y="702.0" type="line"/>
      <point x="845.9578947368421" y="800.1684210526316"/>
      <point x="901.7894736842105" y="860.8421052631579"/>
      <point x="1024.2736842105264" y="989.3473684210526" type="curve"/>
      <point x="902.042105263158" y="989.3473684210526" type="line"/>
      <point x="813.6" y="894.2105263157895"/>
      <point x="749.4736842105262" y="824.2315789473685"/>
      <point x="668.1894736842105" y="736.0842105263158" type="curve"/>
      <point x="509.95789473684215" y="564.9684210526316" type="line"/>
      <point x="500.10526315789474" y="564.9684210526316" type="line"/>
      <point x="411.17894736842106" y="736.2526315789473" type="line"/>
      <point x="368.5473684210527" y="818.7368421052631"/>
      <point x="329.5789473684211" y="895.0526315789473"/>
      <point x="277.7894736842105" y="994.021052631579" type="curve"/>
      <point x="178.10526315789474" y="989.3473684210526" type="line"/>
      <point x="242.0842105263158" y="867.0105263157894"/>
      <point x="279.07368421052627" y="796.3368421052631"/>
      <point x="333.05263157894734" y="694.5052631578948" type="curve"/>
      <point x="443.5157894736842" y="483.8315789473684" type="line"/>
      <point x="448.69473684210527" y="520.3789473684211" type="line"/>
      <point x="242.56842105263158" y="300.5263157894737" type="line"/>
      <point x="150.0842105263158" y="201.5157894736842"/>
      <point x="83.43157894736841" y="131.0105263157895"/>
    </contour>
  </outline>
</glyph>
<glyph name="y" format="2">
  <advance width="1001.1578947368421"/>
  <unicode hex="0079"/>
  <anchor x="615.7684210526315" y="0.0" name="bottom"/>
  <anchor x="605.578947368421" y="989.3473684210526" name="top"/>
  <outline>
    <contour>
      <point x="100.54736842105262" y="-388.6736842105263" type="curve"/>
      <point x="207.57894736842107" y="-384.0" type="line"/>
      <point x="295.2421052631579" y="-240.0"/>
      <point x="395.0736842105264" y="-77.32631578947368"/>
      <point x="550.2315789473685" y="176.67368421052632" type="curve"/>
      <point x="719.7263157894737" y="455.0105263157895" type="line"/>
      <point x="871.221052631579" y="705.1789473684211"/>
      <point x="946.7157894736843" y="827.3473684210526"/>
      <point x="1044.3789473684212" y="989.3473684210526" type="curve"/>
      <point x="938.1684210526315" y="989.3473684210526" type="line"/>
      <point x="830.4000000000001" y="809.578947368421"/>
      <point x="726.6315789473684" y="635.8105263157894"/>
      <point x="617.0315789473684" y="450.5473684210526" type="curve"/>
      <point x="409.32631578947365" y="102.84210526315789" type="line"/>
      <point x="395.6421052631579" y="102.84210526315789" type="line"/>
      <point x="343.36842105263156" y="448.88421052631577" type="line"/>
      <point x="314.4" y="634.4842105263158"/>
      <point x="287.6" y="808.421052631579"/>
      <point x="258.6315789473684" y="994.021052631579" type="curve"/>
      <point x="165.1157894736842" y="989.3473684210526" type="line"/>
      <point x="188.61052631578946" y="847.1789473684211"/>
      <point x="214.10526315789474" y="695.1789473684211"/>
      <point x="237.6" y="553.0105263157894" type="curve"/>
      <point x="266.9263157894737" y="373.0105263157895" type="line"/>
      <point x="288.58947368421053" y="240.50526315789475"/>
      <point x="311.9157894736842" y="98.84210526315789"/>
      <point x="335.41052631578947" y="-37.32631578947368" type="curve"/>
      <point x="336.2526315789474" y="-2.2736842105263158" type="line"/>
      <point x="259.2421052631579" y="-129.9578947368421"/>
      <point x="177.5578947368421" y="-260.98947368421057"/>
    </contour>
  </outline>
</glyph>
<glyph name="braceleft" format="2">
  <advance width="763.8736842105263"/>
  <unicode hex="007B"/>
  <outline>
    <contour>
      <point x="440.1052631578947" y="-227.03157894736842" type="curve" smooth="yes"/>
      <point x="589.6631578947369" y="-227.03157894736842" type="line"/>
      <point x="606.7157894736843" y="-142.94736842105263" type="line"/>
      <point x="538.7157894736843" y="-142.94736842105263"/>
      <point x="486.5473684210526" y="-142.94736842105263"/>
      <point x="452.5473684210526" y="-142.94736842105263" type="curve"/>
      <point x="311.4526315789474" y="-142.94736842105263"/>
      <point x="256.14736842105265" y="-59.136842105263156"/>
      <point x="281.30526315789473" y="60.652631578947364" type="curve" smooth="yes"/>
      <point x="349.93684210526317" y="391.6421052631579" type="line" smooth="yes"/>
      <point x="380.2736842105263" y="536.4842105263158"/>
      <point x="337.93684210526317" y="597.1578947368421"/>
      <point x="258.2105263157895" y="636.1684210526316" type="curve"/>
      <point x="260.5473684210526" y="649.6842105263158" type="line"/>
      <point x="356.61052631578946" y="687.8736842105263"/>
      <point x="423.7894736842105" y="741.2421052631579"/>
      <point x="455.9578947368421" y="895.7473684210527" type="curve" smooth="yes"/>
      <point x="535.0736842105263" y="1267.178947368421" type="line" smooth="yes"/>
      <point x="562.0631578947367" y="1392.463157894737"/>
      <point x="637.3684210526316" y="1439.7894736842106"/>
      <point x="769.3052631578947" y="1439.7894736842106" type="curve"/>
      <point x="805.1368421052632" y="1439.7894736842106"/>
      <point x="875.4526315789474" y="1439.7894736842106"/>
      <point x="939.1157894736842" y="1439.7894736842106" type="curve"/>
      <point x="956.3368421052631" y="1523.8736842105263" type="line"/>
      <point x="769.4526315789473" y="1523.8736842105263" type="line" smooth="yes"/>
      <point x="591.2" y="1523.8736842105263"/>
      <point x="481.9789473684211" y="1451.1789473684212"/>
      <point x="446.63157894736844" y="1284.442105263158" type="curve"/>
      <point x="421.3052631578948" y="1161.3052631578946"/>
      <point x="392.4842105263158" y="1020.8631578947369"/>
      <point x="366.98947368421057" y="897.7263157894737" type="curve"/>
      <point x="334.16842105263163" y="742.7789473684211"/>
      <point x="221.22105263157894" y="686.9473684210526"/>
      <point x="120.90526315789474" y="686.9473684210526" type="curve" smooth="yes"/>
      <point x="61.873684210526314" y="686.9473684210526" type="line"/>
      <point x="45.49473684210526" y="608.0631578947368" type="line"/>
      <point x="104.52631578947368" y="608.0631578947368" type="line" smooth="yes"/>
      <point x="204.8421052631579" y="608.0631578947368"/>
      <point x="293.7894736842105" y="552.2315789473685"/>
      <point x="260.9684210526316" y="397.2842105263158" type="curve"/>
      <point x="237.8105263157895" y="285.66315789473686"/>
      <point x="214.6526315789474" y="175.87368421052633"/>
      <point x="191.49473684210528" y="64.25263157894737" type="curve"/>
      <point x="157.97894736842107" y="-96.98947368421052"/>
      <point x="245.3684210526316" y="-227.03157894736842"/>
    </contour>
  </outline>
</glyph>
<glyph name="bar" format="2">
  <advance width="508.7578947368421"/>
  <unicode hex="007C"/>
  <outline>
    <contour>
      <point x="40.40000000000001" y="-309.6842105263158" type="curve"/>
      <point x="127.34736842105262" y="-309.6842105263158" type="line"/>
      <point x="177.3473684210526" y="-75.6842105263158"/>
      <point x="221.3473684210526" y="132.31578947368422"/>
      <point x="267.34736842105264" y="348.3157894736842" type="curve"/>
      <point x="387.34736842105264" y="912.3157894736842" type="line"/>
      <point x="433.34736842105264" y="1128.3157894736842"/>
      <point x="477.34736842105264" y="1336.3157894736842"/>
      <point x="527.3473684210526" y="1570.3157894736842" type="curve"/>
      <point x="440.40000000000003" y="1570.3157894736842" type="line"/>
      <point x="390.40000000000003" y="1336.3157894736842"/>
      <point x="346.40000000000003" y="1128.3157894736842"/>
      <point x="300.40000000000003" y="912.3157894736842" type="curve"/>
      <point x="180.4" y="348.3157894736842" type="line"/>
      <point x="134.4" y="132.31578947368422"/>
      <point x="90.40000000000002" y="-75.6842105263158"/>
    </contour>
  </outline>
</glyph>
<glyph name="asciitilde" format="2">
  <advance width="1125.0526315789473"/>
  <unicode hex="007E"/>
  <outline>
    <contour>
      <point x="808.1894736842106" y="458.58947368421053" type="curve" smooth="yes"/>
      <point x="923.4105263157895" y="458.58947368421053"/>
      <point x="1001.936842105263" y="544.3368421052631"/>
      <point x="1034.294736842105" y="699.1157894736842" type="curve"/>
      <point x="960.1263157894737" y="699.1157894736842" type="line"/>
      <point x="930.9684210526316" y="593.5157894736842"/>
      <point x="885.4947368421052" y="547.0315789473684"/>
      <point x="804.6947368421053" y="547.0315789473684" type="curve"/>
      <point x="660.2315789473685" y="547.0315789473684"/>
      <point x="539.2210526315789" y="726.6315789473684"/>
      <point x="364.5473684210526" y="726.6315789473684" type="curve" smooth="yes"/>
      <point x="248.31578947368422" y="726.6315789473684"/>
      <point x="167.62105263157895" y="640.7157894736843"/>
      <point x="133.43157894736842" y="486.10526315789474" type="curve"/>
      <point x="207.6" y="486.10526315789474" type="line"/>
      <point x="236.7578947368421" y="591.7052631578947"/>
      <point x="284.5684210526316" y="638.1894736842105"/>
      <point x="365.70526315789476" y="638.1894736842105" type="curve"/>
      <point x="509.32631578947365" y="638.1894736842105"/>
      <point x="633.0105263157894" y="458.58947368421053"/>
    </contour>
  </outline>
</glyph>
<glyph name="sterling" format="2">
  <advance width="1165.4105263157894"/>
  <unicode hex="00A3"/>
  <outline>
    <contour>
      <point x="37.26315789473685" y="0.0" type="line"/>
      <point x="990.2526315789473" y="0.0" type="line"/>
      <point x="1010.1473684210526" y="88.63157894736842" type="line"/>
      <point x="834.1684210526316" y="88.63157894736842"/>
      <point x="680.021052631579" y="88.63157894736842"/>
      <point x="416.88421052631577" y="88.63157894736842" type="curve"/>
      <point x="124.42105263157896" y="88.63157894736842" type="line"/>
      <point x="140.8" y="48.77894736842105" type="line"/>
      <point x="306.3157894736842" y="172.0842105263158"/>
      <point x="354.4842105263158" y="295.22105263157897"/>
      <point x="387.47368421052636" y="445.6842105263158" type="curve" smooth="yes"/>
      <point x="493.57894736842104" y="939.578947368421" type="line" smooth="yes"/>
      <point x="546.8842105263158" y="1187.4526315789474"/>
      <point x="661.0105263157894" y="1302.5684210526315"/>
      <point x="865.2421052631579" y="1302.5684210526315" type="curve"/>
      <point x="979.5157894736842" y="1302.5684210526315"/>
      <point x="1075.1789473684212" y="1275.7473684210527"/>
      <point x="1170.6947368421052" y="1210.2526315789476" type="curve"/>
      <point x="1201.1157894736841" y="1302.042105263158" type="line"/>
      <point x="1116.5684210526317" y="1360.863157894737"/>
      <point x="992.5473684210526" y="1393.6842105263158"/>
      <point x="862.5263157894736" y="1393.6842105263158" type="curve" smooth="yes"/>
      <point x="631.9157894736843" y="1393.6842105263158"/>
      <point x="462.56842105263155" y="1255.4736842105262"/>
      <point x="400.2315789473684" y="957.2842105263157" type="curve" smooth="yes"/>
      <point x="365.2421052631579" y="799.1578947368421"/>
      <point x="321.9157894736842" y="594.5263157894738"/>
      <point x="288.2526315789474" y="434.0421052631579" type="curve"/>
      <point x="261.09473684210525" y="304.08421052631576"/>
      <point x="209.6" y="177.62105263157895"/>
      <point x="52.29473684210527" y="64.98947368421052" type="curve"/>
    </contour>
    <contour>
      <point x="176.9263157894737" y="723.3473684210526" type="line"/>
      <point x="295.7894736842106" y="723.3473684210526"/>
      <point x="408.4842105263158" y="723.3473684210526"/>
      <point x="505.0105263157895" y="723.3473684210526" type="curve"/>
      <point x="567.3684210526316" y="723.3473684210526" type="line"/>
      <point x="663.8947368421052" y="723.3473684210526"/>
      <point x="776.5894736842105" y="723.3473684210526"/>
      <point x="895.4526315789474" y="723.3473684210526" type="curve"/>
      <point x="911.6631578947369" y="799.8947368421053" type="line"/>
      <point x="792.8" y="799.8947368421053"/>
      <point x="680.1052631578947" y="799.8947368421053"/>
      <point x="583.578947368421" y="799.8947368421053" type="curve"/>
      <point x="521.2210526315789" y="799.8947368421053" type="line"/>
      <point x="424.69473684210527" y="799.8947368421053"/>
      <point x="312.00000000000006" y="799.8947368421053"/>
      <point x="193.13684210526316" y="799.8947368421053" type="curve"/>
    </contour>
  </outline>
</glyph>
<glyph name="currency" format="2">
  <advance width="1214.1473684210525"/>
  <unicode hex="00A4"/>
  <outline>
    <contour>
      <point x="608.2315789473685" y="250.73684210526318" type="curve" smooth="yes"/>
      <point x="823.1368421052631" y="250.73684210526318"/>
      <point x="969.1789473684211" y="361.74736842105267"/>
      <point x="1014.6947368421053" y="593.1368421052631" type="curve" smooth="yes"/>
      <point x="1062.0421052631577" y="830.3578947368421"/>
      <point x="900.0" y="1030.7578947368422"/>
      <point x="665.0736842105263" y="1030.7578947368422" type="curve" smooth="yes"/>
      <point x="462.98947368421057" y="1030.7578947368422"/>
      <point x="300.6315789473684" y="921.578947368421"/>
      <point x="255.1157894736842" y="690.1894736842105" type="curve" smooth="yes"/>
      <point x="207.76842105263157" y="451.13684210526316"/>
      <point x="365.9789473684211" y="250.73684210526318"/>
    </contour>
    <contour>
      <point x="161.13684210526316" y="136.5263157894737" type="line"/>
      <point x="248.9894736842105" y="218.37894736842105"/>
      <point x="331.01052631578943" y="294.2315789473684"/>
      <point x="401.0315789473684" y="360.08421052631576" type="curve"/>
      <point x="341.8315789473684" y="424.2947368421053" type="line"/>
      <point x="271.9789473684211" y="358.61052631578946"/>
      <point x="189.9578947368421" y="282.7578947368421"/>
      <point x="101.93684210526315" y="200.90526315789475" type="curve"/>
    </contour>
    <contour>
      <point x="614.2526315789474" y="339.3263157894737" type="curve"/>
      <point x="429.178947368421" y="339.3263157894737"/>
      <point x="307.57894736842104" y="493.74736842105267"/>
      <point x="343.89473684210526" y="678.4842105263158" type="curve" smooth="yes"/>
      <point x="378.04210526315785" y="856.042105263158"/>
      <point x="504.29473684210524" y="942.6736842105263"/>
      <point x="659.7263157894737" y="942.6736842105263" type="curve"/>
      <point x="839.3052631578947" y="942.6736842105263"/>
      <point x="962.4" y="787.578947368421"/>
      <point x="926.421052631579" y="605.5157894736842" type="curve" smooth="yes"/>
      <point x="890.4421052631578" y="424.94736842105266"/>
      <point x="780.1684210526316" y="339.3263157894737"/>
    </contour>
    <contour>
      <point x="394.65263157894736" y="840.8842105263159" type="curve"/>
      <point x="456.52631578947364" y="899.2421052631579" type="line"/>
      <point x="388.84210526315786" y="971.0947368421052"/>
      <point x="314.82105263157894" y="1051.1157894736841"/>
      <point x="232.96842105263158" y="1139.136842105263" type="curve"/>
      <point x="171.26315789473685" y="1080.778947368421" type="line"/>
      <point x="251.2842105263158" y="994.5894736842106"/>
      <point x="328.9684210526316" y="910.7368421052632"/>
    </contour>
    <contour>
      <point x="1044.842105263158" y="144.52631578947367" type="curve"/>
      <point x="1106.5473684210526" y="202.8842105263158" type="line"/>
      <point x="1026.5263157894735" y="289.0736842105263"/>
      <point x="948.8421052631579" y="372.9263157894737"/>
      <point x="883.1578947368422" y="442.7789473684211" type="curve"/>
      <point x="821.2842105263159" y="384.4210526315789" type="line"/>
      <point x="887.1368421052632" y="314.4"/>
      <point x="964.8210526315789" y="230.71578947368423"/>
    </contour>
    <contour>
      <point x="935.9789473684211" y="859.3684210526316" type="line"/>
      <point x="1004.0" y="923.221052631579"/>
      <point x="1087.8526315789475" y="1000.9052631578948"/>
      <point x="1175.8736842105263" y="1082.7578947368422" type="curve"/>
      <point x="1116.6736842105263" y="1147.1368421052632" type="line"/>
      <point x="1028.821052631579" y="1065.284210526316"/>
      <point x="941.3052631578947" y="983.9368421052632"/>
      <point x="876.778947368421" y="923.578947368421" type="curve"/>
    </contour>
  </outline>
</glyph>
<glyph name="yen" format="2">
  <advance width="1218.8"/>
  <unicode hex="00A5"/>
  <outline>
    <contour>
      <point x="579.7263157894737" y="564.5473684210526" type="line"/>
      <point x="667.3684210526316" y="564.5473684210526" type="line"/>
      <point x="1073.3473684210526" y="1050.1263157894737" type="line"/>
      <point x="1166.842105263158" y="1161.8105263157895"/>
      <point x="1258.1684210526316" y="1271.157894736842"/>
      <point x="1340.0" y="1369.0105263157895" type="curve"/>
      <point x="1218.5894736842106" y="1369.0105263157895" type="line"/>
      <point x="1058.1894736842107" y="1174.9052631578945"/>
      <point x="984.5684210526316" y="1085.6"/>
      <point x="856.3157894736842" y="930.4842105263158" type="curve"/>
      <point x="645.1157894736842" y="674.5684210526316" type="line"/>
      <point x="631.7684210526317" y="674.5684210526316" type="line"/>
      <point x="532.021052631579" y="922.1473684210526" type="line"/>
      <point x="469.2421052631579" y="1078.421052631579"/>
      <point x="432.10526315789474" y="1171.578947368421"/>
      <point x="352.6736842105263" y="1369.0105263157895" type="curve"/>
      <point x="248.8" y="1369.0105263157895" type="line"/>
      <point x="315.4526315789474" y="1206.3157894736842"/>
      <point x="340.94736842105266" y="1145.1368421052632"/>
      <point x="380.10526315789474" y="1049.621052631579" type="curve"/>
    </contour>
    <contour>
      <point x="455.7263157894737" y="0.0" type="curve"/>
      <point x="551.9157894736842" y="0.0" type="line"/>
      <point x="585.578947368421" y="154.82105263157894"/>
      <point x="613.4105263157894" y="287.8105263157895"/>
      <point x="649.4105263157894" y="454.14736842105265" type="curve"/>
      <point x="689.2842105263157" y="642.5052631578948" type="line"/>
      <point x="593.0947368421052" y="642.5052631578948" type="line"/>
      <point x="553.2210526315789" y="454.3157894736842" type="line"/>
      <point x="517.2210526315789" y="287.9789473684211"/>
      <point x="489.38947368421054" y="154.82105263157894"/>
    </contour>
    <contour>
      <point x="129.26315789473685" y="305.7263157894737" type="line"/>
      <point x="248.1263157894737" y="305.7263157894737"/>
      <point x="360.82105263157894" y="305.7263157894737"/>
      <point x="457.34736842105264" y="305.7263157894737" type="curve"/>
      <point x="683.0736842105263" y="305.7263157894737" type="line"/>
      <point x="779.6" y="305.7263157894737"/>
      <point x="892.2947368421053" y="305.7263157894737"/>
      <point x="1011.1578947368421" y="305.7263157894737" type="curve"/>
      <point x="1026.8631578947368" y="378.90526315789475" type="line"/>
      <point x="908.0" y="378.90526315789475"/>
      <point x="795.3052631578947" y="378.90526315789475"/>
      <point x="698.778947368421" y="378.90526315789475" type="curve"/>
      <point x="473.0526315789474" y="378.90526315789475" type="line"/>
      <point x="376.5263157894737" y="378.90526315789475"/>
      <point x="263.8315789473684" y="378.90526315789475"/>
      <point x="144.96842105263158" y="378.90526315789475" type="curve"/>
    </contour>
    <contour>
      <point x="186.94736842105263" y="573.978947368421" type="line"/>
      <point x="305.8105263157895" y="573.978947368421"/>
      <point x="418.5052631578948" y="573.978947368421"/>
      <point x="515.0315789473684" y="573.978947368421" type="curve"/>
      <point x="740.7578947368421" y="573.978947368421" type="line"/>
      <point x="837.2842105263159" y="573.978947368421"/>
      <point x="949.9789473684211" y="573.978947368421"/>
      <point x="1068.842105263158" y="573.978947368421" type="curve"/>
      <point x="1084.5473684210526" y="647.1578947368421" type="line"/>
      <point x="965.6842105263158" y="647.1578947368421"/>
      <point x="852.9894736842106" y="647.1578947368421"/>
      <point x="756.4631578947368" y="647.1578947368421" type="curve"/>
      <point x="530.7368421052631" y="647.1578947368421" type="line"/>
      <point x="434.2105263157895" y="647.1578947368421"/>
      <point x="321.5157894736842" y="647.1578947368421"/>
      <point x="202.65263157894736" y="647.1578947368421" type="curve"/>
    </contour>
  </outline>
</glyph>
<glyph name="brokenbar" format="2">
  <advance width="508.7578947368421"/>
  <unicode hex="00A6"/>
  <outline>
    <contour>
      <point x="262.23157894736846" y="730.3157894736842" type="line"/>
      <point x="349.17894736842106" y="730.3157894736842" type="line"/>
      <point x="387.34736842105264" y="912.3157894736842" type="line"/>
      <point x="433.34736842105264" y="1128.3157894736842"/>
      <point x="477.34736842105264" y="1336.3157894736842"/>
      <point x="527.3473684210526" y="1570.3157894736842" type="curve"/>
      <point x="440.40000000000003" y="1570.3157894736842" type="line"/>
      <point x="390.40000000000003" y="1336.3157894736842"/>
      <point x="346.40000000000003" y="1128.3157894736842"/>
      <point x="300.40000000000003" y="912.3157894736842" type="curve"/>
    </contour>
    <contour>
      <point x="40.40000000000001" y="-309.6842105263158" type="curve"/>
      <point x="127.34736842105262" y="-309.6842105263158" type="line"/>
      <point x="177.3473684210526" y="-75.6842105263158"/>
      <point x="221.3473684210526" y="132.31578947368422"/>
      <point x="267.34736842105264" y="348.3157894736842" type="curve"/>
      <point x="305.34736842105264" y="530.3157894736842" type="line"/>
      <point x="218.4" y="530.3157894736842" type="line"/>
      <point x="180.4" y="348.3157894736842" type="line"/>
      <point x="134.4" y="132.31578947368422"/>
      <point x="90.40000000000002" y="-75.6842105263158"/>
    </contour>
  </outline>
</glyph>
<glyph name="section" format="2">
  <advance width="1056.183908045977"/>
  <unicode hex="00A7"/>
  <outline>
    <contour>
      <point x="367.8850574712644" y="-246.20689655172413" type="curve" smooth="yes"/>
      <point x="611.2413793103449" y="-246.20689655172413"/>
      <point x="749.080459770115" y="-147.26436781609195"/>
      <point x="785.448275862069" y="22.574712643678154" type="curve" smooth="yes"/>
      <point x="829.816091954023" y="226.04597701149424"/>
      <point x="684.5977011494252" y="330.4137931034483"/>
      <point x="478.55172413793105" y="423.14942528735634" type="curve" smooth="yes"/>
      <point x="253.01149425287355" y="524.367816091954"/>
      <point x="220.11494252873564" y="591.4252873563219"/>
      <point x="246.64367816091954" y="715.3333333333334" type="curve" smooth="yes"/>
      <point x="276.8045977011494" y="859.0344827586207"/>
      <point x="419.08045977011494" y="894.8735632183908"/>
      <point x="506.87356321839087" y="899.6091954022988" type="curve"/>
      <point x="434.4597701149425" y="976.1609195402299" type="line"/>
      <point x="299.51724137931035" y="951.632183908046"/>
      <point x="180.11494252873564" y="863.7931034482758"/>
      <point x="150.64367816091956" y="725.5402298850576" type="curve" smooth="yes"/>
      <point x="111.37931034482759" y="540.8505747126436"/>
      <point x="212.02298850574712" y="452.0689655172414"/>
      <point x="413.17241379310343" y="356.5977011494253" type="curve" smooth="yes"/>
      <point x="642.9195402298851" y="248.27586206896552"/>
      <point x="720.3448275862069" y="183.42528735632183"/>
      <point x="688.183908045977" y="30.98850574712644" type="curve" smooth="yes"/>
      <point x="656.0229885057471" y="-122.71264367816092"/>
      <point x="510.4827586206897" y="-157.4022988505747"/>
      <point x="366.735632183908" y="-157.4022988505747" type="curve"/>
      <point x="218.94252873563218" y="-157.4022988505747"/>
      <point x="109.26436781609196" y="-107.56321839080461"/>
      <point x="4.367816091954017" y="-31.931034482758623" type="curve"/>
      <point x="-27.885057471264364" y="-119.67816091954023" type="line"/>
      <point x="69.2183908045977" y="-190.20689655172416"/>
      <point x="217.95402298850573" y="-246.20689655172413"/>
    </contour>
    <contour>
      <point x="705.3563218390805" y="234.0" type="line"/>
      <point x="859.2413793103449" y="264.8965517241379"/>
      <point x="953.4942528735631" y="354.36781609195407"/>
      <point x="982.2298850574712" y="489.8850574712643" type="curve" smooth="yes"/>
      <point x="1025.126436781609" y="689.6781609195402"/>
      <point x="881.3793103448276" y="790.7816091954023"/>
      <point x="675.7011494252873" y="883.5172413793103" type="curve" smooth="yes"/>
      <point x="450.8965517241379" y="984.735632183908"/>
      <point x="416.89655172413796" y="1056.3218390804598"/>
      <point x="443.42528735632186" y="1179.3333333333333" type="curve" smooth="yes"/>
      <point x="477.21839080459773" y="1334.2988505747126"/>
      <point x="637.6551724137931" y="1361.9310344827586"/>
      <point x="720.7126436781609" y="1361.9310344827586" type="curve"/>
      <point x="828.5057471264369" y="1361.9310344827586"/>
      <point x="955.6091954022988" y="1328.4597701149423"/>
      <point x="1055.2413793103449" y="1263.7241379310346" type="curve"/>
      <point x="1085.4942528735633" y="1352.0" type="line"/>
      <point x="979.7011494252873" y="1418.528735632184"/>
      <point x="842.3908045977012" y="1450.7356321839081"/>
      <point x="715.1954022988506" y="1450.7356321839081" type="curve" smooth="yes"/>
      <point x="535.264367816092" y="1450.7356321839081"/>
      <point x="382.5287356321839" y="1356.528735632184"/>
      <point x="347.42528735632186" y="1191.7471264367816" type="curve" smooth="yes"/>
      <point x="307.42528735632186" y="1003.3793103448276"/>
      <point x="412.48275862068965" y="910.9655172413793"/>
      <point x="610.6896551724138" y="817.3333333333334" type="curve" smooth="yes"/>
      <point x="840.4367816091954" y="709.3793103448276"/>
      <point x="918.7586206896552" y="646.6896551724137"/>
      <point x="886.9655172413793" y="494.25287356321843" type="curve" smooth="yes"/>
      <point x="860.8045977011494" y="369.81609195402297"/>
      <point x="753.3793103448276" y="319.97701149425285"/>
      <point x="636.528735632184" y="308.3448275862069" type="curve"/>
    </contour>
  </outline>
</glyph>
<glyph name="copyright" format="2">
  <advance width="1650.9263157894736"/>
  <unicode hex="00A9"/>
  <outline>
    <contour>
      <point x="872.4631578947368" y="-19.178947368421053" type="curve" smooth="yes"/>
      <point x="1306.842105263158" y="-19.178947368421053"/>
      <point x="1576.9894736842105" y="283.1578947368421"/>
      <point x="1576.9894736842105" y="688.1684210526316" type="curve" smooth="yes"/>
      <point x="1576.9894736842105" y="1080.6736842105263"/>
      <point x="1319.0105263157895" y="1393.6842105263158"/>
      <point x="867.7894736842105" y="1393.6842105263158" type="curve" smooth="yes"/>
      <point x="424.4" y="1393.6842105263158"/>
      <point x="153.93684210526317" y="1086.3368421052633"/>
      <point x="153.93684210526317" y="688.0" type="curve" smooth="yes"/>
      <point x="153.93684210526317" y="302.8421052631579"/>
      <point x="401.2421052631579" y="-19.178947368421053"/>
    </contour>
    <contour>
      <point x="887.6421052631579" y="311.8315789473684" type="curve" smooth="yes"/>
      <point x="980.3157894736842" y="311.8315789473684"/>
      <point x="1055.4736842105262" y="336.4842105263158"/>
      <point x="1102.1473684210525" y="363.6421052631579" type="curve"/>
      <point x="1090.1473684210525" y="446.4842105263158" type="line"/>
      <point x="1028.1684210526316" y="407.66315789473686"/>
      <point x="962.1894736842105" y="390.0"/>
      <point x="894.2105263157895" y="390.0" type="curve"/>
      <point x="710.2947368421053" y="390.0"/>
      <point x="612.0" y="509.6"/>
      <point x="612.0" y="690.3368421052631" type="curve" smooth="yes"/>
      <point x="612.0" y="882.7157894736843"/>
      <point x="723.6" y="987.1578947368421"/>
      <point x="879.3473684210526" y="987.1578947368421" type="curve"/>
      <point x="936.9894736842106" y="987.1578947368421"/>
      <point x="1007.6421052631579" y="975.6631578947369"/>
      <point x="1089.6421052631579" y="925.8315789473684" type="curve"/>
      <point x="1098.821052631579" y="1008.8421052631579" type="line"/>
      <point x="1042.4842105263158" y="1042.5052631578947"/>
      <point x="957.8105263157895" y="1066.0"/>
      <point x="875.3052631578947" y="1066.0" type="curve" smooth="yes"/>
      <point x="657.2631578947369" y="1066.0"/>
      <point x="527.9368421052632" y="902.1684210526316"/>
      <point x="527.9368421052632" y="689.4947368421052" type="curve" smooth="yes"/>
      <point x="527.9368421052632" y="476.82105263157894"/>
      <point x="657.2842105263157" y="311.8315789473684"/>
    </contour>
    <contour>
      <point x="872.2947368421053" y="58.46315789473684" type="curve"/>
      <point x="478.82105263157894" y="58.46315789473684"/>
      <point x="232.92631578947368" y="299.9578947368421"/>
      <point x="232.92631578947368" y="688.0" type="curve" smooth="yes"/>
      <point x="232.92631578947368" y="1070.4"/>
      <point x="486.9894736842105" y="1316.042105263158"/>
      <point x="867.9578947368421" y="1316.042105263158" type="curve"/>
      <point x="1251.0947368421052" y="1316.042105263158"/>
      <point x="1498.0" y="1073.8947368421052"/>
      <point x="1498.0" y="688.1684210526316" type="curve" smooth="yes"/>
      <point x="1498.0" y="301.6"/>
      <point x="1248.421052631579" y="58.46315789473684"/>
    </contour>
  </outline>
</glyph>
